<?xml version="1.0" encoding="UTF-8"?>
<svg width="121px" height="30px" viewBox="0 0 121 30" version="1.1" xmlns="http://www.w3.org/2000/svg" xmlns:xlink="http://www.w3.org/1999/xlink">
    <title>68E3C7F7-1D79-4DB5-8B34-8AB30ED5B9AC</title>
    <g id="Oddbee_Desktop" stroke="none" stroke-width="1" fill="none" fill-rule="evenodd">
        <g id="Main" transform="translate(-148.000000, -5855.000000)">
            <g id="Group-7" transform="translate(80.000000, 4523.000000)">
                <g id="Group-4" transform="translate(0.000000, 1219.000000)">
                    <g id="Group-9" transform="translate(68.000000, 99.000000)">
                        <g id="500px-logo" transform="translate(0.000000, 14.000000)">
                            <path d="M37.5,2 C30.6077467,2 25,7.60730718 25,14.4997167 C25,21.3921262 30.6071801,27 37.5,27 C44.3928199,27 50,21.3926928 50,14.4997167 C50,7.60674055 44.3922533,2 37.5,2 Z" id="XMLID_4_"></path>
                            <path d="M69.5,2 C62.6077467,2 57,7.60730718 57,14.4997167 C57,21.3921262 62.6071801,27 69.5,27 C76.3928199,27 82,21.3926928 82,14.4997167 C82,7.60674055 76.3922533,2 69.5,2 Z" id="XMLID_9_"></path>
                            <path d="M9.82772077,9.32799969 C7.17582066,9.32799969 4.69859661,10.3589847 2.84286886,12.1422048 L2.84286886,3.22554775 L16.8722582,3.22554775 C17.4767797,3.22554775 17.9674059,2.72702506 17.9674059,2.11277388 C17.9674059,1.4985227 17.4767797,1 16.8722582,1 L1.74772118,1 C1.14319966,1 0.652573501,1.4985227 0.652573501,2.11277388 L0.652573501,15.4571582 C0.652573501,15.9707033 0.998640168,16.4180384 1.49036148,16.5387744 C1.98098764,16.6600668 2.49077888,16.4224895 2.72185504,15.9656959 C4.09681296,13.2444074 6.81989766,11.5535474 9.82772077,11.5535474 C14.2285717,11.5535474 17.8091571,15.1917616 17.8091571,19.6639998 C17.8091571,24.1356817 14.2285717,27.7738959 9.82772077,27.7738959 C6.27560927,27.7738959 3.11775093,25.3519435 2.14854523,21.8850965 C1.98317793,21.2942136 1.37920399,20.9509228 0.796037847,21.1189517 C0.213966855,21.2869805 -0.12333863,21.9023445 0.0420286693,22.4932274 C1.27735525,26.9131653 5.30147541,30 9.82826834,30 C15.4370672,30 20,25.3636276 20,19.6645562 C20,13.9654848 15.4365196,9.32799969 9.82772077,9.32799969 Z" id="XMLID_58_" fill="#222222" fill-rule="nonzero"></path>
                            <path d="M37.5,0 C29.5047197,0 23,6.5042881 23,14.4997218 C23,22.4951555 29.5047197,29 37.5,29 C45.4952803,29 52,22.4951555 52,14.4997218 C52,6.5042881 45.4952803,0 37.5,0 Z M37.5,26.7744095 C30.7321093,26.7744095 25.2255478,21.2682988 25.2255478,14.4997218 C25.2255478,7.73114484 30.7315529,2.22559045 37.5,2.22559045 C44.2684471,2.22559045 49.7744522,7.73170123 49.7744522,14.4997218 C49.7744522,21.2677424 44.2678907,26.7744095 37.5,26.7744095 Z" id="XMLID_61_" fill="#222222" fill-rule="nonzero"></path>
                            <path d="M69.5,0 C61.5047197,0 55,6.5042881 55,14.4997218 C55,22.4951555 61.5047197,29 69.5,29 C77.4952803,29 84,22.4951555 84,14.4997218 C84,6.5042881 77.4947239,0 69.5,0 Z M69.5,26.7744095 C62.7321093,26.7744095 57.2255478,21.2682988 57.2255478,14.4997218 C57.2255478,7.73114484 62.7315529,2.22559045 69.5,2.22559045 C76.2684471,2.22559045 81.7744522,7.73170123 81.7744522,14.4997218 C81.7744522,21.2677424 76.2678907,26.7744095 69.5,26.7744095 Z" id="XMLID_64_" fill="#222222" fill-rule="nonzero"></path>
                            <path d="M95.5,0 C91.3643774,0 88,3.38675933 88,7.54989467 L88,21.8861176 C88,22.5009807 88.4957215,23 89.1065211,23 C89.7173207,23 90.2130422,22.5009807 90.2130422,21.8861176 L90.2130422,7.54989467 C90.2130422,4.61537158 92.5848702,2.22776473 95.5,2.22776473 C98.4151298,2.22776473 100.786958,4.61537158 100.786958,7.54989467 C100.786958,10.4844178 98.4151298,12.8720246 95.5,12.8720246 C95.327936,12.8720246 95.158085,12.8636705 94.990447,12.8480761 C94.3846267,12.7912681 93.8413249,13.237935 93.7832325,13.8505703 C93.7251402,14.4626486 94.1705149,15.0067802 94.7791015,15.0658159 C95.0164503,15.0892074 95.2565654,15.1003463 95.5,15.1003463 C99.6356226,15.1003463 103,11.7135869 103,7.55045161 C102.999447,3.38675933 99.6350693,0 95.5,0 Z" id="XMLID_65_" fill="#222222" fill-rule="nonzero"></path>
                            <path d="M120.665411,13.9595996 L114.614068,7.97262025 L120.601119,1.92134972 C121.03932,1.47864261 121.035372,0.764107682 120.59266,0.32591223 C120.149384,-0.111719264 119.435404,-0.108335515 118.997203,0.334371601 L113.010151,6.38564213 L106.921586,0.361441591 C106.478309,-0.0767538612 105.76433,-0.0728061544 105.326129,0.369900962 C104.887928,0.812608079 104.891876,1.52714301 105.334589,1.96533846 L111.423154,7.989539 L105.398881,14.0785947 C104.96068,14.5213018 104.964628,15.2358368 105.40734,15.6740322 C105.627286,15.89172 105.913781,16 106.200839,16 C106.491281,16 106.782287,15.8883363 107.002797,15.6655728 L113.02707,9.57651712 L119.078414,15.5634964 C119.29836,15.7811843 119.584855,15.8894642 119.871913,15.8894642 C120.162355,15.8894642 120.453361,15.7778005 120.673871,15.5550371 C121.112072,15.111766 121.108124,14.397231 120.665411,13.9595996 Z" id="XMLID_66_" fill="#222222" fill-rule="nonzero"></path>
                        </g>
                    </g>
                </g>
            </g>
        </g>
    </g>
</svg>