<?xml version="1.0" encoding="UTF-8"?>
<svg width="177px" height="36px" viewBox="0 0 177 36" version="1.1" xmlns="http://www.w3.org/2000/svg" xmlns:xlink="http://www.w3.org/1999/xlink">
    <title>7264A38A-ED77-41D1-ADC6-90845E82FBE1</title>
    <g id="Oddbee_Desktop" stroke="none" stroke-width="1" fill="none" fill-rule="evenodd">
        <g id="Main" transform="translate(-375.000000, -5852.000000)" fill="#222222" fill-rule="nonzero">
            <g id="Group-7" transform="translate(80.000000, 4523.000000)">
                <g id="Group-4" transform="translate(0.000000, 1219.000000)">
                    <g id="Group-9" transform="translate(68.000000, 99.000000)">
                        <g id="canopy-labs-seeklogo.com" transform="translate(227.000000, 11.000000)">
                            <path d="M17.9994787,0 C17.6711218,0 17.3129143,0 16.9845574,0 C9.90995898,0.239208952 3.28311998,5.23269582 1.0144724,11.9604476 C-1.34372707,18.5386938 0.507011752,26.2830836 5.55176757,31.0074604 C10.1786146,35.5524305 17.4024661,37.1670909 23.4621432,35.1338148 L23.4621432,25.0272366 L23.4621432,25.0272366 C23.0442345,26.0139735 19.0741012,26.7016992 19.0741012,26.7016992 C19.0741012,26.7016992 21.4323007,24.8478299 23.1934876,21.4690034 C22.1785663,21.9773224 20.3278275,22.3062348 20.3278275,22.3062348 C20.3278275,22.3062348 22.3576701,20.7812777 23.7905001,17.850968 C23.1934876,18.3592871 21.3427488,18.598496 21.3427488,18.598496 C21.3427488,18.598496 23.4322926,16.9838356 24.4472139,13.9638226 C24.5367658,13.7844158 24.5367658,13.7844158 24.5367658,13.7844158 C24.5367658,13.7844158 24.5367658,13.8741192 24.6263177,13.9638226 C25.641239,16.9240333 27.7307828,18.5087926 27.7307828,18.5087926 C27.7307828,18.5087926 26.2084008,18.3293859 25.4621352,17.9107703 C26.8949653,20.6915743 28.7457041,22.126828 28.7457041,22.126828 C28.7457041,22.126828 26.6561602,21.8876191 25.641239,21.3793001 C27.4024259,24.7581265 29.6710735,26.5222925 29.6710735,26.5222925 C29.6710735,26.5222925 25.7307908,26.0139735 25.1337783,25.0870388 L25.1337783,34.4460891 C31.6113642,31.7549884 36.0591075,24.9375332 35.9994062,17.9406714 C35.9994062,15.070164 35.3128418,12.2893599 34.0591155,9.7776659 C30.9546504,3.85724435 24.5367658,0 17.9994787,0 L17.9994787,0 Z" id="path4022"></path>
                            <g id="g27" transform="translate(44.000000, 14.000000)">
                                <path d="M13.0635556,16.0391304 C11.6448889,16.7391304 9.90111111,17.073913 7.89133333,17.073913 C5.46777778,17.073913 3.54666667,16.373913 2.15755556,14.9434783 C0.827555556,13.4826087 0.0886666667,11.5043478 0.0886666667,9.03913043 C0.0886666667,6.45217391 0.768444444,4.50434783 2.15755556,3.04347826 C3.48755556,1.67391304 5.49733333,0.973913043 8.06866667,0.973913043 C9.72377778,0.973913043 11.3197778,1.15652174 12.8862222,1.5826087 L12.8862222,4.07826087 C11.0537778,3.37826087 9.54644444,3.13478261 8.30511111,3.13478261 C6.70911111,3.13478261 5.55644444,3.65217391 4.64022222,4.68695652 C3.81266667,5.72173913 3.39888889,7.1826087 3.39888889,9.06956522 C3.39888889,10.9565217 3.90133333,12.326087 4.81755556,13.4521739 C5.73377778,14.5782609 6.97511111,15.0043478 8.65977778,15.0043478 C10.1671111,15.0043478 11.5857778,14.6695652 13.0635556,13.8782609 C13.0635556,13.8173913 13.0635556,16.0391304 13.0635556,16.0391304 Z" id="path7"></path>
                                <path d="M21.1617778,15.3695652 C20.1568889,16.4043478 19.0928889,16.9217391 17.9993333,16.9217391 C16.9944444,16.9217391 16.2555556,16.5869565 15.6644444,15.9782609 C15.0733333,15.3695652 14.7482222,14.6086957 14.7482222,13.573913 C14.7482222,12.2956522 15.2506667,11.3521739 16.2555556,10.6521739 C17.2604444,9.95217391 18.6791111,9.6173913 20.4228889,9.6173913 L21.2504444,9.6173913 L21.2504444,8.5826087 C21.2504444,7.39565217 20.5706667,6.78695652 19.2406667,6.78695652 C18.088,6.78695652 16.9057778,7.12173913 15.7531111,7.82173913 L15.7531111,5.75217391 C17.0831111,5.23478261 18.4131111,4.99130435 19.7431111,4.99130435 C22.6691111,4.99130435 24.0877778,6.17826087 24.0877778,8.5826087 L24.0877778,13.6347826 C24.0877778,14.4869565 24.3242222,15.0043478 24.9153333,15.0043478 C25.004,15.0043478 25.1517778,15.0043478 25.4177778,14.9130435 L25.4177778,16.7086957 C24.738,16.8913043 24.2651111,16.9521739 23.7626667,16.9521739 C22.5213333,16.9521739 21.7528889,16.4347826 21.4277778,15.4913043 L21.1913333,15.4913043 L21.1913333,15.3695652 L21.1617778,15.3695652 Z M21.1617778,13.726087 L21.1617778,11.4130435 L20.482,11.4130435 C19.5657778,11.4130435 18.886,11.5956522 18.4131111,11.9304348 C17.9106667,12.2652174 17.6742222,12.6913043 17.6742222,13.3 C17.6742222,13.726087 17.8515556,14.0608696 18.088,14.3347826 C18.3244444,14.5782609 18.6791111,14.7608696 19.0928889,14.7608696 C19.7431111,14.7608696 20.3933333,14.426087 21.1617778,13.726087 Z" id="path9"></path>
                                <path d="M27.9004444,16.6478261 L27.9004444,5.23478261 L30.8855556,5.23478261 L30.8855556,7.36521739 C31.8904444,5.72173913 33.1317778,4.96086957 34.6391111,4.96086957 C35.644,4.96086957 36.3828889,5.29565217 36.974,5.90434783 C37.5651111,6.60434783 37.8015556,7.45652174 37.8015556,8.55217391 L37.8015556,16.6173913 L34.8164444,16.6173913 L34.8164444,9.31304348 C34.8164444,8.03478261 34.4026667,7.33478261 33.5751111,7.33478261 C32.6588889,7.33478261 31.7426667,8.03478261 30.8264444,9.40434783 L30.8264444,16.6173913 L27.9004444,16.6173913 L27.9004444,16.6478261 Z" id="path11"></path>
                                <path d="M46.0475556,16.8913043 C44.3037778,16.8913043 42.9737778,16.373913 41.9688889,15.2478261 C40.964,14.1217391 40.4615556,12.7521739 40.4615556,10.8652174 C40.4615556,9.06956522 40.964,7.60869565 41.9688889,6.4826087 C42.9737778,5.35652174 44.3924444,4.83913043 46.1362222,4.83913043 C47.88,4.83913043 49.2986667,5.35652174 50.3035556,6.4826087 C51.3084444,7.60869565 51.8108889,8.97826087 51.8108889,10.8652174 C51.8108889,12.7521739 51.3084444,14.2130435 50.2148889,15.2478261 C49.1213333,16.2826087 47.88,16.8913043 46.0475556,16.8913043 Z M46.1362222,14.9130435 C46.9637778,14.9130435 47.5548889,14.5782609 48.0573333,13.7869565 C48.4711111,13.0869565 48.7371111,12.0826087 48.7371111,10.773913 C48.7371111,9.58695652 48.5006667,8.55217391 48.0573333,7.85217391 C47.6435556,7.15217391 46.9637778,6.72608696 46.2248889,6.72608696 C45.486,6.72608696 44.8062222,7.06086957 44.3924444,7.85217391 C43.9786667,8.55217391 43.7126667,9.55652174 43.7126667,10.773913 C43.7126667,11.9608696 43.9491111,12.9956522 44.3924444,13.6956522 C44.7175556,14.5782609 45.3086667,14.9130435 46.1362222,14.9130435 Z" id="path13"></path>
                                <path d="M54.6482222,20.6652174 L54.6482222,5.23478261 L57.6333333,5.23478261 L57.6333333,7.36521739 C58.3722222,5.72173913 59.6431111,4.96086957 61.2095556,4.96086957 C62.5395556,4.96086957 63.6331111,5.47826087 64.372,6.51304348 C65.1108889,7.54782609 65.5246667,8.9173913 65.5246667,10.6217391 C65.5246667,12.5086957 65.1108889,14.0608696 64.2833333,15.1565217 C63.4557778,16.2826087 62.2735556,16.8608696 60.7957778,16.8608696 C59.6431111,16.8608696 58.5495556,16.4347826 57.6333333,15.4913043 L57.6333333,20.726087 L54.6482222,20.6652174 L54.6482222,20.6652174 Z M57.5446667,13.6347826 C58.2835556,14.4869565 59.052,14.9130435 59.8795556,14.9130435 C60.6184444,14.9130435 61.2095556,14.5782609 61.6233333,13.7869565 C62.0371111,13.026087 62.3031111,12.0826087 62.3031111,10.8652174 C62.3031111,8.55217391 61.5642222,7.33478261 60.1455556,7.33478261 C59.2293333,7.33478261 58.4017778,7.94347826 57.6333333,9.03913043 L57.5446667,13.6347826 L57.5446667,13.6347826 Z" id="path15"></path>
                                <path d="M68.3028889,20.6652174 L70.8151111,16.5565217 L66.7364444,5.14347826 L69.8988889,5.14347826 L72.6475556,12.7826087 L75.8986667,5.14347826 L78.1448889,5.14347826 L71.3175556,20.6652174 C71.288,20.6652174 68.3028889,20.6652174 68.3028889,20.6652174 Z" id="path17"></path>
                                <path d="M86.8637778,16.6478261 L86.8637778,1.30869565 L89.9375556,1.30869565 L89.9375556,14.5173913 L96.6762887,14.5173913 L96.6762887,16.6478261 C96.7057778,16.6478261 86.8637778,16.6478261 86.8637778,16.6478261 Z" id="path19"></path>
                                <path d="M104.360667,15.3695652 C103.355778,16.4043478 102.291778,16.8304348 101.198222,16.8304348 C100.193333,16.8304348 99.4544444,16.4956522 98.8633333,15.8869565 C98.2722222,15.2782609 97.9471111,14.5173913 97.9471111,13.4826087 C97.9471111,12.2043478 98.4495556,11.2608696 99.4544444,10.5608696 C100.459333,9.86086957 101.878,9.52608696 103.621778,9.52608696 L104.449333,9.52608696 L104.449333,8.49130435 C104.449333,7.30434783 103.769556,6.69565217 102.439556,6.69565217 C101.286889,6.69565217 100.104667,7.03043478 98.952,7.73043478 L98.952,5.75217391 C100.282,5.23478261 101.612,4.99130435 102.942,4.99130435 C105.868,4.99130435 107.286667,6.17826087 107.286667,8.5826087 L107.286667,13.6347826 C107.286667,14.4869565 107.523111,15.0043478 108.114222,15.0043478 C108.202889,15.0043478 108.350667,15.0043478 108.616667,14.9130435 L108.616667,16.7086957 C107.936889,16.8913043 107.464,16.9521739 106.961556,16.9521739 C105.720222,16.9521739 104.951778,16.4347826 104.626667,15.4913043 L104.390222,15.4913043 L104.390222,15.3695652 L104.360667,15.3695652 Z M104.360667,13.726087 L104.360667,11.4130435 L103.680889,11.4130435 C102.764667,11.4130435 102.084889,11.5956522 101.612,11.9304348 C101.109556,12.2652174 100.873111,12.6913043 100.873111,13.3 C100.873111,13.726087 101.050444,14.0608696 101.286889,14.3347826 C101.523333,14.6086957 101.878,14.7608696 102.291778,14.7608696 C102.853333,14.7608696 103.621778,14.426087 104.360667,13.726087 Z" id="path21"></path>
                                <path d="M111.010667,16.6478261 L111.010667,0.273913043 L113.995778,0.273913043 L113.995778,7.39565217 C114.734667,5.75217391 116.005556,4.99130435 117.572,4.99130435 C118.902,4.99130435 119.995556,5.50869565 120.734444,6.54347826 C121.473333,7.57826087 121.887111,8.94782609 121.887111,10.6521739 C121.887111,12.5391304 121.473333,14.0913043 120.645778,15.1869565 C119.818222,16.3130435 118.636,16.8913043 117.217333,16.8913043 C115.976,16.8913043 114.882444,16.4652174 114.054889,15.5217391 L113.463778,16.6478261 L111.010667,16.6478261 Z M114.025333,13.6347826 C114.764222,14.4869565 115.532667,14.9130435 116.360222,14.9130435 C117.099111,14.9130435 117.690222,14.5782609 118.104,13.7869565 C118.517778,13.026087 118.783778,12.0826087 118.783778,10.8652174 C118.783778,8.55217391 118.044889,7.33478261 116.626222,7.33478261 C115.71,7.33478261 114.882444,7.94347826 114.114,9.03913043 L114.114,13.573913 L114.025333,13.573913 L114.025333,13.6347826 Z" id="path23"></path>
                                <path d="M124.428889,16.2217391 L124.428889,14 C125.936222,14.6086957 127.177556,14.9434783 128.182444,14.9434783 C129.423778,14.9434783 130.014889,14.5173913 130.014889,13.6652174 C130.014889,13.1478261 129.512444,12.6304348 128.507556,12.2043478 L127.502667,11.7782609 C126.409111,11.3521739 125.581556,10.8347826 125.167778,10.3173913 C124.665333,9.8 124.488,9.13043478 124.488,8.33913043 C124.488,7.21304348 124.901778,6.45217391 125.640667,5.84347826 C126.468222,5.23478261 127.561778,4.99130435 128.980444,4.99130435 C129.896667,4.99130435 130.990222,5.17391304 132.231556,5.4173913 L132.231556,7.54782609 C131.078889,7.12173913 130.074,6.84782609 129.246444,6.84782609 C128.005111,6.84782609 127.414,7.27391304 127.414,8.03478261 C127.414,8.55217391 127.827778,8.97826087 128.744,9.31304348 L129.571556,9.64782609 C130.901556,10.1652174 131.729111,10.6826087 132.231556,11.2 C132.734,11.7173913 132.970444,12.3869565 132.970444,13.1782609 C132.970444,14.3043478 132.556667,15.1565217 131.640444,15.7652174 C130.812889,16.4652174 129.630667,16.8 128.300667,16.8 C127.088889,16.8913043 125.758889,16.6478261 124.428889,16.2217391 Z" id="path25"></path>
                            </g>
                        </g>
                    </g>
                </g>
            </g>
        </g>
    </g>
</svg>