<?xml version="1.0" encoding="UTF-8"?>
<svg width="101px" height="50px" viewBox="0 0 101 50" version="1.1" xmlns="http://www.w3.org/2000/svg" xmlns:xlink="http://www.w3.org/1999/xlink">
    <title>4BDEDE45-1AB8-4DC4-9B5D-4BA74D51C2D7</title>
    <g id="Oddbee_Desktop" stroke="none" stroke-width="1" fill="none" fill-rule="evenodd">
        <g id="Main" transform="translate(-158.000000, -5982.000000)" fill="#222222" fill-rule="nonzero">
            <g id="Group-7" transform="translate(80.000000, 4523.000000)">
                <g id="Group-4" transform="translate(0.000000, 1219.000000)">
                    <g id="Group-9" transform="translate(68.000000, 99.000000)">
                        <g id="Mississauga_city_logo_2014" transform="translate(10.000000, 141.000000)">
                            <g id="g3053" transform="translate(50.500000, 25.000000) scale(-1, 1) rotate(-180.000000) translate(-50.500000, -25.000000) translate(0.000000, -0.000000)">
                                <path d="M15.5366667,1.39955357 L14.0952252,1.39955357 C13.915045,1.39955357 13.824955,1.48883929 13.824955,1.66741071 L13.824955,11.3102679 C13.824955,11.4888393 13.915045,11.578125 14.0952252,11.578125 L15.5366667,11.578125 C15.7168468,11.578125 15.8069369,11.4888393 15.8069369,11.3102679 L15.8069369,1.66741071 C15.8069369,1.48883929 15.7168468,1.39955357 15.5366667,1.39955357" id="path3061"></path>
                                <path d="M21.6861261,1.20955357 C20.2446847,1.20955357 18.532973,1.74526786 17.4518919,2.638125 C17.3618018,2.72741071 17.2717117,2.90598214 17.3618018,2.99526786 L18.0825225,4.06669643 C18.0825225,4.15598214 18.1726126,4.15598214 18.2627027,4.15598214 C18.3527928,4.15598214 18.3527928,4.15598214 18.4428829,4.06669643 C19.523964,3.263125 20.605045,2.90598214 21.6861261,2.90598214 C22.7672072,2.90598214 23.4879279,3.44169643 23.4879279,4.15598214 L23.4879279,4.15598214 C23.578018,5.04883929 22.587027,5.31669643 21.2356757,5.67383929 C19.7942342,6.12026786 17.8122523,6.65598214 17.8122523,8.62026786 L17.8122523,8.62026786 C17.8122523,10.4059821 19.3437838,11.6559821 21.4158559,11.6559821 C22.6771171,11.6559821 24.0284685,11.2095536 25.1095495,10.5845536 C25.2897297,10.4952679 25.2897297,10.4059821 25.1996396,10.2274107 L24.569009,9.15598214 C24.569009,9.06669643 24.4789189,9.06669643 24.3888288,9.06669643 C24.2987387,9.06669643 24.2987387,9.06669643 24.2086486,9.06669643 C23.3077477,9.60241071 22.3167568,9.95955357 21.4158559,9.95955357 C20.4248649,9.95955357 19.7041441,9.513125 19.7041441,8.79883929 L19.7041441,8.79883929 C19.7041441,8.08455357 20.8753153,7.72741071 22.0464865,7.37026786 L22.0464865,7.37026786 C23.3978378,7.013125 25.3798198,6.388125 25.3798198,4.33455357 L25.3798198,4.33455357 C25.4699099,2.45955357 23.9383784,1.20955357 21.6861261,1.20955357" id="path3065"></path>
                                <path d="M65.276036,5.18669643 C65.276036,3.84741071 64.0147748,2.77598214 62.3030631,2.77598214 C61.221982,2.77598214 60.1409009,3.31169643 60.1409009,4.47241071 C60.1409009,5.633125 61.0418018,6.258125 62.7535135,6.258125 C63.6544144,6.258125 64.4652252,6.16883929 65.3661261,5.90098214 L65.276036,5.18669643 Z M62.7535135,11.6152679 C61.1318919,11.6152679 60.0508108,11.1688393 59.1499099,10.8116964 C58.9697297,10.8116964 58.9697297,10.633125 58.9697297,10.5438393 L59.4201802,9.383125 C59.4201802,9.29383929 59.5102703,9.29383929 59.6003604,9.20455357 C59.6904505,9.20455357 59.7805405,9.20455357 59.7805405,9.20455357 C60.5012613,9.56169643 61.4021622,9.91883929 62.5733333,9.91883929 C63.8345946,9.91883929 65.276036,9.47241071 65.276036,7.508125 L65.276036,7.508125 C64.5553153,7.68669643 63.7445045,7.86526786 62.4832432,7.86526786 C59.7805405,7.86526786 58.0688288,6.52598214 58.0688288,4.47241071 C58.0688288,2.32955357 60.0508108,1.16883929 61.9427027,1.16883929 C63.4742342,1.16883929 64.5553153,1.79383929 65.1859459,2.41883929 L65.1859459,1.61526786 C65.1859459,1.43669643 65.276036,1.34741071 65.4562162,1.34741071 L66.8075676,1.34741071 C66.9877477,1.34741071 67.0778378,1.43669643 67.0778378,1.61526786 L67.0778378,7.508125 C67.1679279,10.1866964 65.5463063,11.6152679 62.7535135,11.6152679" id="path3069"></path>
                                <path d="M72.9389189,1.19392857 C70.5064865,1.19392857 68.974955,2.80107143 68.974955,5.30107143 L68.974955,11.2832143 C68.974955,11.4617857 69.065045,11.5510714 69.2452252,11.5510714 L70.6866667,11.5510714 C70.8668468,11.5510714 70.9569369,11.4617857 70.9569369,11.2832143 L70.9569369,5.65821429 C70.9569369,3.96178571 71.8578378,2.97964286 73.3893694,2.97964286 C74.9209009,2.97964286 75.9118919,4.05107143 75.9118919,5.7475 L75.9118919,11.2832143 C75.9118919,11.4617857 76.001982,11.5510714 76.1821622,11.5510714 L77.6236036,11.5510714 C77.8037838,11.5510714 77.8938739,11.4617857 77.8938739,11.2832143 L77.8938739,1.64035714 C77.8938739,1.46178571 77.8037838,1.3725 77.6236036,1.3725 L76.0920721,1.3725 C75.9118919,1.3725 75.8218018,1.46178571 75.8218018,1.64035714 L75.8218018,2.53321429 C75.2812613,1.81892857 74.3803604,1.19392857 72.9389189,1.19392857" id="path3073"></path>
                                <path d="M84.853964,1.19839286 C81.6107207,1.19839286 79.4485586,3.34125 79.4485586,6.55553571 C79.4485586,9.50196429 81.7008108,11.7341071 84.853964,11.7341071 C86.4755856,11.7341071 87.6467568,11.2876786 88.8179279,10.3055357 L88.8179279,10.1269643 C88.908018,10.1269643 88.908018,10.0376786 88.908018,9.94839286 C88.908018,9.85910714 88.908018,9.85910714 88.8179279,9.76982143 L87.917027,8.69839286 C87.917027,8.60910714 87.8269369,8.60910714 87.7368468,8.60910714 C87.6467568,8.60910714 87.6467568,8.60910714 87.5566667,8.69839286 L87.4665766,8.78767857 C86.8359459,9.32339286 86.1152252,9.76982143 84.7638739,9.76982143 C82.7818919,9.76982143 81.4305405,8.43053571 81.4305405,6.46625 C81.4305405,4.32339286 82.7818919,2.89482143 84.9440541,2.89482143 C85.844955,2.89482143 86.7458559,3.16267857 87.3764865,3.69839286 L87.3764865,5.39482143 L84.5836937,5.39482143 C84.4035135,5.39482143 84.3134234,5.48410714 84.3134234,5.66267857 L84.3134234,7.00196429 C84.3134234,7.18053571 84.4035135,7.26982143 84.5836937,7.26982143 L88.9981081,7.26982143 C89.0881982,7.26982143 89.2683784,7.18053571 89.2683784,7.00196429 L89.2683784,3.07339286 C89.2683784,2.98410714 89.2683784,2.89482143 89.1782883,2.89482143 L89.0881982,2.80553571 C88.4575676,2.18053571 86.926036,1.19839286 84.853964,1.19839286" id="path3077"></path>
                                <path d="M97.9362162,5.18669643 C97.9362162,3.84741071 96.674955,2.77598214 94.9632432,2.77598214 C93.8821622,2.77598214 92.8010811,3.31169643 92.8010811,4.47241071 C92.8010811,5.633125 93.701982,6.258125 95.4136937,6.258125 C96.3145946,6.258125 97.1254054,6.16883929 98.0263063,5.90098214 L97.9362162,5.18669643 Z M95.4136937,11.6152679 C93.7920721,11.6152679 92.710991,11.1688393 91.8100901,10.8116964 C91.6299099,10.8116964 91.6299099,10.633125 91.6299099,10.5438393 L92.0803604,9.383125 C92.0803604,9.29383929 92.1704505,9.29383929 92.2605405,9.20455357 C92.3506306,9.20455357 92.4407207,9.20455357 92.4407207,9.20455357 C93.1614414,9.56169643 94.0623423,9.91883929 95.2335135,9.91883929 C96.4947748,9.91883929 97.9362162,9.47241071 97.9362162,7.508125 L97.9362162,7.508125 C97.2154955,7.68669643 96.3145946,7.86526786 95.1434234,7.86526786 C92.4407207,7.86526786 90.729009,6.52598214 90.729009,4.47241071 C90.729009,2.24026786 92.710991,1.16883929 94.6028829,1.16883929 C96.1344144,1.16883929 97.2154955,1.79383929 97.8461261,2.41883929 L97.8461261,1.61526786 C97.8461261,1.43669643 97.9362162,1.34741071 98.1163964,1.34741071 L99.4677477,1.34741071 C99.6479279,1.34741071 99.738018,1.43669643 99.738018,1.61526786 L99.738018,7.508125 C99.8281081,10.1866964 98.2064865,11.6152679 95.4136937,11.6152679" id="path3081"></path>
                                <path d="M11.2363964,1.40758929 L9.79495495,1.40758929 C9.61477477,1.40758929 9.52468468,1.496875 9.52468468,1.67544643 L9.52468468,8.28258929 L6.46162162,3.996875 C6.37153153,3.90758929 6.37153153,3.90758929 6.28144144,3.90758929 L6.10126126,3.90758929 C6.01117117,3.90758929 5.92108108,3.90758929 5.92108108,3.996875 L2.85801802,8.28258929 L2.85801802,1.67544643 C2.76792793,1.496875 2.67783784,1.40758929 2.58774775,1.40758929 L1.14630631,1.40758929 C0.966126126,1.40758929 0.876036036,1.496875 0.876036036,1.67544643 L0.876036036,11.3183036 C0.876036036,11.496875 0.966126126,11.5861607 1.14630631,11.5861607 L2.76792793,11.5861607 C2.85801802,11.5861607 2.94810811,11.5861607 2.94810811,11.496875 L6.19135135,6.76473214 L9.43459459,11.4075893 C9.52468468,11.496875 9.52468468,11.496875 9.61477477,11.496875 L11.2363964,11.496875 C11.4165766,11.496875 11.5066667,11.4075893 11.5066667,11.2290179 L11.5066667,1.67544643 C11.5066667,1.496875 11.4165766,1.40758929 11.2363964,1.40758929" id="path3085"></path>
                                <path d="M30.6693694,1.20955357 C29.4081081,1.20955357 28.0567568,1.65598214 26.8855856,2.37026786 C26.7954955,2.37026786 26.7954955,2.45955357 26.7954955,2.54883929 C26.7954955,2.638125 26.7954955,2.72741071 26.7954955,2.72741071 L27.5162162,3.79883929 C27.6963964,3.79883929 27.7864865,3.888125 27.9666667,3.79883929 C28.8675676,3.263125 29.8585586,2.90598214 30.7594595,2.90598214 C31.8405405,2.90598214 32.5612613,3.44169643 32.5612613,4.15598214 L32.5612613,4.15598214 C32.5612613,5.04883929 31.5702703,5.31669643 30.2189189,5.67383929 C28.7774775,6.12026786 26.7954955,6.65598214 26.7954955,8.62026786 L26.7954955,8.62026786 C26.7954955,10.4059821 28.327027,11.6559821 30.3990991,11.6559821 C31.6603604,11.6559821 33.0117117,11.2095536 34.0927928,10.5845536 C34.272973,10.4952679 34.272973,10.4059821 34.1828829,10.2274107 L33.5522523,9.15598214 C33.5522523,9.06669643 33.4621622,9.06669643 33.3720721,9.06669643 C33.281982,9.06669643 33.281982,9.06669643 33.1918919,9.06669643 C32.290991,9.60241071 31.3,9.95955357 30.3990991,9.95955357 C29.4081081,9.95955357 28.6873874,9.513125 28.6873874,8.79883929 L28.6873874,8.79883929 C28.6873874,8.08455357 29.8585586,7.72741071 31.0297297,7.37026786 L31.0297297,7.37026786 C32.3810811,7.013125 34.3630631,6.388125 34.3630631,4.33455357 L34.3630631,4.33455357 C34.4531532,2.45955357 32.9216216,1.20955357 30.6693694,1.20955357" id="path3089"></path>
                                <path d="M37.9146847,1.39955357 L36.4732432,1.39955357 C36.2930631,1.39955357 36.202973,1.48883929 36.202973,1.66741071 L36.202973,11.3102679 C36.202973,11.4888393 36.2930631,11.578125 36.4732432,11.578125 L37.9146847,11.578125 C38.0948649,11.578125 38.184955,11.4888393 38.184955,11.3102679 L38.184955,1.66741071 C38.184955,1.48883929 38.0948649,1.39955357 37.9146847,1.39955357" id="path3093"></path>
                                <path d="M44.062973,1.20955357 C42.6215315,1.20955357 40.9098198,1.74526786 39.8287387,2.638125 C39.7386486,2.72741071 39.6485586,2.90598214 39.7386486,2.99526786 L40.4593694,4.06669643 C40.4593694,4.15598214 40.5494595,4.15598214 40.6395495,4.15598214 C40.7296396,4.15598214 40.7296396,4.15598214 40.8197297,4.06669643 C41.9008108,3.263125 42.9818919,2.90598214 44.062973,2.90598214 C45.1440541,2.90598214 45.8647748,3.44169643 45.8647748,4.15598214 L45.8647748,4.15598214 C45.9548649,5.04883929 44.9638739,5.31669643 43.6125225,5.67383929 C42.1710811,6.12026786 40.1890991,6.65598214 40.1890991,8.62026786 L40.1890991,8.62026786 C40.1890991,10.4059821 41.7206306,11.6559821 43.7927027,11.6559821 C45.053964,11.6559821 46.4053153,11.2095536 47.4863964,10.5845536 C47.6665766,10.4952679 47.6665766,10.4059821 47.5764865,10.2274107 L46.9458559,9.15598214 C46.9458559,9.06669643 46.8557658,9.06669643 46.7656757,9.06669643 C46.6755856,9.06669643 46.6755856,9.06669643 46.5854955,9.06669643 C45.6845946,9.60241071 44.6936036,9.95955357 43.7927027,9.95955357 C42.8017117,9.95955357 42.080991,9.513125 42.080991,8.79883929 L42.080991,8.79883929 C42.080991,8.08455357 43.2521622,7.72741071 44.4233333,7.37026786 L44.4233333,7.37026786 C45.7746847,7.013125 47.7566667,6.388125 47.7566667,4.33455357 L47.7566667,4.33455357 C47.8467568,2.45955357 46.3152252,1.20955357 44.062973,1.20955357" id="path3097"></path>
                                <path d="M53.006036,1.20955357 C51.7447748,1.20955357 50.3934234,1.65598214 49.2222523,2.37026786 C49.1321622,2.37026786 49.1321622,2.45955357 49.1321622,2.54883929 C49.1321622,2.638125 49.1321622,2.72741071 49.1321622,2.72741071 L49.8528829,3.79883929 C50.0330631,3.79883929 50.1231532,3.888125 50.3033333,3.79883929 C51.2042342,3.263125 52.1952252,2.90598214 53.0961261,2.90598214 C54.1772072,2.90598214 54.8979279,3.44169643 54.8979279,4.15598214 L54.8979279,4.15598214 C54.8979279,5.04883929 53.9069369,5.31669643 52.5555856,5.67383929 C51.1141441,6.12026786 49.1321622,6.65598214 49.1321622,8.62026786 L49.1321622,8.62026786 C49.1321622,10.4059821 50.6636937,11.6559821 52.7357658,11.6559821 C53.997027,11.6559821 55.3483784,11.2095536 56.4294595,10.5845536 C56.6096396,10.4952679 56.6096396,10.4059821 56.5195495,10.2274107 L55.8889189,9.15598214 C55.8889189,9.06669643 55.7988288,9.06669643 55.7087387,9.06669643 C55.6186486,9.06669643 55.6186486,9.06669643 55.5285586,9.06669643 C54.6276577,9.60241071 53.6366667,9.95955357 52.7357658,9.95955357 C51.7447748,9.95955357 51.0240541,9.513125 51.0240541,8.79883929 L51.0240541,8.79883929 C51.0240541,8.08455357 52.1952252,7.72741071 53.3663964,7.37026786 L53.3663964,7.37026786 C54.7177477,7.013125 56.6997297,6.388125 56.6997297,4.33455357 L56.6997297,4.33455357 C56.7898198,2.45955357 55.2582883,1.20955357 53.006036,1.20955357" id="path3101"></path>
                                <path d="M71.1927928,43.9970536 L71.1927928,21.2291964 L59.390991,29.0863393 L71.1927928,43.9970536 Z M69.390991,45.0684821 L57.5891892,30.1577679 L52.1837838,33.7291964 C52.1837838,33.7291964 69.390991,45.0684821 69.390991,45.0684821 Z M56.3279279,28.550625 L50.381982,20.9613393 L44.436036,28.550625 L50.381982,32.4791964 C50.381982,32.4791964 56.3279279,28.550625 56.3279279,28.550625 Z M48.4900901,33.7291964 L43.0846847,30.1577679 L31.2828829,45.0684821 C31.2828829,45.0684821 48.4900901,33.7291964 48.4900901,33.7291964 Z M41.2828829,28.9970536 L29.4810811,21.1399107 L29.4810811,43.9077679 C29.4810811,43.9970536 41.2828829,28.9970536 41.2828829,28.9970536 Z M71.6432432,48.7291964 C71.372973,48.7291964 71.1027027,48.6399107 70.8324324,48.4613393 L50.381982,34.8899107 L29.8414414,48.550625 C29.5711712,48.7291964 29.3009009,48.8184821 29.0306306,48.8184821 C28.1297297,48.8184821 27.409009,48.1041964 27.409009,47.300625 L27.409009,20.3363393 C27.409009,19.4434821 28.1297297,18.8184821 29.0306306,18.8184821 C29.3009009,18.8184821 29.5711712,18.9077679 29.8414414,18.9970536 L42.6342342,27.4791964 L48.9405405,19.4434821 L48.9405405,19.4434821 C49.3009009,18.9970536 49.7513514,18.7291964 50.381982,18.7291964 C50.9225225,18.7291964 51.4630631,18.9970536 51.8234234,19.4434821 L58.1297297,27.4791964 L71.0126126,18.9970536 C71.2828829,18.9077679 71.4630631,18.8184821 71.7333333,18.8184821 C72.6342342,18.8184821 73.354955,19.5327679 73.354955,20.3363393 L73.354955,47.2113393 C73.2648649,48.0149107 72.5441441,48.7291964 71.6432432,48.7291964" id="path3105"></path>
                            </g>
                        </g>
                    </g>
                </g>
            </g>
        </g>
    </g>
</svg>