<?xml version="1.0" encoding="UTF-8"?>
<svg width="58px" height="58px" viewBox="0 0 58 58" version="1.1" xmlns="http://www.w3.org/2000/svg" xmlns:xlink="http://www.w3.org/1999/xlink">
    <title>79C6781E-3AAA-4E95-9D4D-6965F7642DCD</title>
    <g id="Oddbee_Desktop" stroke="none" stroke-width="1" fill="none" fill-rule="evenodd">
        <g id="Main" transform="translate(-947.000000, -5978.000000)" fill-rule="nonzero">
            <g id="Group-7" transform="translate(80.000000, 4523.000000)">
                <g id="Group-4" transform="translate(0.000000, 1219.000000)">
                    <g id="Group-9" transform="translate(68.000000, 99.000000)">
                        <g id="fits_logo" transform="translate(799.000000, 137.000000)">
                            <path d="M28.5,3 C13.8652109,3 2,14.8652111 2,29.5 C2,44.1347889 13.8652109,56 28.5,56 C43.1386456,56 55,44.1347889 55,29.5 C55.0038564,14.8652111 43.1386456,3 28.5,3 Z" id="Path" fill="#FFFFFF"></path>
                            <path d="M29,0 C12.9837479,0 0,12.9828838 0,29.0019314 C0,45.0171162 12.9837479,58 29,58 C45.0162495,58 58,45.0171162 58,29.0019314 C58.0038605,12.9828838 45.0201126,0 29,0 Z M22.1353394,17.3980686 C20.3274268,17.3980686 19.9063532,19.3178821 19.9063532,19.3178821 L19.3500724,22.9952714 L25.3764475,22.9952714 C26.4774199,22.9952714 27.3504717,23.8875791 27.369787,24.9884782 C27.3775131,25.3708958 25.4768871,37.5503164 25.4768871,37.5503164 C25.407352,38.0138528 24.9631,38.3962704 24.4918066,38.3962704 L21.922871,38.3962704 C21.4515776,38.3962704 21.1270804,38.0138528 21.1966155,37.5503164 L22.8152381,26.981685 L18.7474349,26.981685 L17.8589309,32.7604396 C16.7502324,37.4035298 12.6785661,38.6937063 10.8590644,38.6937063 C7.43252931,38.6937063 6.16544531,36.1828838 5.74823472,34.8154512 C5.3348872,33.4557443 5.74437166,31.7831502 5.74437166,31.7715618 L5.74437166,31.7715618 C5.83708513,31.2964369 6.28133714,30.9101565 6.75649364,30.9101565 L9.02411043,30.9101565 C9.51471917,30.9101565 9.89716221,31.3234765 9.77740732,31.8101898 C9.44132101,33.1892108 9.55334978,34.6454878 11.2492335,34.6454878 C12.4390563,34.6454878 13.4048216,33.8574759 13.5941116,32.7256743 C13.6636467,32.3084915 14.4710264,26.9778222 14.4710264,26.9778222 L10.8783797,26.9778222 C10.3761818,26.9778222 10.0323693,26.5722278 10.1134936,26.0777889 L10.4727583,23.8914419 C10.5538826,23.397003 11.0329021,22.9914086 11.531237,22.9914086 L15.08139,22.9914086 L15.5681357,19.6925741 C15.9196743,17.390343 17.9130137,13.3421245 22.8306903,13.3421245 C25.8902346,13.3421245 27.6826949,15.4589411 28.1810298,17.2203796 C28.4862116,18.2903763 28.0805902,20.225641 28.0805902,20.225641 C28.003329,20.7200799 27.5320355,21.1256743 27.0298376,21.1256743 L24.4222715,21.1256743 C23.9200735,21.1256743 23.572398,20.7200799 23.6496593,20.225641 L23.7771403,19.3912754 C23.8041817,19.0590743 23.9857456,17.3980686 22.1353394,17.3980686 Z M44.0852518,38.6628039 C39.7547605,38.6628039 36.7183945,35.155378 37.2978537,30.8290376 C37.5875832,28.6774559 38.715597,26.7228771 40.3149043,25.3090909 C39.2641517,25.9000999 38.5263071,26.4408924 38.5263071,26.4408924 C38.1206857,26.7383283 37.5335004,26.981685 37.2128663,26.981685 C36.8960953,26.981685 34.8834406,26.981685 34.8834406,26.981685 L33.2957225,37.4962371 C33.2223243,37.990676 32.7510309,38.3962704 32.248833,38.3962704 L29.7919262,38.3962704 C29.2897283,38.3962704 28.9420528,37.990676 29.015451,37.4962371 L30.6070321,26.981685 L28.7604889,26.981685 C28.258291,26.981685 27.9144786,26.5760906 27.9956029,26.0816517 L28.3548675,23.8953047 C28.4359918,23.4008658 28.9111483,22.9952714 29.4133462,22.9952714 L31.2058065,22.9952714 L31.9513773,18.0547453 C32.0247754,17.5603064 32.4960689,17.154712 32.9982668,17.154712 L35.4551736,17.154712 C35.9573715,17.154712 36.305047,17.5603064 36.2316488,18.0547453 L35.4860781,22.9952714 L49.103368,22.9952714 C49.6055659,22.9952714 49.9493784,23.4008658 49.8682541,23.8953047 L49.5089894,26.0816517 C49.4278651,26.5760906 48.9527086,26.981685 48.4505107,26.981685 L45.5029952,26.981685 C43.4555729,27.0550783 41.6013036,28.774026 41.3270263,30.8290376 C41.0450228,32.9304029 42.5207121,34.6377622 44.6260803,34.6377622 C47.2761402,34.6377622 48.4775521,32.2273726 48.5200458,32.1655678 C48.5200458,32.1655678 48.5200458,32.1655678 48.5239089,32.1655678 C48.7054727,31.9028971 49.0145176,31.7174825 49.3390147,31.7174825 L51.7495648,31.7174825 C52.2169951,31.7174825 52.5414923,32.0805861 52.4719572,32.5595738 C52.3135717,33.6025308 49.6866902,38.6628039 44.0852518,38.6628039 Z" id="Shape" fill="#222222"></path>
                        </g>
                    </g>
                </g>
            </g>
        </g>
    </g>
</svg>