<?xml version="1.0" encoding="UTF-8" standalone="no"?>
<svg
   xmlns:dc="http://purl.org/dc/elements/1.1/"
   xmlns:cc="http://creativecommons.org/ns#"
   xmlns:rdf="http://www.w3.org/1999/02/22-rdf-syntax-ns#"
   xmlns:svg="http://www.w3.org/2000/svg"
   xmlns="http://www.w3.org/2000/svg"
   viewBox="0 0 270.66666 41.333332"
   height="41.333332"
   width="270.66666"
   xml:space="preserve"
   id="svg2"
   version="1.1"><metadata
     id="metadata8"><rdf:RDF><cc:Work
         rdf:about=""><dc:format>image/svg+xml</dc:format><dc:type
           rdf:resource="http://purl.org/dc/dcmitype/StillImage" /></cc:Work></rdf:RDF></metadata><defs
     id="defs6" /><g
     transform="matrix(1.3333333,0,0,-1.3333333,0,41.333333)"
     id="g10"><g
       transform="scale(0.1)"
       id="g12"><path
         id="path14"
         style="fill:#171514;fill-opacity:1;fill-rule:nonzero;stroke:none"
         d="m 339.934,180.934 -58.325,100.605 c -10.207,17.609 -29.074,28.445 -49.496,28.445 H 115.48 c -20.4214,0 -39.2886,-10.855 -49.4995,-28.445 L 7.64844,180.934 C -2.52734,163.375 -2.52734,141.578 7.51953,124.254 L 65.0195,18.7734 C 67.8008,13.2969 72.4609,9.41016 78.1563,7.80859 85.0703,5.875 93.3164,7.44531 100.719,12.125 c 20.508,12.918 39.484,30.2422 39.484,69.0703 V 206.355 c 0,14.95 12.176,27.051 27.168,27.051 h 7.098 c 10.703,0 18.797,-2.804 24.078,-8.332 8.516,-8.937 7.914,-22.761 7.914,-22.832 l -0.02,-0.656 c 0,-17.539 -14.339,-31.816 -31.953,-31.816 h -3.511 c -1.821,0 -3.313,-1.469 -3.313,-3.297 v -13.774 c 0,-1.812 1.473,-3.301 3.313,-3.301 h 23.945 c 25.82,0 26.82,-28.593 26.84,-31.816 0,-15.84 -8.293,-31.8164 -26.84,-31.8164 h -32.371 c -1.821,0 -3.313,-1.4726 -3.313,-3.3008 V 68.6953 c 0,-1.8164 1.477,-3.3008 3.313,-3.3008 h 32.371 c 27.406,0 47.297,21.9453 47.297,52.1875 0,1.289 -0.168,12.988 -5.5,25.098 -5.059,11.468 -13.207,19.515 -23.637,23.722 8.5,9.219 13.738,21.469 13.813,34.93 0.125,3.176 0.328,23.051 -13.321,37.551 -9.297,9.855 -22.437,14.855 -39.066,14.855 h -7.098 c -26.293,0 -47.621,-21.234 -47.621,-47.422 V 81.1563 c 0,-27.5977 -10.988,-39.9102 -29.9882,-51.875 -3.332,-2.0977 -5.7266,-2.1172 -6.1875,-1.8829 0,0 -0.1602,0.125 -0.3828,0.5664 L 25.3516,134.145 c -6.5313,11.269 -6.5313,25.277 0,36.546 l 58.3203,100.586 c 6.5469,11.309 18.6681,18.289 31.7891,18.289 h 116.641 c 13.117,0 25.238,-6.961 31.785,-18.289 l 58.32,-100.586 c 6.531,-11.269 6.531,-25.277 0.106,-36.351 L 263.867,38.6289 C 257.34,27.3594 245.145,20.3477 232.078,20.3477 H 150.16 c -7.734,0 -15.16,-3.0274 -20.672,-8.4297 L 121.34,3.92969 c -1.477,-1.44531 -0.461,-3.92578375 1.613,-3.92578375 h 109.16 c 20.348,0 39.328,10.91019375 49.371,28.24219375 l 58.45,95.7149 c 10.168,17.617 10.168,39.414 0,56.973" /><path
         id="path16"
         style="fill:#171514;fill-opacity:1;fill-rule:nonzero;stroke:none"
         d="M 472.445,261.109 H 449.711 V 80.2891 h 22.734 V 160.625 H 579.133 V 80.2891 h 22.73 V 261.109 h -22.73 V 182.066 H 472.445 v 79.043" /><path
         id="path18"
         style="fill:#171514;fill-opacity:1;fill-rule:nonzero;stroke:none"
         d="m 655.098,261.238 c -8.395,0 -14.856,-6.586 -14.856,-15.109 0,-8.395 6.461,-14.727 14.856,-14.727 8.398,0 15.113,6.332 15.113,14.727 0,8.523 -6.715,15.109 -15.113,15.109 z m 10.722,-58.25 H 644.766 V 80.2891 H 665.82 V 202.988" /><path
         id="path20"
         style="fill:#171514;fill-opacity:1;fill-rule:nonzero;stroke:none"
         d="m 759.301,185.68 c 24.41,0 41.59,-18.602 41.59,-43.008 0,-24.543 -17.18,-43.1447 -41.59,-43.1447 -25.184,0 -41.59,19.2457 -41.59,43.1447 0,23.637 16.406,43.008 41.59,43.008 z m -2.453,19.89 c -34.485,0 -60.703,-25.574 -60.703,-62.898 0,-37.461 26.218,-63.0275 60.703,-63.0275 18.988,0 32.937,7.3633 42.234,19.1094 V 87.9063 c 0,-27.2579 -17.695,-42.1094 -44.043,-42.1094 -15.891,0 -30.484,5.3008 -42.234,13.6914 l -9.172,-17.0508 c 12.527,-10.0703 32.289,-15.8789 51.406,-15.8789 38.75,0 65.227,22.5977 65.227,62.2539 V 202.988 h -21.184 v -16.66 c -9.297,11.754 -23.246,19.242 -42.234,19.242" /><path
         id="path22"
         style="fill:#171514;fill-opacity:1;fill-rule:nonzero;stroke:none"
         d="M 880.762,266.273 H 859.707 V 80.2891 h 21.055 v 68.8359 c 0,22.863 16.535,36.426 36.293,36.426 21.308,0 33.711,-13.305 33.711,-35.906 V 80.2891 h 21.183 v 76.1989 c 0,29.45 -20.926,49.082 -51.148,49.082 -14.207,0 -29.965,-4.648 -40.039,-18.472 v 79.175" /><path
         id="path24"
         style="fill:#171514;fill-opacity:1;fill-rule:nonzero;stroke:none"
         d="m 1031.24,266.273 h -21.05 V 80.2891 h 21.05 V 266.273" /><path
         id="path26"
         style="fill:#171514;fill-opacity:1;fill-rule:nonzero;stroke:none"
         d="m 1081.2,261.238 c -8.4,0 -14.86,-6.586 -14.86,-15.109 0,-8.395 6.46,-14.727 14.86,-14.727 8.39,0 15.11,6.332 15.11,14.727 0,8.523 -6.72,15.109 -15.11,15.109 z m 10.72,-58.25 h -21.06 V 80.2891 h 21.06 V 202.988" /><path
         id="path28"
         style="fill:#171514;fill-opacity:1;fill-rule:nonzero;stroke:none"
         d="m 1192.63,205.57 c -14.2,0 -30.09,-4.777 -40.17,-18.597 v 16.015 h -20.92 V 80.2891 h 21.05 v 68.8359 c 0,22.863 16.54,36.426 36.3,36.426 21.31,0 33.71,-13.305 33.71,-35.906 V 80.2891 h 21.18 v 76.1989 c 0,29.45 -20.92,49.082 -51.15,49.082" /><path
         id="path30"
         style="fill:#171514;fill-opacity:1;fill-rule:nonzero;stroke:none"
         d="m 1333.3,186.844 c 19.89,0 33.97,-13.949 36.55,-35.649 h -75.04 c 3.23,20.922 16.79,35.649 38.49,35.649 z m 0.39,18.726 c -35.26,0 -60.97,-26.218 -60.97,-63.933 0,-38.235 25.83,-63.9378 62.26,-63.9378 18.08,0 35.13,4.3946 50.37,18.6055 l -11.24,14.4613 c -10.46,-9.043 -23.5,-14.5902 -37.84,-14.5902 -21.05,0 -38.75,12.5312 -41.72,37.9692 h 96.48 c 0.13,2.324 0.39,5.168 0.39,7.882 -0.26,37.582 -24.28,63.543 -57.73,63.543" /><path
         id="path32"
         style="fill:#171514;fill-opacity:1;fill-rule:nonzero;stroke:none"
         d="m 1557.28,233.73 c 20.28,0 38.23,-3.234 38.23,-24.027 0,-21.57 -17.69,-24.668 -37.97,-24.668 h -40.04 v 48.695 z m 4.01,-75.949 c 22.99,0 38.36,-4.394 38.36,-24.797 0,-20.929 -15.37,-25.312 -38.36,-25.312 h -43.79 v 50.109 z m -72.98,103.328 V 80.2891 h 74.27 c 41.2,0 67.68,15.625 67.68,51.6599 0,20.793 -14.85,36.426 -32.03,41.457 15.88,4.395 27.9,19.895 27.9,38.492 0,35.911 -29.07,49.211 -67.68,49.211 h -70.14" /><path
         id="path34"
         style="fill:#171514;fill-opacity:1;fill-rule:nonzero;stroke:none"
         d="m 1713.1,183.227 c 17.17,0 28.41,-11.239 31.38,-30.485 h -64.19 c 2.84,18.082 13.56,30.485 32.81,30.485 z m 0.51,24.023 c -36.42,0 -61.61,-26.348 -61.61,-65.098 0,-39.265 26.22,-65.0973 63.29,-65.0973 18.73,0 35.78,4.5234 50.89,17.4414 l -13.43,19.2379 c -10.21,-8.132 -23.38,-13.046 -35.78,-13.046 -17.57,0 -33.19,9.308 -36.81,31.523 h 91.44 c 0.26,3.098 0.52,6.582 0.52,10.07 -0.13,38.621 -23.89,64.969 -58.51,64.969" /><path
         id="path36"
         style="fill:#171514;fill-opacity:1;fill-rule:nonzero;stroke:none"
         d="m 1883.38,204.023 h -47.4 v 37.457 h -27.13 v -37.457 h -24.67 V 179.48 h 24.67 v -54.378 c 0,-32.9301 16.4,-48.0473 44.43,-48.0473 15.5,0 28.03,5.5586 37.98,12.2773 l -10.72,21.563 c -7.37,-4.649 -16.54,-8.391 -24.93,-8.391 -10.85,0 -19.63,6.457 -19.63,23.117 v 53.859 h 47.4 v 24.543" /><path
         id="path38"
         style="fill:#171514;fill-opacity:1;fill-rule:nonzero;stroke:none"
         d="m 1967.36,181.805 c 22.34,0 37.32,-17.047 37.32,-39.653 0,-22.605 -14.98,-39.648 -37.32,-39.648 -23.25,0 -37.33,17.949 -37.33,39.648 0,21.7 14.08,39.653 37.33,39.653 z m 62.64,22.218 h -26.99 v -14.984 c -8.53,10.981 -21.32,18.211 -38.88,18.211 -34.62,0 -61.87,-27.254 -61.87,-65.098 0,-37.839 27.25,-65.0973 61.87,-65.0973 17.56,0 30.35,7.1094 38.88,18.0859 V 80.2891 H 2030 V 204.023" /></g></g></svg>