<?xml version="1.0" encoding="UTF-8"?>
<svg width="129px" height="26px" viewBox="0 0 129 26" version="1.1" xmlns="http://www.w3.org/2000/svg" xmlns:xlink="http://www.w3.org/1999/xlink">
    <title>37FD65FA-AA40-473D-B9CC-07CA5356BF5C</title>
    <g id="Oddbee_Desktop" stroke="none" stroke-width="1" fill="none" fill-rule="evenodd">
        <g id="Main" transform="translate(-1168.000000, -5997.000000)" fill="#222222" fill-rule="nonzero">
            <g id="Group-7" transform="translate(80.000000, 4523.000000)">
                <g id="Group-4" transform="translate(0.000000, 1219.000000)">
                    <g id="Group-9" transform="translate(68.000000, 99.000000)">
                        <g id="lean-in-leanin-org-vector-logo" transform="translate(1020.000000, 156.000000)">
                            <path d="M0,0.0213299875 L0,16.3387704 L12.1045,16.3387704 L12.1045,13.0752823 L3.698,13.0752823 L3.698,0.0213299875 L0,0.0213299875 Z M19.995,0.0213299875 L19.995,16.3387704 L33.2175,16.3387704 L33.2175,13.1392723 L23.779,13.1392723 L23.779,9.70514429 L31.9705,9.70514429 L31.9705,6.50564617 L23.779,6.50564617 L23.779,3.19949812 L33.0885,3.19949812 L33.0885,0 L19.995,0 L19.995,0.0213299875 Z M46.87,0.0213299875 L39.5385,17 L43.3655,17 L44.935,13.2245922 L52.159,13.2245922 L53.7285,17 L57.663,17 L50.3315,0.0213299875 L46.87,0.0213299875 L46.87,0.0213299875 Z M48.5685,4.47929737 L50.8475,9.93977415 L46.311,9.93977415 L48.5685,4.47929737 L48.5685,4.47929737 Z M76.0885,0.0213299875 L76.0885,10.0677541 L68.112,0.0213299875 L64.672,0.0213299875 L64.672,16.3387704 L68.37,16.3387704 L68.37,5.97239649 L76.6045,16.3387704 L79.7865,16.3387704 L79.7865,0.0213299875 L76.0885,0.0213299875 Z M100.663,16.3387704 L104.5545,16.3387704 L104.5545,0.0213299875 L100.663,0.0213299875 L100.663,16.3387704 Z M125.302,0.0213299875 L125.302,10.0677541 L117.3255,0.0213299875 L113.8855,0.0213299875 L113.8855,16.3387704 L117.5835,16.3387704 L117.5835,5.97239649 L125.818,16.3387704 L129,16.3387704 L129,0.0213299875 L125.302,0.0213299875 Z" id="Shape"></path>
                            <polygon id="Path" points="101 26 129 26 129 25 101 25"></polygon>
                        </g>
                    </g>
                </g>
            </g>
        </g>
    </g>
</svg>