<?xml version="1.0" encoding="utf-8"?>
<!-- Generator: Adobe Illustrator 22.1.0, SVG Export Plug-In . SVG Version: 6.00 Build 0)  -->
<svg version="1.1" id="Layer_1" xmlns="http://www.w3.org/2000/svg" xmlns:xlink="http://www.w3.org/1999/xlink" x="0px" y="0px"
	 viewBox="0 0 656.4 150" style="enable-background:new 0 0 656.4 150;" xml:space="preserve">
<style type="text/css">
	<!-- .st0{fill:#2369AD;} -->
	.st0{fill:black;}
</style>
<g>
	<path class="st0" d="M182.1,29.2H218c3.5,0,6.9,0.4,10.3,1.2c3.4,0.8,6.4,2.2,9,4c2.6,1.9,4.8,4.3,6.4,7.2
		c1.6,2.9,2.5,6.5,2.5,10.7c0,5.2-1.5,9.5-4.4,12.9c-2.9,3.4-6.8,5.8-11.6,7.3v0.3c5.8,0.8,10.6,3,14.3,6.8c3.7,3.7,5.6,8.7,5.6,15
		c0,5-1,9.3-3,12.7c-2,3.4-4.6,6.2-7.9,8.3c-3.3,2.1-7,3.6-11.2,4.5c-4.2,0.9-8.5,1.4-12.8,1.4h-33.2V29.2L182.1,29.2z M198.5,66.7
		h14.6c5.5,0,9.6-1.1,12.5-3.3c2.9-2.2,4.3-5.2,4.3-9.2c0-4.2-1.5-7.1-4.4-8.8c-2.9-1.7-7.5-2.6-13.8-2.6h-13.1V66.7L198.5,66.7z
		 M198.5,107.5h14.7c2.1,0,4.3-0.2,6.8-0.5c2.4-0.3,4.7-0.9,6.7-1.9c2-1,3.7-2.3,5.1-4.2c1.3-1.8,2-4.2,2-7.3
		c0-4.9-1.6-8.2-4.9-10.1c-3.3-1.9-8.3-2.9-15-2.9h-15.3V107.5L198.5,107.5z M304.2,113.4h-0.4c-1.6,2.8-4.1,5-7.5,6.8
		c-3.5,1.8-7.4,2.7-11.8,2.7c-2.5,0-5.1-0.3-7.9-1c-2.7-0.7-5.2-1.7-7.5-3.3c-2.3-1.5-4.2-3.5-5.7-6c-1.5-2.5-2.3-5.5-2.3-9.2
		c0-4.7,1.3-8.4,4-11.2c2.6-2.8,6-4.9,10.2-6.4c4.2-1.5,8.8-2.4,13.8-2.9c5.1-0.5,10-0.7,14.9-0.7v-1.6c0-3.9-1.4-6.8-4.2-8.6
		c-2.8-1.9-6.2-2.8-10.1-2.8c-3.3,0-6.5,0.7-9.5,2.1c-3,1.4-5.5,3.1-7.5,5.1l-8.1-9.5c3.6-3.3,7.6-5.8,12.3-7.4
		c4.6-1.6,9.3-2.5,14.1-2.5c5.5,0,10.1,0.8,13.7,2.3c3.6,1.6,6.4,3.6,8.5,6.1c2.1,2.5,3.5,5.3,4.4,8.5c0.8,3.1,1.2,6.2,1.2,9.4v38
		h-14.6V113.4L304.2,113.4z M304,92.8h-3.5c-2.5,0-5.2,0.1-7.9,0.3c-2.8,0.2-5.3,0.7-7.7,1.4c-2.3,0.7-4.3,1.8-5.9,3.1
		c-1.6,1.3-2.3,3.2-2.3,5.5c0,1.5,0.3,2.7,1,3.7c0.7,1,1.5,1.8,2.5,2.4c1,0.6,2.2,1,3.5,1.3c1.3,0.3,2.6,0.4,3.9,0.4
		c5.4,0,9.4-1.4,12.2-4.3c2.8-2.9,4.2-6.8,4.2-11.7V92.8L304,92.8z M337.3,23h15.6v98.3h-15.6V23L337.3,23z M410.6,113.4h-0.4
		c-1.6,2.8-4.1,5-7.5,6.8c-3.5,1.8-7.4,2.7-11.8,2.7c-2.5,0-5.1-0.3-7.9-1c-2.7-0.7-5.2-1.7-7.5-3.3c-2.3-1.5-4.2-3.5-5.7-6
		c-1.5-2.5-2.3-5.5-2.3-9.2c0-4.7,1.3-8.4,4-11.2c2.6-2.8,6-4.9,10.2-6.4c4.2-1.5,8.8-2.4,13.8-2.9c5.1-0.5,10-0.7,14.9-0.7v-1.6
		c0-3.9-1.4-6.8-4.2-8.6c-2.8-1.9-6.2-2.8-10.1-2.8c-3.3,0-6.5,0.7-9.5,2.1c-3,1.4-5.5,3.1-7.5,5.1l-8.1-9.5
		c3.6-3.3,7.6-5.8,12.3-7.4c4.6-1.6,9.3-2.5,14.1-2.5c5.5,0,10.1,0.8,13.7,2.3c3.6,1.6,6.4,3.6,8.5,6.1c2.1,2.5,3.5,5.3,4.4,8.5
		c0.8,3.1,1.2,6.2,1.2,9.4v38h-14.6V113.4L410.6,113.4z M410.3,92.8h-3.5c-2.5,0-5.2,0.1-7.9,0.3c-2.8,0.2-5.3,0.7-7.7,1.4
		c-2.3,0.7-4.3,1.8-5.9,3.1c-1.6,1.3-2.3,3.2-2.3,5.5c0,1.5,0.3,2.7,1,3.7c0.7,1,1.5,1.8,2.5,2.4c1,0.6,2.2,1,3.5,1.3
		c1.3,0.3,2.6,0.4,3.9,0.4c5.4,0,9.4-1.4,12.2-4.3c2.8-2.9,4.2-6.8,4.2-11.7V92.8L410.3,92.8z M443.4,58.9h14.8v10h0.3
		c1.4-3.1,3.8-5.9,7.2-8.3c3.4-2.4,7.5-3.6,12.2-3.6c4.1,0,7.6,0.7,10.5,2.1c2.9,1.4,5.3,3.3,7.2,5.7c1.9,2.3,3.2,5,4.1,8.1
		c0.9,3,1.3,6.2,1.3,9.4v39h-15.6V86.7c0-1.8-0.1-3.7-0.4-5.7c-0.3-2-0.8-3.8-1.7-5.4c-0.9-1.6-2.1-2.9-3.6-4c-1.5-1-3.5-1.6-6-1.6
		c-2.5,0-4.7,0.5-6.5,1.5c-1.8,1-3.3,2.3-4.5,3.8c-1.2,1.6-2.1,3.4-2.7,5.4c-0.6,2-0.9,4.1-0.9,6.2v34.3h-15.6V58.9L443.4,58.9z
		 M560.3,76.2c-1.2-1.7-3-3.2-5.5-4.4c-2.4-1.2-4.9-1.8-7.4-1.8c-2.9,0-5.4,0.6-7.5,1.8c-2.2,1.2-4,2.7-5.4,4.6
		c-1.4,1.9-2.5,4.1-3.2,6.4c-0.7,2.4-1,4.8-1,7.2c0,2.4,0.4,4.8,1.1,7.2c0.7,2.4,1.8,4.5,3.3,6.4c1.5,1.9,3.3,3.4,5.5,4.6
		c2.2,1.2,4.8,1.8,7.7,1.8c2.4,0,4.9-0.5,7.3-1.4c2.4-1,4.4-2.3,5.9-4.2l9.8,9.9c-2.6,2.8-5.9,4.9-9.9,6.4c-4,1.5-8.4,2.3-13.1,2.3
		c-4.6,0-9-0.7-13.1-2.2c-4.1-1.5-7.7-3.6-10.8-6.5c-3.1-2.9-5.5-6.3-7.3-10.4c-1.8-4.1-2.7-8.7-2.7-13.9c0-5,0.9-9.6,2.7-13.7
		c1.8-4.1,4.2-7.5,7.2-10.4c3-2.9,6.6-5.1,10.6-6.6c4-1.6,8.3-2.3,12.9-2.3c4.6,0,9,0.9,13.3,2.6c4.3,1.7,7.7,4.1,10.2,7.2
		L560.3,76.2L560.3,76.2z M625,83.9c0-2-0.3-3.9-0.8-5.7c-0.6-1.8-1.5-3.4-2.7-4.8c-1.2-1.4-2.8-2.5-4.6-3.3
		c-1.9-0.8-4.1-1.2-6.6-1.2c-4.7,0-8.6,1.4-11.9,4.2c-3.3,2.8-5,6.4-5.4,10.9H625L625,83.9z M640.6,90.9c0,0.7,0,1.4,0,2.1
		c0,0.7,0,1.4-0.1,2.1H593c0.2,2.3,0.8,4.3,1.8,6.2c1,1.9,2.3,3.5,4,4.8c1.6,1.3,3.5,2.4,5.6,3.2c2.1,0.8,4.2,1.2,6.5,1.2
		c3.9,0,7.2-0.7,9.9-2.1c2.7-1.4,4.9-3.4,6.6-5.9l10.4,8.3c-6.2,8.3-15.1,12.5-26.8,12.5c-4.9,0-9.3-0.8-13.4-2.3
		c-4.1-1.5-7.6-3.7-10.6-6.4c-3-2.8-5.3-6.2-7-10.2c-1.7-4-2.5-8.6-2.5-13.7c0-5,0.8-9.6,2.5-13.7c1.7-4.1,4-7.6,7-10.5
		c2.9-2.9,6.4-5.2,10.5-6.8c4-1.6,8.4-2.4,13.1-2.4c4.3,0,8.3,0.7,12,2.1c3.7,1.4,6.9,3.6,9.6,6.4c2.7,2.8,4.8,6.3,6.3,10.5
		C639.9,80.3,640.6,85.2,640.6,90.9L640.6,90.9z"/>
</g>
<g>
	<path class="st0" d="M128.6,57.4c-4.2-15.6-14.2-28.7-28.2-36.8c-14-8.1-30.3-10.2-46-6.1c-15.6,4.2-28.7,14.2-36.8,28.2
		c-8.1,14-10.2,30.3-6.1,46c7.2,27,31.8,44.9,58.5,44.9c5.2,0,10.4-0.7,15.7-2.1h0C118,123,137.2,89.7,128.6,57.4z M19.2,86.7
		c-7.5-28,9.2-57,37.2-64.5c4.5-1.2,9.1-1.8,13.7-1.8c9.1,0,18.1,2.4,26.2,7.1c2,1.1,3.9,2.4,5.7,3.8c-0.3,0.1-0.5,0.1-0.8,0.2
		c-10.3,2.8-19.1,9.8-24,19.3l-21.5,41c-3.9,7.5-10.8,13.1-19,15.3c-2,0.5-4,0.9-6.1,1C25.4,102.1,21.4,94.9,19.2,86.7z M83.7,123.9
		c-16.4,4.4-33.1,0.5-45.6-9.1c0.2-0.1,0.5-0.1,0.7-0.2c10.3-2.8,19.1-9.8,24-19.3l21.5-41c3.9-7.5,10.8-13.1,19-15.3
		c2-0.5,4.1-0.9,6.1-1c5.4,6,9.3,13.3,11.4,21.3C128.4,87.5,111.7,116.4,83.7,123.9z"/>
	<path class="st0" d="M45.8,64.1c2.3,1.3,4.8,2,7.3,2c1.3,0,2.6-0.2,3.8-0.5c7.8-2.1,12.5-10.2,10.4-18c-2.1-7.8-10.2-12.5-18-10.4
		c-7.8,2.1-12.5,10.2-10.4,18C40,59,42.4,62.1,45.8,64.1z M51.2,44.1L51.2,44.1c0.7-0.2,1.3-0.3,2-0.3c1.3,0,2.6,0.3,3.8,1
		c1.8,1,3,2.6,3.5,4.6c1.1,4-1.3,8.2-5.4,9.3c-2,0.5-4,0.3-5.8-0.8s-3-2.6-3.5-4.6C44.8,49.3,47.2,45.2,51.2,44.1z"/>
	<path class="st0" d="M83.1,80.6c-7.8,2.1-12.5,10.2-10.4,18c1.8,6.5,7.7,10.9,14.2,10.9c1.3,0,2.5-0.2,3.8-0.5c3.8-1,7-3.4,8.9-6.8
		c2-3.4,2.5-7.3,1.5-11.1C99,83.1,90.9,78.5,83.1,80.6z M88.9,102.1c-4,1.1-8.2-1.3-9.3-5.4c-1.1-4,1.3-8.2,5.4-9.3
		c0.7-0.2,1.3-0.3,2-0.3c3.3,0,6.4,2.2,7.3,5.6C95.3,96.8,92.9,101,88.9,102.1z"/>
</g>
</svg>
