<?xml version="1.0" encoding="utf-8"?>
<!-- Generator: Adobe Illustrator 23.1.1, SVG Export Plug-In . SVG Version: 6.00 Build 0)  -->
<svg version="1.1" id="Layer_1" xmlns="http://www.w3.org/2000/svg" xmlns:xlink="http://www.w3.org/1999/xlink" x="0px" y="0px"
	 viewBox="0 0 400 200" style="enable-background:new 0 0 400 200;" xml:space="preserve">
<style type="text/css">
	<!-- .st0{fill:#D2B674;}
	.st1{fill:#EE3359;} -->
	.st0{fill:black;}
	.st1{fill:white;}
</style>
<g>
	<path class="st0" d="M243.65,86.66c1.61-1.48,3.45-2.58,5.51-3.29c2.06-0.71,4.19-1.06,6.38-1.06c2.32,0,4.74,0.47,7.25,1.4
		c2.34,0.87,4.25,2.11,5.76,3.69c0.21-1.25,0.46-2.49,0.74-3.7c0.03-0.14,0.06-0.27,0.1-0.41c0.25-1.06,0.53-2.1,0.84-3.13
		c0.07-0.23,0.13-0.46,0.2-0.69c0.29-0.94,0.61-1.86,0.95-2.78c0.09-0.25,0.18-0.51,0.28-0.76c0.43-1.12,0.89-2.23,1.4-3.3
		c0.25-0.54,0.52-1.05,0.78-1.58c0.21-0.41,0.4-0.83,0.61-1.24c0.35-0.66,0.72-1.31,1.09-1.95c0.14-0.25,0.28-0.51,0.43-0.76
		c0.47-0.79,0.95-1.56,1.45-2.31c0.06-0.09,0.12-0.19,0.18-0.29c0.56-0.85,1.14-1.67,1.74-2.48c0,0,0,0,0.01-0.01
		c2.39-3.24,5.09-6.18,8.07-8.82c0.02-0.01,0.03-0.03,0.05-0.04c-1.06-0.61-2.18-1.21-3.39-1.78c-2.77-1.29-5.8-2.45-9.09-3.48
		c-3.29-1.03-6.71-1.84-10.25-2.42c-3.55-0.58-7.06-0.87-10.54-0.87c-8.51,0-16.41,1.29-23.69,3.87
		c-7.28,2.58-13.63,6.25-19.05,11.02c-5.03,4.43-9.02,9.74-11.99,15.9c-3.14-6.57-7.31-12.13-12.55-16.67
		c-5.35-4.64-11.54-8.15-18.57-10.54c-7.03-2.38-14.41-3.58-22.15-3.58c-7.61,0-14.92,1.19-21.95,3.58
		c-7.03,2.39-13.18,5.9-18.47,10.54c-5.29,4.64-9.51,10.35-12.67,17.12c-2.48,5.3-3.97,11.18-4.5,17.63
		c-3.71-2.99-8.22-5.33-12.33-6.97c-5.02-2.01-8.44-2.81-14.47-4.62c-6.03-1.61-11.06-3.02-11.06-5.43c0-2.21,1.61-3.42,5.63-3.42
		c6.94,0,17.21,2.67,26.73,7.99c0.36-1.22,0.77-2.4,1.18-3.54c0.02-0.06,0.05-0.12,0.07-0.18c4.03-10.93,10.15-18.07,12.66-20.68
		c-6.17-3.88-19.23-11.12-42.25-11.12c-24.52,0-43.21,13.06-43.21,34.37c0,21.3,15.07,26.73,19.1,28.14
		c4.02,1.61,7.84,2.81,12.06,4.02c4.22,1.21,17.08,4.02,17.08,7.64c0,2.82-3.01,3.22-5.83,3.22c-2.81,0-19.29-1.61-33.36-10.85
		L5.34,138.53c15.27,11.66,32.96,14.27,47.43,14.27c14.47,0,25.12-3.02,33.16-9.04c4.96-3.72,8.92-8.44,11.23-14.11
		c2.46,3.74,5.33,7.08,8.62,10c5.29,4.71,11.44,8.29,18.47,10.73c7.03,2.45,14.34,3.67,21.95,3.67c7.74,0,15.12-1.23,22.15-3.67
		c7.03-2.45,13.21-6.03,18.57-10.73c5.13-4.51,9.24-10,12.35-16.47c2.91,6.18,6.84,11.51,11.8,15.98
		c5.29,4.77,11.54,8.45,18.76,11.02c7.22,2.58,15.15,3.87,23.79,3.87c7.48,0,14.6-1.15,21.37-3.46c4.7-1.6,8.78-3.46,12.27-5.56
		c-2.95-2.66-5.62-5.63-8-8.89c-0.03-0.04-0.06-0.09-0.09-0.13c-0.56-0.77-1.1-1.56-1.63-2.36c-0.1-0.15-0.19-0.3-0.28-0.45
		c-0.45-0.71-0.9-1.42-1.33-2.14c-0.2-0.34-0.38-0.68-0.57-1.03c-0.31-0.56-0.63-1.11-0.93-1.68c-0.46-0.89-0.91-1.79-1.33-2.71
		c-0.02-0.04-0.04-0.07-0.05-0.11c-0.49-1.06-0.94-2.14-1.37-3.25c-0.07-0.19-0.14-0.4-0.21-0.59c-0.35-0.95-0.69-1.91-0.99-2.89
		c-0.04-0.13-0.08-0.27-0.12-0.41c-0.33-1.08-0.62-2.17-0.89-3.28c-0.01-0.04-0.02-0.09-0.03-0.13c-0.29-1.2-0.54-2.42-0.76-3.66
		c-1.49,1.49-3.34,2.69-5.59,3.58c-2.45,0.97-4.96,1.45-7.54,1.45c-2.19,0-4.32-0.35-6.38-1.06c-2.07-0.71-3.9-1.74-5.51-3.09
		c-1.62-1.35-2.93-3.09-3.97-5.22c-1.03-2.13-1.55-4.61-1.55-7.45c0-2.83,0.51-5.32,1.55-7.45
		C240.72,89.95,242.04,88.14,243.65,86.66z M158.39,111.32c-3.09,3.36-7.09,5.03-11.99,5.03c-4.9,0-8.9-1.67-11.99-5.03
		c-3.09-3.35-4.64-7.41-4.64-12.18c0-4.51,1.52-8.44,4.55-11.8c3.03-3.35,6.99-5.03,11.89-5.03c4.9,0,8.93,1.68,12.09,5.03
		c3.16,3.35,4.74,7.29,4.74,11.8C163.03,103.9,161.48,107.96,158.39,111.32z"/>
	<path class="st1" d="M199.15,89.75c-2.76,0-4.99,0.94-6.69,2.83c-1.7,1.89-2.56,4.1-2.56,6.63c0,2.68,0.87,4.97,2.61,6.85
		c1.74,1.89,3.99,2.83,6.74,2.83c2.75,0,5-0.94,6.74-2.83c1.74-1.88,2.61-4.17,2.61-6.85c0-2.54-0.89-4.75-2.66-6.63
		C204.17,90.7,201.9,89.75,199.15,89.75z"/>
	<g>
		<path class="st0" d="M391.23,98.94c0,8.77-1.58,16.57-4.74,23.4c-3.16,6.84-7.42,12.6-12.77,17.31
			c-5.35,4.71-11.54,8.29-18.57,10.73c-7.03,2.45-14.41,3.67-22.15,3.67c-7.61,0-14.92-1.23-21.95-3.67
			c-7.03-2.45-13.18-6.03-18.47-10.73c-5.29-4.71-9.51-10.47-12.67-17.31c-3.16-6.83-4.74-14.63-4.74-23.4
			c0-8.64,1.58-16.34,4.74-23.11c3.16-6.77,7.38-12.47,12.67-17.12c5.29-4.64,11.44-8.15,18.47-10.54
			c7.03-2.38,14.34-3.58,21.95-3.58c7.74,0,15.12,1.19,22.15,3.58c7.02,2.39,13.21,5.9,18.57,10.54c5.35,4.64,9.6,10.35,12.77,17.12
			C389.65,82.6,391.23,90.3,391.23,98.94z M333.01,82.31c-4.9,0-8.87,1.68-11.89,5.03c-3.03,3.36-4.55,7.29-4.55,11.8
			c0,4.77,1.55,8.83,4.64,12.18c3.09,3.36,7.09,5.03,11.99,5.03c4.9,0,8.9-1.67,11.99-5.03c3.09-3.35,4.64-7.41,4.64-12.18
			c0-4.51-1.58-8.44-4.74-11.8C341.94,83.98,337.91,82.31,333.01,82.31z"/>
	</g>
</g>
</svg>
