<svg width="95" height="30" viewBox="0 0 95 30" fill="none" xmlns="http://www.w3.org/2000/svg">
<path fill-rule="evenodd" clip-rule="evenodd" d="M67.0953 24.194C66.9053 24.194 66.7173 24.227 66.5323 24.212C66.3433 24.197 66.1573 24.164 65.9733 24.134C65.7873 24.104 65.6063 24.048 65.4263 24.002C65.2449 23.956 65.0657 23.9016 64.8893 23.839C64.7103 23.776 64.5313 23.719 64.3633 23.639C64.1923 23.559 64.0403 23.446 63.8823 23.349C63.559 23.1537 63.2591 22.9222 62.9883 22.659C62.855 22.5229 62.7305 22.3786 62.6153 22.227C62.4953 22.073 62.3573 21.936 62.2613 21.775C62.1613 21.607 62.0933 21.426 62.0193 21.255C61.9393 21.074 61.8493 20.902 61.7983 20.724C61.6845 20.3557 61.6421 19.9691 61.6733 19.585C61.6843 19.416 61.7283 19.267 61.7683 19.137C61.8673 18.805 61.9793 18.737 62.1313 18.996C62.2103 19.129 62.3213 19.291 62.4453 19.482C62.5403 19.63 62.6603 19.781 62.7923 19.942C62.9073 20.084 63.0203 20.241 63.1693 20.38C63.3033 20.506 63.4633 20.614 63.6293 20.73C63.7793 20.837 63.9273 20.965 64.1063 21.056C64.2703 21.141 64.4543 21.203 64.6453 21.27C64.8183 21.332 65.0043 21.383 65.2013 21.426C65.3813 21.466 65.5693 21.524 65.7713 21.546C65.9213 21.562 66.0763 21.536 66.2243 21.536C66.4243 21.536 66.6143 21.516 66.7963 21.488C66.9943 21.458 67.1913 21.452 67.3663 21.394C67.5563 21.332 67.7323 21.244 67.8943 21.155C68.0703 21.059 68.2143 20.927 68.3553 20.808C68.5093 20.679 68.6563 20.553 68.7673 20.407C68.8893 20.245 69.0003 20.081 69.0673 19.912C69.1319 19.7416 69.1814 19.566 69.2153 19.387C69.2553 19.199 69.2533 19.017 69.2513 18.845C69.2513 18.658 69.2413 18.479 69.1993 18.306C69.1618 18.1274 69.1062 17.9532 69.0333 17.786C68.9548 17.6221 68.8643 17.4643 68.7623 17.314C68.6623 17.166 68.5373 17.034 68.4203 16.891C68.3083 16.753 68.2043 16.602 68.0803 16.466C67.9603 16.333 67.8123 16.224 67.6873 16.091C67.5723 15.967 67.4603 15.84 67.3463 15.714C67.2313 15.589 67.1233 15.457 67.0153 15.328C66.9046 15.1994 66.7988 15.0666 66.6983 14.93C66.5979 14.7934 66.5045 14.6519 66.4183 14.506C66.3323 14.36 66.2443 14.212 66.1793 14.056C66.1176 13.8971 66.0684 13.7336 66.0323 13.567C65.9817 13.3748 65.9492 13.1782 65.9353 12.98C65.9316 12.7813 65.947 12.5827 65.9813 12.387C66.0093 12.192 66.0493 11.997 66.1143 11.808C66.1768 11.6193 66.2555 11.4363 66.3493 11.261C66.4423 11.091 66.5833 10.947 66.7083 10.788C66.8203 10.645 66.9143 10.484 67.0453 10.355C67.1753 10.229 67.3223 10.118 67.4693 10.007C67.6133 9.89697 67.7663 9.79697 67.9243 9.70397C68.0803 9.61197 68.2383 9.51697 68.4043 9.44197C68.5703 9.36697 68.7473 9.31597 68.9213 9.25897C69.0933 9.20197 69.2653 9.13797 69.4453 9.09897C69.6223 9.05997 69.8023 9.01897 69.9853 8.99997C70.1653 8.97997 70.3503 8.99697 70.5333 8.99697C70.5813 8.99697 70.6303 9.01397 70.6793 9.01497C70.8593 9.01997 71.0333 8.99797 71.1973 9.01297C71.3783 9.02897 71.5473 9.07497 71.7073 9.10097C71.8893 9.13097 72.0583 9.15897 72.2163 9.19997C72.3943 9.24597 72.5663 9.27297 72.7173 9.32997C72.8923 9.39497 73.0493 9.47197 73.1893 9.54897C73.3553 9.63897 73.4843 9.75697 73.6073 9.85397C73.7593 9.97397 73.9033 10.074 74.0003 10.189C74.1233 10.336 74.2163 10.504 74.2933 10.669C74.3733 10.84 74.4333 11.02 74.4613 11.203C74.4817 11.3887 74.4746 11.5763 74.4403 11.76C74.4143 11.934 74.3833 12.093 74.3073 12.218C74.2194 12.3532 74.0949 12.4608 73.9483 12.528C73.8031 12.5911 73.6454 12.6202 73.4873 12.613C73.2721 12.6177 73.0582 12.5789 72.8583 12.499C72.7133 12.4359 72.5824 12.3444 72.4733 12.23C72.3666 12.1152 72.2727 11.9891 72.1933 11.854C72.0833 11.68 71.9733 11.498 71.7873 11.342C71.6144 11.2071 71.4172 11.1069 71.2063 11.047C70.9974 10.9786 70.7791 10.9432 70.5593 10.942C70.3993 10.942 70.2463 10.96 70.1043 10.999C69.9546 11.0352 69.812 11.096 69.6823 11.179C69.5543 11.269 69.4543 11.391 69.3753 11.521C69.2713 11.6966 69.2219 11.8992 69.2333 12.103C69.2393 12.291 69.3023 12.481 69.4023 12.678C69.4603 12.79 69.5543 12.908 69.6753 13.048C69.7653 13.154 69.8573 13.282 69.9763 13.404C70.0783 13.509 70.1743 13.634 70.2923 13.752C70.4133 13.873 70.5583 13.987 70.6913 14.124C70.8123 14.249 70.9453 14.374 71.0723 14.512C71.1923 14.642 71.2953 14.794 71.4163 14.935C71.5323 15.071 71.6393 15.217 71.7523 15.363C71.8623 15.505 71.9793 15.645 72.0823 15.797C72.1843 15.946 72.2923 16.093 72.3843 16.252C72.4753 16.408 72.5503 16.574 72.6293 16.74C72.7073 16.903 72.8013 17.062 72.8643 17.234C72.9273 17.404 72.9753 17.581 73.0213 17.759C73.0663 17.933 73.0873 18.115 73.1133 18.298C73.1383 18.475 73.1403 18.656 73.1453 18.842C73.1503 19.02 73.1793 19.203 73.1633 19.388C73.1483 19.566 73.1283 19.748 73.0923 19.932C73.0583 20.106 72.9943 20.28 72.9393 20.459C72.8856 20.6282 72.8222 20.7941 72.7493 20.956C72.6793 21.12 72.6153 21.286 72.5273 21.438C72.2521 21.8938 71.9038 22.3012 71.4963 22.644C71.3633 22.76 71.2363 22.887 71.0933 22.99C70.9493 23.093 70.7813 23.16 70.6293 23.249C70.4763 23.339 70.3223 23.421 70.1633 23.498C70.0033 23.574 69.8453 23.652 69.6813 23.716C69.5153 23.78 69.3573 23.863 69.1883 23.915C69.0183 23.967 68.8403 23.985 68.6683 24.024C68.4953 24.064 68.3263 24.126 68.1533 24.152C67.9773 24.179 67.7973 24.165 67.6233 24.179C67.4475 24.1908 67.2714 24.1958 67.0953 24.194ZM21.4923 25.474C21.2893 25.474 21.0863 25.492 20.8923 25.451C20.6964 25.4048 20.5062 25.3371 20.3253 25.249C20.146 25.1596 19.9775 25.0499 19.8233 24.922C19.6658 24.799 19.5231 24.658 19.3983 24.502C19.2757 24.3564 19.1678 24.1989 19.0763 24.032C18.9913 23.868 18.9443 23.682 18.8833 23.495C18.824 23.3146 18.7765 23.1305 18.7413 22.944C18.7055 22.7571 18.6795 22.5685 18.6633 22.379C18.6483 22.196 18.6493 22.006 18.6493 21.809C18.6493 21.625 18.6213 21.433 18.6353 21.237C18.6483 21.052 18.6883 20.865 18.7133 20.671C18.7373 20.486 18.7383 20.292 18.7733 20.099C18.8053 19.916 18.8433 19.727 18.8863 19.536C18.9253 19.364 18.9763 19.192 19.0163 19.016C19.0573 18.844 19.1133 18.673 19.1563 18.497C19.1983 18.326 19.2363 18.151 19.2823 17.977C19.3263 17.805 19.3863 17.637 19.4323 17.463C19.4793 17.293 19.5023 17.113 19.5513 16.94C19.5983 16.769 19.6373 16.594 19.6863 16.42C19.7363 16.25 19.8083 16.084 19.8593 15.912C19.9103 15.741 19.9453 15.564 19.9973 15.392C20.0503 15.222 20.1333 15.06 20.1873 14.89C20.2403 14.72 20.2803 14.544 20.3353 14.374L20.5013 13.863C20.5583 13.693 20.6413 13.533 20.6983 13.363C20.7563 13.193 20.7843 13.013 20.8433 12.843C20.9033 12.674 21.0243 12.288 21.0693 12.114C21.1663 11.737 21.2253 11.778 20.8673 11.799C20.8473 11.8 20.4903 11.805 20.4703 11.804C20.2861 11.7925 20.1034 11.7644 19.9243 11.72C19.7443 11.671 19.5623 11.627 19.3933 11.551C19.2233 11.475 19.0643 11.374 18.9083 11.275C18.7483 11.175 18.6103 11.05 18.4703 10.933C18.2788 10.757 18.1035 10.5642 17.9463 10.357C17.7663 10.109 17.7863 10.114 17.9463 9.95197C18.1483 9.74897 18.4643 9.56197 18.6503 9.46197C18.8063 9.37697 18.9803 9.29497 19.1643 9.20697C19.3283 9.12897 19.5043 9.05697 19.6903 8.97597C19.8583 8.90297 20.0333 8.82597 20.2173 8.75297C20.3893 8.68297 20.5673 8.61297 20.7523 8.54297C20.9263 8.47697 21.1033 8.40097 21.2893 8.33397C21.4653 8.27197 21.6493 8.22197 21.8363 8.15897C22.0143 8.09897 22.5453 7.91697 22.7313 7.85697C22.8155 7.83136 22.8932 7.78792 22.9591 7.72959C23.025 7.67127 23.0776 7.59943 23.1133 7.51897C23.1933 7.34897 23.3533 6.92697 23.4323 6.76297C23.5123 6.59397 23.6053 6.43297 23.6853 6.26997C23.7693 6.09997 23.8543 5.93597 23.9353 5.77497C24.0213 5.60497 24.0953 5.43497 24.1783 5.27497C24.2673 5.10497 24.3683 4.94897 24.4523 4.79197C24.5443 4.62097 24.6183 4.45097 24.7043 4.29797C24.8003 4.12597 24.8823 3.95897 24.9703 3.81197C25.0753 3.63597 25.1953 3.49297 25.2843 3.35797C25.3863 3.20197 25.5063 3.06497 25.6173 2.92597C25.7333 2.77997 25.8293 2.62197 25.9533 2.49397C26.0823 2.35997 26.2313 2.25297 26.3663 2.13597C26.5073 2.01597 26.6463 1.89897 26.7933 1.79597C26.9443 1.68897 27.0843 1.56897 27.2403 1.47997C27.3992 1.39038 27.562 1.30797 27.7283 1.23297C27.8973 1.15497 28.0753 1.11097 28.2433 1.04897C28.4183 0.985973 28.5833 0.900973 28.7533 0.853973C28.9333 0.803973 29.1163 0.773973 29.2893 0.738973C29.4743 0.701973 29.6543 0.666973 29.8283 0.644973C30.0183 0.620973 30.2013 0.626973 30.3733 0.614973C30.5683 0.603973 30.8863 0.556973 31.1333 0.601973C31.4303 0.655973 31.4833 0.720973 31.3363 0.939973C31.2473 1.07297 31.0713 1.37497 30.9543 1.55397C30.8623 1.69697 30.7543 1.84897 30.6463 2.01997C30.5533 2.16797 30.4533 2.32597 30.3493 2.49497C30.2553 2.64497 30.1523 2.80097 30.0503 2.96897C29.9573 3.12197 29.8683 3.28597 29.7683 3.45397L29.4843 3.93497C29.3923 4.09197 29.2943 4.25197 29.1983 4.41797C29.1073 4.57597 29.0013 4.73097 28.9063 4.89797C28.8163 5.05697 28.7343 5.22597 28.6413 5.39197C28.5513 5.55197 28.3343 6.00197 28.2353 6.16697C28.0333 6.50497 28.2173 6.49697 28.3933 6.45997C28.5693 6.42297 29.0433 6.28197 29.2193 6.24597C29.3953 6.21097 29.5693 6.16697 29.7463 6.13297C29.9233 6.09897 30.1033 6.08997 30.2803 6.05697C30.4573 6.02497 30.6353 6.00197 30.8113 5.97097C30.9893 5.93897 31.1633 5.89597 31.3403 5.86697C31.5173 5.83697 31.6933 5.79597 31.8703 5.76697C32.0473 5.73897 32.2263 5.72297 32.4043 5.69697C32.5823 5.66897 32.7563 5.61897 32.9343 5.59397C33.1133 5.56797 33.2923 5.54997 33.4703 5.52597C33.6483 5.50197 33.8293 5.49397 34.0073 5.47197C34.1863 5.44897 34.3653 5.44197 34.5433 5.42097C34.7233 5.39997 34.8973 5.34597 35.0753 5.32697C35.2553 5.30697 35.4333 5.28297 35.6103 5.26597C35.7903 5.24797 35.9703 5.25197 36.1493 5.23597C36.3283 5.21897 36.5083 5.21097 36.6853 5.19597C36.8653 5.18197 37.0433 5.14997 37.2223 5.13697C37.4023 5.12397 37.5823 5.12097 37.7613 5.10997C37.9413 5.09897 38.1213 5.09497 38.2983 5.08597C38.4783 5.07697 38.6583 5.07597 38.8353 5.06997C39.0163 5.06297 39.1953 5.03597 39.3733 5.03097C39.5533 5.02597 39.7323 5.05797 39.9093 5.05597C40.0893 5.05297 40.2673 5.05197 40.4443 5.05197C40.6233 5.05197 40.8033 5.04397 40.9853 5.04697C41.1643 5.04997 41.3443 5.02497 41.5253 5.03097C41.7043 5.03597 41.8833 5.07097 42.0633 5.07897C42.2433 5.08597 42.4243 5.06497 42.6053 5.07597C42.7853 5.08797 42.9633 5.13397 43.1423 5.14897C43.3223 5.16297 43.5033 5.16297 43.6833 5.18097C43.8633 5.19897 44.0403 5.23697 44.2193 5.25797C44.3993 5.27997 44.5833 5.26397 44.7623 5.28997C44.9423 5.31497 45.1203 5.34197 45.2983 5.37097C45.4773 5.40097 45.6543 5.43797 45.8303 5.47297C46.0093 5.50797 46.1803 5.56797 46.3563 5.60797C46.5333 5.64797 46.7103 5.68597 46.8833 5.73197C47.0603 5.77797 47.2383 5.80997 47.4103 5.86197C47.5853 5.91497 47.7553 5.97797 47.9243 6.03697C48.0973 6.09697 48.2653 6.16197 48.4323 6.22897C48.6023 6.29597 48.7573 6.39097 48.9203 6.46497C49.2486 6.61401 49.5676 6.78299 49.8753 6.97097C50.0303 7.06797 50.1853 7.16097 50.3283 7.26697C50.4753 7.37597 50.6283 7.47597 50.7613 7.59497C50.8973 7.71497 51.0093 7.85997 51.1313 7.99197C51.2553 8.12497 51.3683 8.26497 51.4753 8.40897C51.5843 8.55297 51.6933 8.69897 51.7683 8.86297C51.9143 9.18597 51.7303 9.12997 51.5683 9.03697C51.4133 8.94697 51.2353 8.89097 51.0693 8.80797C50.9093 8.72797 50.7553 8.62397 50.5853 8.54997C50.4176 8.4761 50.2482 8.40608 50.0773 8.33997C49.9093 8.27597 49.7273 8.23997 49.5523 8.17997C49.3803 8.12397 49.2123 8.04797 49.0343 7.99597C48.8613 7.94597 48.6843 7.89697 48.5043 7.85197C48.3283 7.80897 48.1533 7.75197 47.9713 7.71297C47.7943 7.67497 47.6133 7.64297 47.4303 7.60997C47.2523 7.57797 47.0693 7.56397 46.8853 7.53597C46.7063 7.50897 46.5253 7.47897 46.3423 7.45597C46.1623 7.43397 45.9793 7.42597 45.7943 7.40797C45.6143 7.38997 45.4313 7.38197 45.2463 7.36797C45.0663 7.35397 44.8843 7.32397 44.6993 7.31397C44.5173 7.30397 44.3343 7.30697 44.1493 7.29997C43.9673 7.29297 43.7833 7.29497 43.5973 7.29197C43.4163 7.28897 43.2323 7.26897 43.0473 7.26897C42.8623 7.26897 42.6773 7.29597 42.4913 7.29897C42.3063 7.30197 42.1213 7.26997 41.9353 7.27597C41.7503 7.28197 41.5653 7.28797 41.3803 7.29597C41.1943 7.30497 41.0103 7.31997 40.8253 7.33197C40.4555 7.35435 40.0861 7.38269 39.7173 7.41697C39.5323 7.43297 39.3463 7.43897 39.1623 7.45697C38.9773 7.47597 38.7953 7.51897 38.6123 7.53897C38.4263 7.55897 38.2443 7.59497 38.0623 7.61797C37.8763 7.63997 37.6893 7.64797 37.5063 7.67197C37.3213 7.69697 37.1343 7.70797 36.9513 7.73497C36.7673 7.76097 36.5853 7.80497 36.4033 7.83197C36.2183 7.86097 36.0373 7.90197 35.8553 7.93197C35.6703 7.96197 35.4823 7.95797 35.3013 7.98997C35.1163 8.02197 34.9383 8.07597 34.7573 8.10897C34.5733 8.14297 34.3913 8.17297 34.2113 8.20697C34.0273 8.24297 33.8433 8.26597 33.6633 8.30197L33.1193 8.41197C32.9363 8.45097 32.7593 8.50497 32.5803 8.54397C32.3963 8.58397 32.2103 8.60397 32.0343 8.64397C31.8503 8.68497 31.6743 8.74397 31.4973 8.78597C31.3143 8.82897 31.1303 8.85597 30.9543 8.89797C30.7713 8.94297 30.5993 9.01997 30.4253 9.06297C30.2523 9.10697 30.0683 9.13897 29.8803 9.18897C29.7073 9.23497 29.5333 9.30697 29.3463 9.35897C29.1733 9.40697 28.9893 9.43997 28.8033 9.49297C28.6303 9.54297 28.4463 9.57897 28.2613 9.63297C28.0873 9.68397 27.9113 9.74997 27.7273 9.80497C27.5533 9.85697 27.3743 9.90897 27.1903 9.96497C27.0163 10.018 26.4833 10.175 26.3033 10.245C26.0113 10.357 25.9863 10.459 25.9053 10.625C25.8373 10.762 25.7833 10.917 25.7153 11.055C25.6353 11.218 25.5473 11.361 25.4973 11.468C25.4173 11.637 25.3573 11.814 25.2803 11.98C25.2013 12.15 25.1103 12.313 25.0343 12.479C24.9563 12.649 24.8923 12.824 24.8183 12.992C24.7423 13.163 24.6883 13.342 24.6163 13.511C24.5423 13.682 24.4493 13.844 24.3773 14.014C24.3053 14.186 24.2473 14.364 24.1773 14.534C24.1073 14.707 24.0193 14.872 23.9523 15.044C23.8843 15.217 23.8253 15.393 23.7603 15.565C23.6943 15.739 23.6453 15.918 23.5823 16.091C23.5193 16.266 23.4353 16.433 23.3743 16.607C23.3143 16.782 23.2663 16.962 23.2073 17.137C23.1483 17.313 23.0953 17.49 23.0383 17.667C22.9823 17.842 22.9203 18.017 22.8663 18.194C22.8133 18.371 22.7443 18.543 22.6923 18.721C22.6403 18.898 22.6143 19.083 22.5643 19.262C22.5143 19.44 22.4773 19.622 22.4303 19.802C22.3803 19.988 22.2973 20.159 22.2543 20.335C22.2073 20.523 22.1823 20.71 22.1423 20.887C22.0993 21.077 22.0693 21.262 22.0353 21.438C21.9973 21.63 21.9573 21.812 21.9293 21.988C21.8973 22.183 21.8763 22.368 21.8553 22.544C21.8333 22.741 21.7853 22.924 21.7773 23.098C21.7673 23.301 21.7743 23.489 21.7843 23.66C21.7963 23.867 21.8603 24.045 21.9013 24.207C21.9533 24.412 21.9973 24.592 22.0953 24.725C22.1743 24.831 22.2653 24.925 22.3813 24.977C22.6413 25.091 22.6263 25.215 22.5273 25.267C22.4273 25.318 22.3083 25.364 22.1703 25.402C21.9486 25.4569 21.7206 25.4821 21.4923 25.477V25.473V25.474ZM33.0023 13.17C32.8283 13.17 32.6583 13.243 32.4823 13.307C32.3223 13.364 32.1603 13.437 32.0023 13.543C31.8613 13.638 31.7103 13.738 31.5723 13.869C31.4414 13.993 31.3179 14.1246 31.2023 14.263C31.0903 14.396 30.9923 14.548 30.8853 14.702C30.7853 14.844 30.6643 14.982 30.5683 15.141C30.3836 15.4512 30.2166 15.7718 30.0683 16.101C29.9953 16.261 29.9163 16.424 29.8463 16.595C29.7803 16.758 29.7483 16.94 29.6863 17.112C29.6263 17.279 29.5463 17.443 29.4903 17.618C29.4363 17.787 29.4123 17.968 29.3623 18.144C29.3133 18.315 29.2663 18.49 29.2223 18.667C29.1793 18.841 29.1273 19.014 29.0893 19.193C29.0483 19.384 28.9993 19.567 28.9693 19.745C28.9363 19.94 28.9163 20.128 28.8963 20.305C28.8743 20.505 28.8463 20.691 28.8403 20.868C28.8343 21.071 28.8633 21.258 28.8783 21.432C28.8973 21.639 28.9403 21.818 28.9893 21.982C29.0493 22.182 29.1113 22.356 29.2173 22.488C29.3903 22.703 29.6173 22.794 29.8903 22.794C30.0593 22.794 30.2453 22.782 30.4353 22.7C30.6035 22.6185 30.7627 22.5196 30.9103 22.405C31.0503 22.303 31.1923 22.182 31.3353 22.044C31.4633 21.922 31.6113 21.804 31.7393 21.656C31.8563 21.521 31.9473 21.353 32.0633 21.197C32.1703 21.052 32.2693 20.893 32.3703 20.727C32.4653 20.572 32.5923 20.427 32.6803 20.257C32.7663 20.094 32.8393 19.919 32.9173 19.745C32.9933 19.575 33.0413 19.392 33.1113 19.215C33.1793 19.042 33.2633 18.872 33.3253 18.694C33.3853 18.516 33.4583 18.341 33.5113 18.16C33.5653 17.98 33.6033 17.794 33.6493 17.613C33.6963 17.429 33.7183 17.241 33.7563 17.058C33.7963 16.872 33.8433 16.688 33.8733 16.507C33.9043 16.316 33.9493 16.131 33.9683 15.947C33.9888 15.7595 34.0031 15.5714 34.0113 15.383C34.0193 15.186 33.9993 14.996 33.9913 14.818C33.9813 14.618 33.9813 14.426 33.9503 14.255C33.9113 14.052 33.8253 13.88 33.7533 13.728C33.6922 13.5859 33.5999 13.4595 33.4833 13.358C33.3643 13.2579 33.2156 13.1999 33.0603 13.193C33.0293 13.188 33.0323 13.17 33.0023 13.17ZM29.5023 25.5C29.3073 25.5 29.1133 25.528 28.9253 25.502C28.7347 25.4724 28.5465 25.429 28.3623 25.372C28.1783 25.318 28.0043 25.236 27.8293 25.155C27.6547 25.0753 27.4859 24.9834 27.3243 24.88C27.1653 24.777 27.0023 24.676 26.8523 24.549C26.7153 24.434 26.6053 24.293 26.4843 24.167C26.2389 23.9135 26.0216 23.6342 25.8363 23.334C25.7469 23.1818 25.6658 23.0249 25.5933 22.864C25.5183 22.706 25.4183 22.556 25.3593 22.388C25.3013 22.222 25.2723 22.046 25.2303 21.872C25.1903 21.702 25.1283 21.533 25.1023 21.356C25.0772 21.1802 25.0599 21.0033 25.0503 20.826C25.0403 20.651 25.0503 20.473 25.0543 20.294C25.0583 20.119 25.0833 19.944 25.1013 19.765C25.1168 19.5886 25.1388 19.4128 25.1673 19.238C25.1973 19.066 25.2473 18.897 25.2883 18.722C25.3293 18.552 25.3523 18.375 25.4053 18.202C25.4553 18.036 25.5023 17.863 25.5653 17.694C25.6283 17.521 25.7153 17.36 25.7803 17.195C25.8493 17.024 25.9023 16.849 25.9723 16.686C26.0463 16.517 26.1503 16.366 26.2263 16.206C26.3043 16.039 26.3713 15.87 26.4523 15.712C26.5373 15.549 26.6223 15.388 26.7093 15.234C26.8003 15.073 26.9163 14.931 27.0093 14.78C27.1073 14.623 27.1783 14.453 27.2783 14.307C27.3833 14.154 27.4833 14.002 27.5903 13.861C27.7013 13.713 27.8453 13.597 27.9593 13.461C28.0783 13.319 28.1893 13.178 28.3093 13.049C28.4363 12.914 28.5443 12.766 28.6713 12.645C28.8053 12.517 28.9543 12.412 29.0893 12.299C29.2313 12.179 29.3813 12.08 29.5233 11.976C29.6733 11.866 29.8133 11.755 29.9623 11.661C30.1193 11.561 30.2653 11.453 30.4203 11.371C30.5843 11.283 30.7533 11.216 30.9123 11.146C31.0843 11.071 31.2583 11.023 31.4223 10.966C31.5993 10.903 31.7723 10.851 31.9393 10.806C32.1223 10.759 32.2933 10.701 32.4613 10.671C32.6513 10.638 32.8313 10.636 32.9983 10.621C33.1973 10.602 33.3753 10.561 33.5333 10.561C33.6223 10.561 33.7103 10.569 33.7983 10.573C33.9883 10.581 34.1783 10.613 34.3663 10.657C34.7416 10.7398 35.1007 10.8837 35.4293 11.083C35.5913 11.181 35.7563 11.283 35.9073 11.405C36.0543 11.525 36.1873 11.666 36.3193 11.808C36.4493 11.946 36.5813 12.088 36.6943 12.246C36.7973 12.389 36.8793 12.548 36.9663 12.704C37.0523 12.858 37.1373 13.014 37.2073 13.179C37.2773 13.34 37.3473 13.504 37.4023 13.676C37.4553 13.843 37.4633 14.024 37.5023 14.2C37.5403 14.371 37.6083 14.539 37.6323 14.718C37.6553 14.891 37.6593 15.07 37.6693 15.25C37.6793 15.425 37.6813 15.602 37.6793 15.782C37.6773 15.957 37.6793 16.135 37.6663 16.315C37.6533 16.49 37.6193 16.665 37.5953 16.845C37.5723 17.018 37.5603 17.196 37.5273 17.373C37.4953 17.545 37.4693 17.723 37.4273 17.899C37.3873 18.069 37.3153 18.235 37.2663 18.409C37.2153 18.587 37.1433 18.759 37.0813 18.935C37.0193 19.111 36.9833 19.296 36.9113 19.469C36.8403 19.64 36.7413 19.8 36.6613 19.969C36.5793 20.136 36.5013 20.304 36.4113 20.468C36.3213 20.631 36.2503 20.806 36.1523 20.964C36.0535 21.1222 35.9508 21.2779 35.8443 21.431C35.7383 21.585 35.6083 21.721 35.4953 21.869C35.3833 22.017 35.2903 22.183 35.1713 22.325C35.0513 22.468 34.9173 22.6 34.7913 22.736C34.6643 22.874 34.5393 23.012 34.4063 23.142C34.2723 23.272 34.1203 23.382 33.9813 23.505C33.8413 23.629 33.7133 23.767 33.5693 23.882C33.4213 23.998 33.2633 24.098 33.1133 24.204C32.9593 24.313 32.7963 24.403 32.6393 24.5C32.4793 24.598 32.3293 24.71 32.1673 24.796C32.0003 24.884 31.8283 24.958 31.6603 25.031C31.3204 25.1814 30.9667 25.2986 30.6043 25.381C30.4244 25.4275 30.2421 25.4642 30.0583 25.491C29.8713 25.513 29.6863 25.5 29.5023 25.5ZM43.3963 25.53C43.2023 25.53 43.0083 25.56 42.8193 25.536C42.6284 25.5087 42.4394 25.4696 42.2533 25.419C42.0663 25.372 41.8883 25.297 41.7103 25.227C41.5316 25.1568 41.3576 25.0753 41.1893 24.983C41.0203 24.89 40.8513 24.8 40.6953 24.686C40.5413 24.572 40.4113 24.428 40.2713 24.295C40.0071 24.0409 39.7729 23.7574 39.5733 23.45C39.4817 23.3009 39.3983 23.147 39.3233 22.989C39.2453 22.833 39.1433 22.686 39.0803 22.52C39.0203 22.358 38.9863 22.183 38.9403 22.012C38.8943 21.845 38.8283 21.679 38.7963 21.504C38.7655 21.3306 38.7415 21.1562 38.7243 20.981C38.7063 20.809 38.7073 20.631 38.7013 20.453C38.6973 20.281 38.7113 20.105 38.7183 19.926C38.7253 19.753 38.7313 19.578 38.7483 19.401C38.7663 19.228 38.8033 19.056 38.8313 18.879C38.8583 18.708 38.8663 18.53 38.9033 18.356C38.9423 18.172 38.9733 17.987 39.0193 17.808C39.0653 17.626 39.1373 17.452 39.1903 17.275C39.2443 17.095 39.2843 16.911 39.3453 16.736C39.4053 16.559 39.5013 16.395 39.5693 16.223C39.6383 16.048 39.6963 15.871 39.7723 15.702C39.8483 15.532 39.9273 15.362 40.0113 15.196C40.0953 15.029 40.2073 14.878 40.2983 14.717C40.3903 14.554 40.4583 14.377 40.5563 14.221C40.6563 14.063 40.7563 13.904 40.8623 13.753C40.9703 13.6 41.1133 13.475 41.2283 13.33C41.3443 13.182 41.4553 13.034 41.5783 12.895C41.7013 12.755 41.8083 12.6 41.9383 12.468C42.0703 12.335 42.2183 12.221 42.3563 12.098C42.4963 11.972 42.6463 11.864 42.7923 11.749C42.9383 11.633 43.0783 11.512 43.2303 11.407C43.3843 11.3 43.5293 11.182 43.6883 11.087C43.8483 10.991 44.0183 10.914 44.1833 10.83C44.3503 10.746 44.5263 10.687 44.6963 10.615C44.8683 10.544 45.0413 10.479 45.2163 10.421C45.3933 10.362 45.5653 10.291 45.7453 10.247C45.9253 10.203 46.1113 10.187 46.2943 10.157C46.4773 10.127 46.6573 10.07 46.8423 10.055C47.028 10.0418 47.2141 10.0361 47.4003 10.038C47.4413 10.038 47.4413 10.044 47.4833 10.045C47.877 10.0443 48.2681 10.1095 48.6403 10.238C48.8283 10.302 49.0133 10.373 49.1833 10.468C49.3553 10.564 49.5123 10.688 49.6633 10.812C49.8153 10.936 49.9643 11.066 50.0933 11.217C50.2193 11.364 50.3213 11.534 50.4233 11.706C50.6191 12.0242 50.7642 12.3711 50.8533 12.734C50.8943 12.915 50.8843 13.105 50.8983 13.292C50.9113 13.476 50.9493 13.662 50.9363 13.849C50.9177 14.0349 50.8863 14.2194 50.8423 14.401C50.8033 14.581 50.7493 14.759 50.6843 14.936C50.6241 15.1127 50.5526 15.2854 50.4703 15.453C50.3741 15.631 50.2616 15.7997 50.1343 15.957C49.9963 16.135 49.8653 16.294 49.7093 16.385C49.4213 16.552 49.1353 16.55 49.1353 16.55C48.9795 16.5433 48.8274 16.5001 48.6913 16.424C48.5573 16.358 48.4123 16.29 48.2973 16.171C48.1933 16.063 48.1193 15.921 48.0403 15.776C47.9622 15.6385 47.903 15.4912 47.8643 15.338C47.8273 15.176 47.7903 15.016 47.8073 14.865C47.8257 14.7041 47.8804 14.5496 47.9673 14.413C48.0903 14.221 48.1843 14.029 48.2033 13.829C48.2223 13.616 48.1523 13.415 48.0483 13.224C47.9433 13.023 47.7793 12.859 47.5783 12.754C47.3741 12.6534 47.1488 12.6033 46.9213 12.608C46.7813 12.608 46.6013 12.603 46.3913 12.662C46.2413 12.705 46.0853 12.791 45.9063 12.886C45.7643 12.962 45.6063 13.044 45.4493 13.164C45.3193 13.264 45.1733 13.37 45.0343 13.506C44.9163 13.622 44.8113 13.769 44.6883 13.916C44.5803 14.046 44.4643 14.182 44.3533 14.336C44.2451 14.488 44.1417 14.6434 44.0433 14.802C43.9433 14.961 43.8443 15.119 43.7543 15.282C43.6643 15.447 43.5883 15.618 43.5083 15.786C43.4281 15.9548 43.3528 16.1259 43.2823 16.299C43.2113 16.472 43.1423 16.646 43.0813 16.822C43.0193 16.999 42.9493 17.174 42.8983 17.352C42.8463 17.534 42.8133 17.718 42.7733 17.899C42.7323 18.084 42.7073 18.269 42.6783 18.451C42.6493 18.639 42.6383 18.826 42.6233 19.009C42.6095 19.1946 42.6034 19.3808 42.6053 19.567C42.6053 19.759 42.5943 19.945 42.6123 20.127C42.6323 20.317 42.6423 20.507 42.6823 20.682C42.7243 20.87 42.7993 21.044 42.8653 21.212C42.9373 21.392 43.0303 21.552 43.1273 21.702C43.2323 21.862 43.3333 22.02 43.4673 22.142C43.6053 22.269 43.7573 22.384 43.9233 22.466C44.0853 22.547 44.2693 22.596 44.4563 22.633C44.6343 22.668 44.8163 22.673 44.9923 22.673C45.1807 22.6763 45.369 22.6605 45.5543 22.626C45.7403 22.586 45.9123 22.506 46.0843 22.436C46.2593 22.363 46.4283 22.283 46.5893 22.186C46.7513 22.088 46.9143 21.993 47.0613 21.878C47.2133 21.76 47.3673 21.646 47.5013 21.521C47.6453 21.388 47.7553 21.229 47.8793 21.098C48.0193 20.951 48.1423 20.806 48.2563 20.68C48.7693 20.112 48.9043 20.09 48.8733 20.617C48.8653 20.752 48.8433 20.914 48.7953 21.096C48.7019 21.4236 48.5842 21.7438 48.4433 22.054C48.3763 22.204 48.2913 22.362 48.2003 22.531C48.1183 22.68 48.0463 22.847 47.9433 23.004C47.8493 23.148 47.7173 23.274 47.6033 23.42C47.4939 23.5609 47.3782 23.6967 47.2563 23.827C47.1363 23.9598 47.0098 24.0867 46.8773 24.207C46.7463 24.322 46.6233 24.457 46.4753 24.563C46.3323 24.665 46.1673 24.739 46.0083 24.83C45.8563 24.918 45.7113 25.026 45.5433 25.101C45.3833 25.173 45.2033 25.206 45.0293 25.264C44.8643 25.319 44.6963 25.382 44.5173 25.424C44.3323 25.466 44.1443 25.479 43.9573 25.501C43.771 25.5214 43.5837 25.5311 43.3963 25.53ZM6.97229 26.212C6.78429 26.212 6.59528 26.248 6.40929 26.238C6.22128 26.228 6.03429 26.202 5.84929 26.181C5.66229 26.161 5.47929 26.119 5.29529 26.088C5.11065 26.0575 4.92691 26.0218 4.74429 25.981C4.55929 25.939 4.37429 25.906 4.19729 25.854C4.01429 25.8 3.84429 25.716 3.67129 25.652C3.49603 25.5878 3.32324 25.5171 3.15329 25.44C2.98359 25.3631 2.81743 25.2787 2.65529 25.187C2.49324 25.0915 2.33605 24.988 2.18429 24.877C2.02829 24.767 1.85729 24.678 1.71729 24.555C1.57329 24.43 1.45328 24.283 1.32629 24.145C1.19629 24.005 1.05329 23.878 0.942285 23.728C0.829001 23.5761 0.724497 23.4178 0.629285 23.254C0.533285 23.089 0.457285 22.914 0.382285 22.742C0.306285 22.568 0.253285 22.386 0.199285 22.206C0.143104 22.0256 0.09802 21.8419 0.0642851 21.656C0.0322851 21.47 0.0272851 21.281 0.0192851 21.092C0.0112851 20.904 -0.0107149 20.715 0.00628507 20.526C0.0222851 20.338 0.0392851 20.148 0.0792851 19.962C0.119285 19.779 0.191285 19.602 0.255285 19.422C0.320285 19.236 0.380285 19.052 0.466285 18.89C0.557285 18.717 0.686285 18.574 0.798285 18.424C0.913285 18.269 1.02629 18.116 1.15929 17.984C1.29629 17.85 1.44028 17.724 1.59128 17.613C1.74529 17.498 1.91929 17.419 2.08329 17.326C2.25029 17.232 2.40629 17.119 2.57929 17.046C2.75388 16.9703 2.9321 16.9032 3.11329 16.845C3.30029 16.787 3.49529 16.78 3.67529 16.742C3.86929 16.702 4.05529 16.662 4.23529 16.643C4.43729 16.621 4.62729 16.58 4.79928 16.584C5.38828 16.597 5.29929 16.778 5.00629 16.911C4.85029 16.983 4.72229 17.118 4.57829 17.233C4.44429 17.341 4.32628 17.475 4.19829 17.608C4.07929 17.732 3.95329 17.858 3.84629 18.006C3.74429 18.146 3.63229 18.286 3.54629 18.449C3.46168 18.6073 3.38753 18.771 3.32429 18.939C3.26429 19.099 3.23029 19.276 3.18529 19.456C3.14529 19.622 3.09129 19.795 3.06529 19.98C3.03929 20.18 3.06029 20.38 3.06529 20.575C3.06889 20.9715 3.13885 21.3646 3.27229 21.738C3.4131 22.1089 3.61975 22.4514 3.88229 22.749C3.99929 22.884 4.13229 22.999 4.26929 23.114C4.40529 23.229 4.54129 23.342 4.69229 23.435C4.84329 23.528 5.00629 23.599 5.17029 23.669C5.33229 23.739 5.49429 23.813 5.66728 23.86C5.83729 23.906 6.01229 23.934 6.19029 23.958C6.36428 23.981 6.54129 23.983 6.72129 23.983C6.89929 23.983 7.08328 24.009 7.26628 23.985C7.44229 23.963 7.61329 23.89 7.79228 23.845C7.96428 23.8 8.14029 23.756 8.31229 23.689C8.48163 23.6239 8.64722 23.5494 8.80828 23.466C8.96528 23.383 9.11528 23.282 9.26828 23.178C9.41628 23.08 9.57129 22.986 9.71529 22.868C9.85229 22.755 9.97528 22.622 10.1083 22.491C10.2343 22.367 10.3483 22.228 10.4703 22.087C10.5853 21.953 10.7193 21.827 10.8293 21.677C10.9343 21.535 11.0513 21.394 11.1513 21.237C11.2453 21.087 11.3113 20.914 11.4003 20.751C11.4853 20.595 11.5903 20.445 11.6703 20.277C11.7473 20.117 11.8163 19.949 11.8883 19.777C11.9563 19.614 11.9983 19.435 12.0613 19.261C12.1213 19.094 12.1853 18.924 12.2413 18.747C12.2953 18.577 12.3713 18.41 12.4213 18.231C12.4683 18.06 12.4833 17.876 12.5263 17.696C12.5663 17.521 12.6193 17.346 12.6563 17.165C12.6913 16.989 12.7193 16.809 12.7503 16.625C12.7823 16.441 12.8323 16.255 12.8533 16.063C12.8743 15.876 12.8673 15.683 12.8793 15.491C12.8903 15.302 12.9123 15.112 12.9153 14.919C12.9193 14.731 12.9333 14.539 12.9313 14.347C12.9283 14.157 12.8993 13.967 12.8913 13.775C12.8843 13.585 12.8823 13.395 12.8703 13.204C12.8583 13.014 12.8443 12.823 12.8303 12.632C12.8153 12.442 12.8043 12.251 12.7873 12.061C12.7703 11.871 12.7443 11.681 12.7263 11.491L12.6703 10.921C12.6523 10.741 12.6373 10.56 12.6203 10.381C12.6033 10.201 12.6013 10.019 12.5853 9.83797C12.5693 9.65797 12.5413 9.47797 12.5253 9.29797C12.5113 9.11797 12.4893 8.93797 12.4773 8.75797C12.4643 8.57797 12.4433 8.39697 12.4343 8.21697C12.4253 8.03497 12.4133 7.85397 12.4093 7.67397C12.4033 7.49197 12.4223 7.31097 12.4223 7.13097C12.4223 6.94797 12.4443 6.76797 12.4493 6.58897C12.4553 6.40597 12.4433 6.22497 12.4563 6.04597C12.4703 5.86297 12.4773 5.68197 12.4993 5.50397C12.5213 5.32197 12.5723 5.14697 12.6043 4.97097C12.6363 4.79097 12.6813 4.61697 12.7243 4.44397C12.7693 4.26697 12.8063 4.08997 12.8623 3.91997C12.9203 3.74697 12.9723 3.57397 13.0443 3.40997C13.1153 3.24297 13.2063 3.08597 13.2943 2.92797C13.3803 2.77097 13.4563 2.60397 13.5593 2.45597C13.6651 2.30884 13.779 2.16762 13.9003 2.03297C14.0183 1.89897 14.1553 1.78097 14.2903 1.65697C14.4233 1.53697 14.5683 1.43397 14.7103 1.32597C14.8513 1.21697 14.9793 1.08797 15.1303 0.992973C15.2803 0.896973 15.4333 0.802973 15.5913 0.719973C15.7493 0.637973 15.9213 0.579973 16.0853 0.511973C16.2493 0.442973 16.4193 0.387973 16.5893 0.331973C16.7583 0.277973 16.9253 0.211973 17.0993 0.169973C17.2713 0.129973 17.4493 0.102973 17.6263 0.0749731C17.8013 0.0479731 17.9793 0.0329731 18.1573 0.0199731C18.3343 0.00697314 18.5123 0.00697314 18.6923 0.00697314C18.8783 0.00697314 19.0623 -0.00802686 19.2423 0.00597314C19.4273 0.0199731 19.6043 0.0759731 19.7823 0.103973C19.9663 0.132973 20.1443 0.167973 20.3193 0.210973C20.5003 0.254973 20.6773 0.297973 20.8473 0.356973C21.0233 0.416973 21.2033 0.459973 21.3663 0.535973C21.5363 0.613973 21.6853 0.725973 21.8363 0.818973C21.9963 0.916973 22.1653 0.996973 22.3033 1.10997C22.4493 1.22797 22.5583 1.37997 22.6773 1.51197C22.8023 1.65197 22.9233 1.78797 23.0163 1.94197C23.1113 2.10197 23.1723 2.27197 23.2303 2.44397C23.2883 2.61797 23.3643 2.78897 23.3803 2.97297C23.3943 3.12897 23.3883 3.28897 23.3593 3.43897C23.3293 3.58897 23.2743 3.73897 23.2033 3.87797C23.1353 4.01297 23.0273 4.12797 22.9213 4.24297C22.8013 4.37597 22.6643 4.49197 22.5113 4.58297C22.36 4.67994 22.1962 4.75565 22.0243 4.80797C21.7127 4.88532 21.3878 4.89216 21.0733 4.82797C20.9383 4.79997 20.8113 4.73597 20.6793 4.68297C20.4163 4.57797 20.3033 4.46797 20.2603 4.32297C20.2123 4.15897 20.2573 3.97597 20.3163 3.75297C20.3593 3.58797 20.3963 3.40597 20.4003 3.21997C20.3997 3.04139 20.3469 2.86689 20.2483 2.71797C20.16 2.56126 20.0389 2.42549 19.8933 2.31997C19.7464 2.21604 19.5836 2.13667 19.4113 2.08497C19.2389 2.03129 19.0598 2.00266 18.8793 1.99997C18.7063 1.99997 18.5293 2.02997 18.3593 2.07297C18.1898 2.11759 18.0257 2.18099 17.8703 2.26197C17.7193 2.33997 17.5923 2.46297 17.4533 2.57497C17.3203 2.68197 17.1763 2.78197 17.0593 2.91697C16.9493 3.04397 16.8373 3.19297 16.7313 3.36697C16.6413 3.51397 16.5793 3.68997 16.5013 3.87397C16.4313 4.03397 16.3473 4.19997 16.2913 4.38997C16.2423 4.55797 16.1973 4.73997 16.1623 4.93297C16.1303 5.10597 16.0893 5.28897 16.0713 5.48397C16.0553 5.66991 16.0463 5.85637 16.0443 6.04297C16.0403 6.22097 16.0583 6.40697 16.0663 6.60197C16.0743 6.77997 16.0833 6.96597 16.1023 7.15897C16.1203 7.33897 16.1553 7.52197 16.1823 7.71297C16.2083 7.88797 16.2433 8.06397 16.2723 8.24397C16.3023 8.41897 16.3143 8.59897 16.3463 8.77797C16.3763 8.95297 16.4203 9.12797 16.4543 9.30697C16.4863 9.48097 16.5263 9.65697 16.5603 9.83697C16.5933 10.01 16.6073 10.189 16.6403 10.365C16.6733 10.539 16.7303 10.71 16.7623 10.887C16.7933 11.061 16.7893 11.243 16.8183 11.419C16.8483 11.594 16.8753 11.769 16.9023 11.946C16.9293 12.122 16.9623 12.297 16.9853 12.474C17.0093 12.65 17.0323 12.827 17.0533 13.004C17.0733 13.181 17.0953 13.359 17.1113 13.537C17.1273 13.714 17.1313 13.893 17.1413 14.071C17.1533 14.249 17.1853 14.427 17.1913 14.606C17.1973 14.784 17.2143 14.962 17.2143 15.141C17.2133 15.319 17.1933 15.498 17.1863 15.677C17.1793 15.855 17.1543 16.032 17.1393 16.211C17.1253 16.388 17.1233 16.567 17.1003 16.745C17.0783 16.922 17.0643 17.101 17.0333 17.277C17.0033 17.453 16.9343 17.621 16.8953 17.797C16.8563 17.97 16.8343 18.147 16.7853 18.321C16.7373 18.497 16.6813 18.669 16.6273 18.84C16.5723 19.013 16.5023 19.18 16.4403 19.348C16.3783 19.5173 16.313 19.6853 16.2443 19.852C16.1743 20.021 16.1163 20.192 16.0403 20.354C15.9633 20.52 15.8643 20.672 15.7803 20.83C15.6953 20.99 15.6243 21.157 15.5323 21.311C15.4403 21.467 15.3303 21.611 15.2303 21.761C15.1303 21.911 15.0533 22.078 14.9453 22.221C14.8373 22.367 14.7133 22.499 14.5983 22.637C14.4823 22.776 14.3813 22.927 14.2583 23.06C14.1363 23.192 13.9963 23.309 13.8663 23.434C13.7363 23.559 13.5933 23.668 13.4563 23.786C13.3203 23.904 13.1903 24.028 13.0473 24.14C12.9063 24.25 12.7593 24.354 12.6113 24.458C12.4643 24.561 12.3063 24.648 12.1523 24.745C12.0013 24.84 11.8493 24.937 11.6913 25.027C11.5319 25.1152 11.3698 25.1986 11.2053 25.277C11.0413 25.357 10.8703 25.42 10.7013 25.489C10.5333 25.559 10.3703 25.64 10.1973 25.699C10.0253 25.759 9.84729 25.797 9.67029 25.847C9.49529 25.896 9.32329 25.961 9.14529 26C8.96729 26.04 8.78528 26.058 8.60528 26.087C8.42528 26.117 8.24728 26.154 8.06528 26.173C7.88428 26.193 7.70329 26.23 7.52029 26.239C7.33928 26.249 7.15529 26.231 6.97229 26.231C6.96129 26.23 6.97229 26.211 6.97229 26.211V26.212ZM64.3993 28.645C64.2013 28.645 64.0033 28.679 63.8073 28.665C63.6093 28.65 63.4133 28.617 63.2193 28.588C63.0233 28.558 62.8323 28.505 62.6413 28.461C62.4491 28.4173 62.2586 28.3662 62.0703 28.308C61.8953 28.253 61.7203 28.205 61.5503 28.137C61.3823 28.067 61.2293 27.967 61.0673 27.885C60.7422 27.7223 60.4299 27.5351 60.1333 27.325C59.9863 27.219 59.8473 27.102 59.7053 26.987C59.5653 26.872 59.4043 26.78 59.2703 26.656C59.1383 26.532 59.0233 26.388 58.8973 26.256C58.7713 26.125 58.6273 26.009 58.5083 25.87C58.3893 25.7316 58.274 25.5902 58.1623 25.446C58.0523 25.302 57.9523 25.148 57.8463 24.999C57.7423 24.85 57.6513 24.691 57.5533 24.537C57.4563 24.383 57.3553 24.231 57.2633 24.073C57.1723 23.916 57.0973 23.749 57.0113 23.588C56.9263 23.427 56.8213 23.275 56.7433 23.111C56.6633 22.947 56.5783 22.785 56.5043 22.618C56.4313 22.45 56.3823 22.273 56.3153 22.103C56.2483 21.933 56.1663 21.768 56.1053 21.597C56.0453 21.424 56.0173 21.24 55.9633 21.067C55.9073 20.893 55.8413 20.722 55.7933 20.547C55.744 20.3712 55.698 20.1945 55.6553 20.017C55.6133 19.837 55.5893 19.349 55.5093 19.187C55.4193 19.007 55.3963 18.962 55.1943 19.165C55.0653 19.294 54.7773 19.615 54.6683 19.755C54.5553 19.898 54.4283 20.027 54.3213 20.169C54.2113 20.313 54.0923 20.449 53.9883 20.593C53.8823 20.739 53.7883 20.893 53.6873 21.04C53.5853 21.189 53.5013 21.35 53.4033 21.498C53.3043 21.648 53.1963 21.792 53.1013 21.944C53.0063 22.097 52.8963 22.24 52.8053 22.394C52.7153 22.549 52.6253 22.705 52.5383 22.863C52.4523 23.018 52.3843 23.186 52.3003 23.345C52.2173 23.503 52.1173 23.654 52.0363 23.815C51.9563 23.975 51.9083 24.151 51.8303 24.315C51.7543 24.475 51.6183 24.816 51.5323 24.977C51.3523 25.315 51.3453 25.442 51.0383 25.315C50.8923 25.255 50.6153 25.011 50.5133 24.866C50.4163 24.7146 50.3428 24.5494 50.2953 24.376C50.2394 24.2068 50.198 24.0332 50.1713 23.857C50.1483 23.691 50.1513 23.511 50.1453 23.323C50.1413 23.153 50.1353 22.973 50.1453 22.788C50.1543 22.617 50.1593 22.438 50.1803 22.255C50.2003 22.083 50.2633 21.912 50.2933 21.731C50.3233 21.559 50.3183 21.376 50.3573 21.198C50.3943 21.027 50.4483 20.856 50.4943 20.68C50.5393 20.51 50.5913 20.338 50.6443 20.165C50.6963 19.996 50.7413 19.822 50.8013 19.652C50.8623 19.477 50.9413 19.309 51.0023 19.135C51.0643 18.96 51.1113 18.781 51.1733 18.607C51.2363 18.433 51.2893 18.255 51.3523 18.082C51.4163 17.908 51.5043 17.744 51.5673 17.57C51.6323 17.397 51.7123 17.23 51.7773 17.057C51.8413 16.883 51.8763 16.698 51.9413 16.526C52.0063 16.353 52.0953 16.189 52.1613 16.017C52.2273 15.844 52.2873 15.669 52.3543 15.497C52.4213 15.325 52.4643 15.143 52.5313 14.972C52.5993 14.799 52.6713 14.629 52.7393 14.458C52.8083 14.286 52.9013 14.125 52.9693 13.954C53.0393 13.782 53.0803 13.599 53.1493 13.43C53.2193 13.258 53.3023 13.092 53.3723 12.923C53.4433 12.751 53.5093 12.579 53.5803 12.41C53.6523 12.24 53.7453 12.079 53.8173 11.91C53.8903 11.74 53.9413 11.561 54.0143 11.393C54.0883 11.223 54.1763 11.06 54.2493 10.893C54.3243 10.722 54.4113 10.559 54.4863 10.393C54.5623 10.223 54.6173 10.045 54.6933 9.87897C54.7703 9.70897 54.8543 9.54397 54.9313 9.37897L55.1653 8.87797C55.2453 8.70897 55.3303 8.54497 55.4083 8.38197C55.4893 8.21297 55.5623 8.04397 55.6423 7.88097C55.7253 7.71297 55.8063 7.54697 55.8883 7.38497C55.9723 7.21797 56.0583 7.05497 56.1413 6.89497C56.2283 6.72797 56.3273 6.57197 56.4113 6.41297C56.5003 6.24697 56.5773 6.07997 56.6633 5.92297C56.7543 5.75797 56.8363 5.59297 56.9253 5.43797C57.0223 5.26897 57.1153 5.10297 57.2253 4.95197C57.3344 4.79575 57.4519 4.64554 57.5773 4.50197C57.7053 4.35797 57.8543 4.23697 57.9923 4.11097C58.1343 3.98097 58.2923 3.87497 58.4423 3.76297C58.5963 3.64797 58.7413 3.52397 58.9003 3.42697C59.0653 3.32697 59.2283 3.22597 59.3943 3.14297C59.5683 3.05697 59.7513 3.00297 59.9243 2.93297C60.1043 2.86097 60.2863 2.80697 60.4613 2.75297C60.6493 2.69297 60.8283 2.63097 61.0043 2.58897C61.2003 2.54197 61.3843 2.49297 61.5583 2.46297C61.7663 2.42797 61.9573 2.40397 62.1223 2.39897C62.6983 2.38097 62.6083 2.47097 62.3873 2.82397C62.3033 2.95697 62.1873 3.10197 62.0733 3.28297C61.9833 3.42397 61.8733 3.57397 61.7663 3.74697C61.6763 3.89297 61.6073 4.06897 61.5043 4.23797C61.4143 4.38797 61.3223 4.54897 61.2223 4.71697C61.1323 4.86897 61.0203 5.01697 60.9213 5.18497C60.8313 5.33797 60.7313 5.49497 60.6353 5.66197C60.5453 5.81597 60.4703 5.98597 60.3753 6.15197C60.2853 6.30797 60.1883 6.46497 60.0943 6.63097C60.0053 6.78697 59.9103 6.94597 59.8173 7.11197C59.7293 7.26997 59.6323 7.42797 59.5403 7.59397C59.4533 7.75297 59.3823 7.92597 59.2913 8.09197C59.2043 8.25197 59.0853 8.39697 58.9943 8.56397L58.7303 9.05397C58.6443 9.21497 58.5633 9.38297 58.4743 9.54997C58.3883 9.71097 58.3263 9.88897 58.2373 10.056C58.1523 10.217 58.0413 10.369 57.9533 10.536C57.8683 10.698 57.8093 10.876 57.7233 11.044C57.6383 11.206 57.5233 11.355 57.4363 11.523C57.3523 11.685 57.2803 11.857 57.1953 12.025C57.1113 12.188 57.0103 12.345 56.9253 12.514C56.8413 12.678 56.7923 12.861 56.7073 13.03C56.6243 13.194 56.5343 13.358 56.4573 13.53C56.2723 13.938 56.2723 14.118 56.4333 13.937C56.5583 13.798 56.7003 13.679 56.8253 13.546C56.9523 13.41 57.0773 13.275 57.2053 13.145C57.3353 13.012 57.4633 12.878 57.5943 12.752C57.7283 12.622 57.8553 12.49 57.9903 12.368C58.1283 12.242 58.2543 12.106 58.3923 11.988C58.5353 11.868 58.6933 11.77 58.8353 11.658C58.9823 11.541 59.1303 11.432 59.2763 11.324C59.4263 11.214 59.5823 11.114 59.7323 11.012C59.8873 10.908 60.0383 10.803 60.1923 10.708C60.3489 10.6117 60.508 10.5193 60.6693 10.431C60.8333 10.341 60.9813 10.227 61.1453 10.149C61.3133 10.069 61.4933 10.019 61.6603 9.95097C61.8333 9.88097 62.0063 9.81797 62.1783 9.76097C62.3543 9.70097 62.5233 9.62397 62.6983 9.57897C62.8793 9.53297 63.0643 9.51697 63.2423 9.48497C63.4263 9.45297 63.6073 9.43097 63.7883 9.41497C63.9723 9.39797 64.1553 9.40497 64.3373 9.40497C64.5483 9.40497 64.7573 9.39897 64.9643 9.43597C65.4393 9.52297 65.4003 9.66097 65.2593 9.76997C65.1143 9.88297 64.8743 10.08 64.7343 10.19C64.5893 10.304 64.4523 10.423 64.3123 10.534C64.1683 10.647 64.0153 10.746 63.8753 10.857C63.7323 10.971 63.5983 11.093 63.4593 11.205C63.3163 11.319 63.1793 11.437 63.0413 11.549C62.8993 11.664 62.7473 11.764 62.6103 11.877C62.4673 11.993 62.3443 12.127 62.2073 12.241C62.0653 12.357 61.9033 12.445 61.7673 12.559L61.3493 12.906C61.2103 13.024 61.0763 13.146 60.9413 13.261L60.5313 13.615C60.3923 13.735 60.2583 13.855 60.1243 13.973C59.9873 14.094 59.8443 14.206 59.7123 14.325C59.5753 14.447 59.4583 14.585 59.3263 14.705C59.1913 14.828 59.0683 14.961 58.9383 15.082C58.8033 15.207 58.6613 15.318 58.5323 15.44C58.3993 15.566 58.1503 15.795 58.0253 15.92C57.7783 16.169 57.7653 16.298 57.8233 16.641C57.8533 16.824 57.9023 17.144 57.9393 17.319C57.9793 17.499 58.0073 17.68 58.0493 17.854C58.0933 18.034 58.1383 18.211 58.1853 18.384C58.2333 18.562 58.2993 18.733 58.3513 18.904C58.4053 19.081 58.4413 19.261 58.4993 19.429C58.5593 19.605 58.6383 19.769 58.7023 19.936C58.7673 20.11 58.8193 20.285 58.8893 20.449C58.9623 20.619 59.0663 20.772 59.1423 20.933C59.2223 21.1 59.2883 21.27 59.3723 21.427C59.4583 21.592 59.5683 21.738 59.6583 21.892C59.7523 22.052 59.8333 22.215 59.9313 22.364C60.0333 22.519 60.1243 22.678 60.2303 22.821C60.3403 22.971 60.4623 23.105 60.5753 23.243C60.6933 23.386 60.8113 23.523 60.9323 23.654C61.0583 23.789 61.1763 23.928 61.3053 24.051C61.4403 24.178 61.5793 24.295 61.7163 24.409C61.8583 24.527 61.9993 24.642 62.1423 24.747C62.2923 24.856 62.4363 24.968 62.5873 25.063C62.7433 25.161 62.9103 25.237 63.0673 25.322C63.2303 25.409 63.3853 25.505 63.5473 25.579C63.7153 25.655 63.8913 25.705 64.0573 25.768C64.2303 25.833 64.3973 25.906 64.5673 25.958C64.7443 26.012 64.9243 26.046 65.0973 26.088C65.2773 26.131 65.4583 26.144 65.6323 26.175C65.8163 26.207 65.9923 26.255 66.1673 26.275C66.3523 26.295 66.5333 26.296 66.7073 26.306C66.8953 26.316 67.0753 26.342 67.2483 26.342C67.4283 26.342 67.6023 26.329 67.7693 26.321C67.9513 26.311 68.1243 26.281 68.2883 26.265C68.4723 26.246 68.6483 26.246 68.8073 26.222C68.9993 26.193 69.1693 26.149 69.3173 26.118C69.7073 26.036 69.8193 26.104 69.6063 26.485C69.5253 26.63 69.3923 26.751 69.2613 26.887C69.1443 27.008 69.0303 27.145 68.8833 27.261C68.7503 27.366 68.6103 27.479 68.4553 27.577C68.3103 27.668 68.1383 27.724 67.9753 27.807C67.8233 27.887 67.6703 27.978 67.5033 28.049C67.3443 28.116 67.1813 28.188 67.0113 28.246C66.8431 28.3012 66.673 28.3506 66.5013 28.394C66.3304 28.4415 66.1579 28.4836 65.9843 28.52C65.8143 28.554 65.6343 28.55 65.4563 28.574C65.2833 28.597 65.1083 28.621 64.9303 28.634C64.7543 28.645 64.5783 28.645 64.4003 28.645H64.3993ZM78.1933 24.559C77.9843 24.597 77.7943 24.673 77.6073 24.707C77.3953 24.747 77.1963 24.773 77.0163 24.807C76.8163 24.846 76.6233 24.872 76.4433 24.918C76.2443 24.968 76.0573 25.024 75.8833 25.082C75.6863 25.147 75.5103 25.231 75.3433 25.304C75.1513 25.387 74.9643 25.451 74.8103 25.542C74.6415 25.6409 74.4818 25.7546 74.3333 25.882C74.1832 26.009 74.0539 26.1589 73.9503 26.326C73.8343 26.518 73.7763 26.716 73.7933 26.888C73.8093 27.058 73.9163 27.19 74.0413 27.304C74.1513 27.402 74.2853 27.495 74.4623 27.543C74.6053 27.581 74.7713 27.573 74.9513 27.573C75.1063 27.573 75.2723 27.57 75.4483 27.539C75.6043 27.513 75.7693 27.487 75.9373 27.437C76.0913 27.392 76.2473 27.331 76.4093 27.267C76.5863 27.195 76.7643 27.127 76.9293 27.034C77.0953 26.943 77.2413 26.819 77.3963 26.706C77.5463 26.595 77.6843 26.466 77.8243 26.335C77.9603 26.207 78.1063 26.087 78.2323 25.939C78.3533 25.798 78.4543 25.637 78.5673 25.478C78.6733 25.326 78.8073 25.186 78.9023 25.015C79.1873 24.504 79.1653 24.414 78.7053 24.465C78.4463 24.493 78.4493 24.512 78.1933 24.559ZM74.9973 29.422C74.7413 29.422 74.4813 29.449 74.2263 29.422C74.0544 29.4013 73.8841 29.3695 73.7163 29.327C73.5433 29.287 73.3843 29.219 73.2283 29.157C73.0687 29.0935 72.9148 29.0165 72.7683 28.927C72.6183 28.8413 72.4772 28.7408 72.3473 28.627C72.2193 28.507 72.1273 28.359 72.0333 28.217C71.8397 27.9324 71.7198 27.6043 71.6843 27.262C71.6686 27.0765 71.6757 26.8898 71.7053 26.706C71.7313 26.529 71.7413 26.34 71.8093 26.155C71.8703 25.988 71.9703 25.827 72.0693 25.656C72.1593 25.503 72.2403 25.331 72.3623 25.176C72.4723 25.038 72.5993 24.896 72.7373 24.758C72.8643 24.631 73.0113 24.513 73.1623 24.389C73.3003 24.275 73.4573 24.173 73.6183 24.062C73.7663 23.959 73.9193 23.852 74.0873 23.752C74.2423 23.661 74.4123 23.582 74.5843 23.494C74.7443 23.41 74.9023 23.306 75.0793 23.226C75.2443 23.151 75.4123 23.066 75.5913 22.995C75.7613 22.927 75.9443 22.881 76.1253 22.817C76.2973 22.755 76.4693 22.677 76.6533 22.619C76.8193 22.567 76.9953 22.545 77.1633 22.492C77.3293 22.442 77.4913 22.375 77.6613 22.323L78.1633 22.17C78.3293 22.12 78.5043 22.097 78.6753 22.047C78.8403 21.998 78.9993 21.918 79.1703 21.869C79.3363 21.821 79.6873 21.709 79.8603 21.666C80.1603 21.591 80.1233 21.581 80.2653 21.26C80.3383 21.096 80.4353 20.85 80.4813 20.686C80.5313 20.512 80.5963 20.347 80.6463 20.186C80.7013 20.01 80.7463 19.836 80.8023 19.682C80.7903 19.622 80.7533 19.611 80.6933 19.628C80.5563 19.763 80.4133 19.877 80.2743 19.997C80.1283 20.123 79.9703 20.226 79.8243 20.335C79.6747 20.4479 79.5206 20.5547 79.3623 20.655C79.1983 20.758 79.0453 20.867 78.8823 20.948C78.7093 21.035 78.5283 21.088 78.3573 21.148C78.1743 21.211 78.0033 21.292 77.8253 21.326C77.6405 21.359 77.453 21.3751 77.2653 21.374C77.0573 21.374 76.8553 21.344 76.6633 21.296C76.2671 21.2025 75.9017 21.0086 75.6023 20.733C75.4501 20.5976 75.3136 20.4457 75.1953 20.28C75.0946 20.1259 75.007 19.9636 74.9333 19.795C74.8523 19.6299 74.7835 19.4591 74.7273 19.284C74.6753 19.112 74.6503 18.929 74.6173 18.744C74.5843 18.5633 74.5609 18.3811 74.5473 18.198C74.5363 18.018 74.5233 17.834 74.5273 17.646C74.5333 17.466 74.5823 17.286 74.6023 17.1C74.6223 16.921 74.6093 16.734 74.6423 16.55C74.6743 16.372 74.7253 16.195 74.7703 16.014C74.8133 15.838 74.8663 15.662 74.9203 15.483C74.9753 15.31 75.0253 15.133 75.0903 14.957C75.1553 14.785 75.2403 14.617 75.3133 14.445C75.3853 14.275 75.4473 14.098 75.5283 13.929C75.6063 13.761 75.6803 13.589 75.7663 13.423C75.8523 13.258 75.9643 13.107 76.0573 12.945C76.1493 12.783 76.2583 12.632 76.3573 12.474C76.4553 12.314 76.5283 12.141 76.6323 11.987C76.7363 11.831 76.8643 11.693 76.9733 11.543C77.0843 11.392 77.1923 11.24 77.3073 11.096C77.4253 10.949 77.5243 10.788 77.6463 10.65C77.7703 10.508 77.9003 10.373 78.0283 10.241C78.1593 10.106 78.3113 9.99497 78.4463 9.87097C78.5863 9.74197 78.7073 9.59697 78.8493 9.48297C78.9983 9.36397 79.1563 9.26297 79.3063 9.16097C79.4595 9.05465 79.618 8.95619 79.7813 8.86597C79.9493 8.77497 80.1283 8.71697 80.2963 8.65297C80.4753 8.58297 80.6463 8.50797 80.8233 8.47097C81.0093 8.43297 81.1963 8.42697 81.3783 8.42697C81.4593 8.42697 81.6183 8.46597 81.5013 8.68897C81.4273 8.82897 81.2043 9.22197 81.1103 9.40297L80.8613 9.88797C80.7833 10.042 80.6953 10.202 80.6113 10.372C80.5323 10.53 80.4593 10.698 80.3763 10.866C80.2983 11.026 80.2203 11.191 80.1403 11.359C80.0623 11.52 79.9823 11.684 79.9043 11.851C79.8273 12.015 79.7373 12.174 79.6613 12.341C79.5863 12.507 79.5233 12.679 79.4493 12.846C79.3763 13.013 79.3123 13.184 79.2413 13.351C79.1703 13.521 79.1093 13.694 79.0413 13.861C78.9733 14.033 78.9113 14.204 78.8473 14.372C78.7813 14.546 78.6993 14.71 78.6403 14.877C78.5753 15.065 78.5003 15.239 78.4503 15.412C78.3963 15.605 78.3723 15.794 78.3383 15.967C78.2993 16.167 78.2833 16.355 78.2723 16.528C78.2583 16.738 78.2403 16.926 78.2663 17.093C78.3003 17.303 78.3613 17.487 78.4593 17.626C78.5498 17.7468 78.6705 17.8416 78.8093 17.901C78.9363 17.958 79.0843 17.976 79.2453 17.976C79.4243 17.976 79.6213 17.951 79.8263 17.882C80.0013 17.824 80.1713 17.721 80.3543 17.619C80.5193 17.527 80.6873 17.425 80.8523 17.302C81.0053 17.187 81.1673 17.072 81.3143 16.933C81.4563 16.8 81.6073 16.663 81.7373 16.511C81.7983 16.339 81.8303 16.155 81.8913 15.99C81.9553 15.818 82.0143 15.648 82.0783 15.483C82.1453 15.313 82.2313 15.153 82.2983 14.99C82.3673 14.82 82.4423 14.658 82.5123 14.496C82.5853 14.328 82.6403 14.156 82.7123 13.996C82.7893 13.829 82.8723 13.67 82.9483 13.512C83.0283 13.346 83.1133 13.188 83.1923 13.032C83.2763 12.868 83.3663 12.712 83.4503 12.559C83.5393 12.397 83.6083 12.229 83.6963 12.079C83.7903 11.919 83.9133 11.783 84.0063 11.636C84.1053 11.478 84.2023 11.328 84.3003 11.185C84.4053 11.031 84.5013 10.881 84.6053 10.743C84.7163 10.593 84.8053 10.435 84.9153 10.303C85.0333 10.158 85.1723 10.041 85.2893 9.91497C85.4163 9.77697 85.5193 9.62797 85.6433 9.50997C85.7803 9.37997 85.9373 9.28697 86.0693 9.17997C86.2163 9.05997 86.3503 8.94097 86.4903 8.84697C86.6483 8.73997 86.8103 8.66597 86.9583 8.58797C87.1293 8.49797 87.2773 8.38997 87.4313 8.33297C87.6002 8.27028 87.7737 8.2208 87.9503 8.18497C88.1533 8.14497 88.3363 8.14597 88.4843 8.13497C88.9143 8.10297 88.9053 8.24997 88.8243 8.41897C88.7433 8.58897 88.5503 9.05897 88.4713 9.22897C88.3913 9.40097 88.3053 9.56797 88.2273 9.73797C88.1473 9.90997 88.0673 10.08 87.9913 10.25C87.9133 10.422 87.8133 10.584 87.7383 10.754C87.6613 10.927 87.5883 11.1 87.5143 11.271C87.4383 11.444 87.3693 11.619 87.2963 11.791C87.2223 11.964 87.1583 12.141 87.0863 12.313C87.0123 12.488 86.9563 12.67 86.8863 12.843C86.8133 13.018 86.7193 13.183 86.6483 13.355C86.5783 13.531 86.5043 13.705 86.4343 13.878C86.3643 14.053 86.2883 14.225 86.2193 14.398C86.1513 14.574 86.0893 14.751 86.0213 14.924L85.8213 15.45C85.7533 15.627 85.7193 15.815 85.6523 15.99C85.5863 16.167 85.4943 16.332 85.4293 16.507C85.3633 16.683 85.2963 16.858 85.2323 17.033C85.1663 17.21 85.1263 17.395 85.0623 17.57C84.9973 17.747 84.9113 17.914 84.8473 18.088C84.7833 18.265 84.7173 18.439 84.6533 18.613C84.5973 18.768 84.5263 18.915 84.4713 19.067C84.4143 19.222 84.3613 19.377 84.3063 19.529C84.2493 19.683 84.1563 20.002 84.1063 20.156C84.0163 20.432 84.0623 20.55 84.4443 20.449C84.6243 20.401 84.9583 20.282 85.1363 20.233C85.3163 20.183 85.4943 20.125 85.6713 20.075C85.8523 20.023 86.0363 19.989 86.2133 19.938C86.3933 19.885 86.5643 19.808 86.7413 19.755C86.9213 19.7 87.1093 19.681 87.2853 19.626C87.4653 19.571 87.6433 19.516 87.8183 19.459C87.9983 19.402 88.1723 19.337 88.3463 19.279C88.6985 19.159 89.0486 19.0327 89.3963 18.9C89.5723 18.833 89.7503 18.775 89.9193 18.707C90.0943 18.637 90.2573 18.542 90.4253 18.469C90.5983 18.393 90.7613 18.303 90.9273 18.225C91.0973 18.144 91.2723 18.076 91.4343 17.992C91.6023 17.904 91.7723 17.827 91.9303 17.736C92.0943 17.641 92.2453 17.531 92.3983 17.431C92.5573 17.329 92.7023 17.213 92.8493 17.105C93.0013 16.993 93.1693 16.905 93.3083 16.786C93.4513 16.663 93.5743 16.521 93.7033 16.391C93.8355 16.2604 93.9613 16.1236 94.0803 15.981C94.2003 15.837 94.3213 15.695 94.4243 15.541C94.5273 15.387 94.6243 15.227 94.7113 15.062C94.7963 14.899 94.9283 14.917 94.9243 15.098C94.9193 15.284 94.9243 15.468 94.9013 15.648C94.8773 15.831 94.8273 16.007 94.7843 16.185C94.7423 16.363 94.7213 16.548 94.6593 16.722C94.5973 16.893 94.5123 17.057 94.4323 17.224C94.3543 17.387 94.2873 17.561 94.1923 17.72C94.0983 17.875 93.9813 18.019 93.8703 18.17C93.7633 18.314 93.6373 18.447 93.5153 18.589C93.3973 18.725 93.2823 18.869 93.1503 19.001C93.0203 19.1302 92.8863 19.2553 92.7483 19.376C92.6143 19.496 92.4643 19.602 92.3183 19.718C92.1773 19.828 92.0343 19.943 91.8823 20.052C91.7363 20.156 91.5823 20.255 91.4263 20.357C91.2753 20.455 91.1143 20.54 90.9543 20.636C90.7993 20.728 90.6503 20.835 90.4873 20.925C90.3303 21.011 90.1613 21.081 89.9953 21.166C89.8353 21.248 89.6803 21.348 89.5123 21.428C89.3493 21.505 89.1763 21.567 89.0073 21.642C88.8413 21.715 88.6793 21.8 88.5073 21.871C88.3413 21.941 88.1793 22.03 88.0063 22.098C87.8383 22.163 87.6583 22.208 87.4843 22.271C87.3143 22.334 87.1463 22.409 86.9713 22.471C86.8003 22.53 86.6193 22.568 86.4433 22.627C86.2713 22.683 86.0993 22.747 85.9233 22.802C85.7493 22.856 85.5793 22.926 85.4013 22.979C85.2283 23.03 85.0463 23.059 84.8673 23.109C84.6933 23.159 84.5193 23.22 84.3403 23.269C84.1653 23.316 83.9883 23.366 83.8083 23.413C83.5773 23.4726 83.3472 23.5359 83.1183 23.603C82.7623 23.71 82.6583 23.743 82.5343 24.076C82.4553 24.289 82.2403 24.707 82.1483 24.896C82.0683 25.06 81.9883 25.229 81.8933 25.393C81.7975 25.5525 81.6961 25.7086 81.5893 25.861C81.4853 26.011 81.3793 26.165 81.2623 26.313C81.1483 26.457 81.0033 26.578 80.8783 26.717C80.7553 26.854 80.6323 26.992 80.4983 27.123C80.3663 27.251 80.2543 27.405 80.1123 27.527C79.9723 27.647 79.8063 27.737 79.6563 27.849C79.3601 28.0727 79.0494 28.2764 78.7263 28.459C78.5643 28.549 78.3943 28.622 78.2243 28.701C78.0562 28.7784 77.8854 28.8497 77.7123 28.915C77.5403 28.982 77.3753 29.07 77.1963 29.125C77.0193 29.178 76.8413 29.235 76.6583 29.275C76.4783 29.316 76.2943 29.343 76.1083 29.371C75.9273 29.398 75.7393 29.389 75.5523 29.402C75.3693 29.416 75.1853 29.422 74.9973 29.422Z" fill="#131313"/>
</svg>
