<?xml version="1.0" encoding="UTF-8"?>
<svg width="8px" height="15px" viewBox="0 0 8 15" version="1.1" xmlns="http://www.w3.org/2000/svg" xmlns:xlink="http://www.w3.org/1999/xlink">
    <title>Path</title>
    <g id="Oddbee_Desktop" stroke="none" stroke-width="1" fill="none" fill-rule="evenodd">
        <g id="Contact-Us-2-Copy-2" transform="translate(-723.000000, -669.000000)" fill="#FFFFFF" fill-rule="nonzero">
            <g id="Group" transform="translate(630.000000, 86.000000)">
                <g id="Group-7-Copy" transform="translate(0.000000, 576.000000)">
                    <g id="attachment" transform="translate(93.000000, 7.000000)">
                        <path d="M6.90908781,3.40910398 L6.90908781,11.250008 C6.90908781,12.7568379 5.60725457,13.977272 4,13.977272 C2.39274543,13.977272 1.0908781,12.7568379 1.0908781,11.250008 L1.0908781,2.72726401 C1.0908781,1.78635425 1.9054145,1.022728 2.90905372,1.022728 C3.91269293,1.022728 4.72726343,1.78635425 4.72726343,2.72726401 L4.72726343,9.88636 C4.72726343,10.2613496 4.40363751,10.568168 4,10.568168 C3.59636249,10.568168 3.27273657,10.2613496 3.27273657,9.88636 L3.27273657,3.40910398 L2.18182438,3.40910398 L2.18182438,9.88639196 C2.18182438,10.8273017 2.99636079,11.590928 4,11.590928 C5.00363921,11.590928 5.81817562,10.8272698 5.81817562,9.88636 L5.81817562,2.72726401 C5.81817562,1.22046607 4.51634238,0 2.90908781,0 C1.30183324,0 0,1.22046607 0,2.72726401 L0,11.250008 C0,13.3227261 1.79274373,15 4,15 C6.20725627,15 8,13.3227261 8,11.250008 L8,3.40910398 L6.90908781,3.40910398 Z" id="Path"></path>
                    </g>
                </g>
            </g>
        </g>
    </g>
</svg>