<svg xmlns="http://www.w3.org/2000/svg" viewBox="0 0 251.9 201.03"><defs><style>.cls-1{fill:#222;}</style></defs><g id="Layer_2" data-name="Layer 2"><g id="Layer_1-2" data-name="Layer 1"><ellipse class="cls-1" cx="60.66" cy="167.75" rx="6.25" ry="8.28" transform="translate(-28.51 13.26) rotate(-10.11)"/><ellipse class="cls-1" cx="158.54" cy="169.14" rx="5.31" ry="7.04" transform="translate(-27.24 30.47) rotate(-10.11)"/><path class="cls-1" d="M251.9,191.4c0-.77-1-1.23-2-1.31-6.71-.58-13.6.13-20.35.15h-4.17l-15.4.05-22.9.07-27.71.09-30.29.1-30.26.09-27.62.09c-7.58,0-15.16.07-22.74.11-5.06,0-10.12.08-15.18.09-7.07,0-14.15.09-21.22.07-3.3,0-6.6,0-9.9-.13h0c-.74-.14-1.84.17-1.93.73-1.33,8.4,3,9.47,4,9.43,9.12-.35,15.67-.09,24.8-.08H43.71l22.07,0,26.59,0h55l22.82,0c5.26,0,10.52,0,15.78-.08,6.17,0,12.34-.21,18.51-.24,12.83-.05,25.66.58,38.48.22C251.85,200.62,251.73,194.17,251.9,191.4Z"/><path class="cls-1" d="M100,66.68a20.64,20.64,0,0,0-4.81,6.25,13.51,13.51,0,0,0-.8,7.47,20.44,20.44,0,0,0,8.13,13.08c.48.34,1-.3.75-.75-1-2-2.53-3.8-3.74-5.7a21.17,21.17,0,0,1-2.9-6.36,12.42,12.42,0,0,1,.17-7.07,20,20,0,0,1,4-6.09c.48-.57-.28-1.37-.83-.83Z"/><path class="cls-1" d="M79,93.79a12,12,0,0,1-5.15,3.33c-1.83.76-3.69,1.44-5.46,2.34-3.32,1.69-6.48,4.27-8.08,7.69A27,27,0,0,0,58.47,114l-1.34,7.34c-.47,2.62-1,5.23-1.41,7.84s-1,5.09-1.27,7.65c-.11,1.2,1.74,1.39,2,.28.7-2.54,1-5.22,1.53-7.81s.9-4.89,1.35-7.34l1.34-7.34a23.38,23.38,0,0,1,1.82-6.79c1.81-3.45,5.28-5.57,8.65-7.28,3.22-1.63,7-2.72,8.5-6.34.17-.39-.46-.75-.72-.42Z"/><path class="cls-1" d="M59.12,42.48a34.71,34.71,0,0,0-3.27,6c-1,2-2,4.08-3.1,6.07a11.75,11.75,0,0,0-1.45,2.58c-.22.91.46,1.28,1.19,1.55,2.36.85,4.74,1.66,7.15,2.36.85.25,1.12-1,.36-1.28-2-.83-4.06-1.56-6.12-2.28l-.81-.28c-.11,0-.79-.35-.33,0,.11.28.21.27.3,0l.16-.26c.13-.22.26-.43.38-.65.5-.85,1-1.71,1.43-2.58.91-1.74,1.77-3.51,2.62-5.29a33.38,33.38,0,0,0,2.23-5.57c.13-.47-.48-.66-.74-.31Z"/><path class="cls-1" d="M74.53,65.51A36.93,36.93,0,0,1,62.92,69a27.72,27.72,0,0,1-5.15.29,13.41,13.41,0,0,1-2.6-.41c-.92-.25-1.76-.83-2.68-1a.89.89,0,0,0-.86,1.47c1.1,1.34,3.61,1.75,5.23,1.93a18.66,18.66,0,0,0,6-.33A44.39,44.39,0,0,0,75,66.34c.55-.3.07-1.1-.48-.83Z"/><path class="cls-1" d="M76.32,97.72a10.16,10.16,0,0,0,6.78,2.82,54,54,0,0,0,9.08-.26,28.78,28.78,0,0,0,8-1.9,28.41,28.41,0,0,0,3.3-1.56,20.38,20.38,0,0,0,3.17-2.46c.71-.6-.3-1.57-1-1-3.76,3.06-9,4.11-13.69,4.58C87,98.42,81.63,99,77.09,96.72c-.62-.32-1.32.48-.77,1Z"/><path class="cls-1" d="M138.85,168q-2-13.83-4-27.65c-1.15-8-1.85-16.19-4.31-23.88a31.06,31.06,0,0,0-4.84-9.59,28.56,28.56,0,0,0-8.43-7.07c-3.66-2.13-7.54-3.93-11-6.38a27,27,0,0,1-4.7-4.3,33.81,33.81,0,0,1-4.16-5.5.2.2,0,0,0-.37.16A22.32,22.32,0,0,0,102.26,93a36.61,36.61,0,0,0,8.63,6.24,68.1,68.1,0,0,1,9.36,5.69,23,23,0,0,1,6.41,8.14c3.28,6.73,4,14.45,5.07,21.75l3.87,26.68,1.06,7.34c.35,2.4,1.1,5.09.7,7.52a10.59,10.59,0,0,1-3.72,5.92,65.1,65.1,0,0,1-10.09,5c-4.68,1.88-9.55,3.18-14.31,4.81a1,1,0,0,0,.55,2,112.13,112.13,0,0,0,15-4.91c8.67-3.41,12.08-6.23,13.76-9.38C140.55,176.08,139.42,171.91,138.85,168Z"/><path class="cls-1" d="M133.79,176.1a29.88,29.88,0,0,0-4.17-5.57,12.89,12.89,0,0,0-7.46-3.29c-2.15-.24-3.45-.43-4.37.07-2.14,1.17-4.18,2.14-5.73,3-3.49,2-7.48,3-11.08,4.75-1.72.84-.18,3.56,1.51,2.59,3.07-1.74,5.77-4.15,9-5.68,1.52-.73,4.74-2.16,6.44-2.19,6.95-.09,8.3,2,10.3,3.24,1.76,1.12,3.26,2.54,5.06,3.59.32.19.75-.19.53-.52Z"/><path class="cls-1" d="M115.59,131.75c.11,6.26.1,12.53.33,18.79.11,3.1.22,6.2.36,9.3.07,1.6.15,3.19.22,4.79a24.72,24.72,0,0,0,.38,4.46c.24,1,1.59.66,1.7-.23a25.56,25.56,0,0,0-.08-4.46l-.21-4.56c-.15-3.18-.32-6.36-.48-9.54-.32-6.19-.89-12.37-1.39-18.55,0-.52-.84-.54-.83,0Z"/><path class="cls-1" d="M104.39,49.59c.31.3.16,1,0,1.32a4.17,4.17,0,0,1-.9,1.33,13.52,13.52,0,0,1-3.08,2.28.37.37,0,0,0,.28.67,9.93,9.93,0,0,0,2.31-.82,5,5,0,0,0,1.74-1.58,4.05,4.05,0,0,0,.75-2,1.85,1.85,0,0,0-.16-.9,1.43,1.43,0,0,0-.67-.66.25.25,0,0,0-.29.39Z"/><path class="cls-1" d="M25.05,139.64c4.79.41,9.62.2,14.43.2s9.45,0,14.18.14q14.31.27,28.61,1,8.2.42,16.4,1c2.22.16,2.22-3.33,0-3.47q-28.83-1.8-57.7-1.36a134.11,134.11,0,0,0-16.16.77c-1,.14-.67,1.62.24,1.7Z"/><path class="cls-1" d="M98.6,140.61q.44,13.08,1.16,26.15l.71,13c.12,2.16.24,4.31.33,6.47,0,1.08.09,2.16.14,3.24s-.16,2.13.79,3a1.43,1.43,0,0,0,2,0c.88-1,.67-1.71.55-3-.09-1-.15-2-.23-3-.16-2.15-.3-4.31-.44-6.47l-.84-13.2q-.84-13.08-1.94-26.15c-.12-1.42-2.3-1.47-2.25,0Z"/><path class="cls-1" d="M23.52,138.41c-.08,9.22.77,18.47,1.31,27.67l.81,13.71.41,7,.2,3.49a11.83,11.83,0,0,0,.3,3.37,1.44,1.44,0,0,0,2.76,0,11.21,11.21,0,0,0-.06-3.37L29,186.77l-.44-7-.86-13.71c-.57-9.21-.84-18.51-2-27.67-.18-1.34-2.17-1.44-2.18,0Z"/><path class="cls-1" d="M64.22,130.31c-.17,1.37-.38,2.71-.51,4.08-.06.72-.11,1.43-.16,2.15a5.59,5.59,0,0,0,0,2,.87.87,0,0,0,.83.63.88.88,0,0,0,.82-.63,5.52,5.52,0,0,0,.23-2c0-.73.07-1.46.09-2.2,0-1.36,0-2.71,0-4.08a.66.66,0,0,0-.64-.64.67.67,0,0,0-.65.64Z"/><path class="cls-1" d="M114.32,99.7a5.82,5.82,0,0,0-2.61.46c-1,.29-2,.62-3,.91q-2.79.83-5.64,1.42A73.75,73.75,0,0,1,91.33,104a73,73,0,0,1-11.83-.39c-4-.46-8-1.52-12-2.08-1.14-.16-2.14,1.46-.87,2.06a41.07,41.07,0,0,0,11.93,3,74.09,74.09,0,0,0,12.72.63,73,73,0,0,0,12.41-1.49q3.06-.65,6.06-1.54c1.73-.52,4.44-1,5.51-2.6a1.15,1.15,0,0,0,0-1.16A3.49,3.49,0,0,1,114.32,99.7Z"/><path class="cls-1" d="M125.7,107.42c-17,1.78-33.5,7.88-50.73,6.64a53.27,53.27,0,0,1-13.44-2.81,1,1,0,0,0-.75,1.8c15.53,7.61,33.87,3.45,50,.4,5.06-1,10.14-1.84,15.28-2.31a1.86,1.86,0,0,0,1.3-.67C126.81,109.45,126.25,108.44,125.7,107.42Z"/><path class="cls-1" d="M130.32,118.89c-10.46-2.09-20.93.69-31.17,2.69A102,102,0,0,1,72,123.2a56.68,56.68,0,0,1-13.37-2.38c-1.12-.37-1.92,1.45-.82,1.93,7.76,3.35,16.49,4.09,24.86,4a102.5,102.5,0,0,0,13.79-1.06c5.18-.75,10.26-2,15.42-2.85,5.83-1,11.82-1.47,17.66-.27a1.87,1.87,0,0,0,1.42-.25Z"/><path class="cls-1" d="M132.08,129.15c-9.82-1.81-19.55,1.46-29.23,2.83a126.69,126.69,0,0,1-29.83.63c-5.64-.54-11.19-1.81-16.83-2.23-1.17-.08-1.16,1.49-.26,1.87,4.58,1.91,9.6,2.62,14.49,3.25a126.2,126.2,0,0,0,14.92,1c10,.11,19.7-1.31,29.5-3.1,5.5-1,11.18-1.8,16.72-.65a2,2,0,0,0,1.12-.1Z"/><path class="cls-1" d="M133.92,140.19a26.26,26.26,0,0,0-9.17-.75,29,29,0,0,0-5.31.94,9.27,9.27,0,0,0-4.31,2.24c-.31.34,1,2.44,1.46,2.21,2.91-1.31,6.51-2.4,8.16-2.36a22.66,22.66,0,0,1,9.42,2.05,2.58,2.58,0,0,0,.48.18C134.41,143.2,134.17,141.69,133.92,140.19Z"/><path class="cls-1" d="M135.72,151.51a21.21,21.21,0,0,0-18.28-1.63,1.57,1.57,0,0,0,.83,3,26.71,26.71,0,0,1,8.5-.55,17.29,17.29,0,0,1,7.61,2.88,1.65,1.65,0,0,0,1.9,0C136.09,154,135.91,152.76,135.72,151.51Z"/><path class="cls-1" d="M137.42,163.21a16.39,16.39,0,0,0-7.92-4.2,18,18,0,0,0-11.47.61,3,3,0,0,1,.19,1.16c0,.82-.07,1.62-.11,2.42a1.62,1.62,0,0,0,.5-.16,14,14,0,0,1,10.1-.6,16.16,16.16,0,0,1,4,1.56,17.38,17.38,0,0,1,4.18,3.54c.58.74.48.25,1.14-.16C137.82,166,137.62,164.6,137.42,163.21Z"/><path class="cls-1" d="M123.48,180.59a17.24,17.24,0,0,0-3.8-6.58,10.69,10.69,0,0,0-5.69-2.95c-.26-.06-.24-.95-.5-1a25.42,25.42,0,0,1-6.43,3.95,1.05,1.05,0,0,0,.88.09,9.47,9.47,0,0,1,6,.54,8.1,8.1,0,0,1,4.43,4,15.49,15.49,0,0,1,1.35,3.29c.19.66.31,1.36.52,2a.76.76,0,0,0,0-.14c0,.05,0,.11,0,.16s0,.25,0,.19a1.1,1.1,0,0,1,0,.18,19.81,19.81,0,0,1,0,2.67c0,.34,0,.67-.08,1,0,0,0,.15-.06.27a1.84,1.84,0,0,0,.58,2.62,5.11,5.11,0,0,0,2.55-1.64,4.17,4.17,0,0,1,.71-.74,12.56,12.56,0,0,0,.3-2.54A14.81,14.81,0,0,0,123.48,180.59Z"/><path class="cls-1" d="M103.58,176.7a12.78,12.78,0,0,1,3,3,16.55,16.55,0,0,1,2.13,3.4,13.64,13.64,0,0,1,1.17,4.27,14.13,14.13,0,0,1,0,2.52,24.25,24.25,0,0,0-.36,2.48c0,.13,0,.26,0,.38,1.44-.25,2.88-.43,4.31-.65a13.28,13.28,0,0,0,.21-4.73,14.73,14.73,0,0,0-1.79-5.9,13.84,13.84,0,0,0-3.45-4,15.45,15.45,0,0,0-4.66-2.2C103.32,175,102.86,176.25,103.58,176.7Z"/><path class="cls-1" d="M116.42,140.85c-3,.38-5.92.93-8.89,1.46-1.45.25-2.91.48-4.36.74a24.1,24.1,0,0,0-2.56.53,3.29,3.29,0,0,1,.3.74,4.06,4.06,0,0,1-.22,2.52,17,17,0,0,0,3-.21c1.51-.21,3-.48,4.51-.78a48,48,0,0,0,8.59-2.41,1.33,1.33,0,0,0,.94-1.45A1.29,1.29,0,0,0,116.42,140.85Z"/><path class="cls-1" d="M116.59,151.94a67.21,67.21,0,0,0-8.66,1.68c-1.25.29-2.5.53-3.77.74l-2.3.38-.47.1c0,.14,0,.26,0,.41,0,1.06,0,2.12.06,3.18a5.35,5.35,0,0,0,.88,0c.82-.09,1.64-.19,2.45-.33,1.34-.24,2.67-.52,4-.86a44.65,44.65,0,0,0,8.39-3A1.22,1.22,0,0,0,116.59,151.94Z"/><path class="cls-1" d="M116.78,161c-2.71.7-5.39,1.53-8.13,2.12-.54.11-1.09.21-1.64.3-.38.05-.88.11-1.54.17a28,28,0,0,0-3.69.42c0,1.16,0,2.33,0,3.5a15.84,15.84,0,0,0,4.18-.25,30.93,30.93,0,0,0,3.55-.7,84.52,84.52,0,0,0,8-2.82A1.42,1.42,0,0,0,116.78,161Z"/><path class="cls-1" d="M134.75,144.54c9.5.82,19.1.93,28.63,1.18l28.63.78c1.82.05,1.82-2.79,0-2.83L163.38,143c-9.53-.22-19.11-.59-28.63-.24a.88.88,0,0,0,0,1.76Z"/><path class="cls-1" d="M192.09,145.07a189.55,189.55,0,0,0-.43,27.17q.39,6.72,1.16,13.42.39,3.38.87,6.73.24,1.7.51,3.39A7.12,7.12,0,0,0,195,199a1.39,1.39,0,0,0,2.51-.32,7.12,7.12,0,0,0-.25-3.2c-.18-1.12-.36-2.25-.53-3.38q-.53-3.44-.93-6.89Q195,178.6,194.61,172c-.55-8.95-.7-18-.46-26.93,0-1.34-2-1.3-2.06,0Z"/><path class="cls-1" d="M173.45,37.53A75.85,75.85,0,0,0,169.14,46L165,54.69c-.46,1-1.36,2.21-1.13,3.34s1.23,1.27,2.16,1.22a80.79,80.79,0,0,0,9.46-.77c.9-.15.65-1.52-.2-1.54a74.5,74.5,0,0,0-8,.54c-.32,0-1.45.34-1.69.15s.36-1.26.51-1.59l1.71-3.76L171,45.13a65.33,65.33,0,0,0,3-7.35.32.32,0,0,0-.58-.25Z"/><path class="cls-1" d="M165.06,69.91a23.28,23.28,0,0,0,11.36,1,25.28,25.28,0,0,0,10.71-3.63c.58-.39.22-1.48-.51-1.2a44.67,44.67,0,0,1-10.57,3,54.65,54.65,0,0,1-10.85-.14c-.64-.05-.66.84-.14,1Z"/><path class="cls-1" d="M170,24c-4.77,2.64-8.38,7.67-10.56,12.56A31.39,31.39,0,0,0,156.91,53a32.51,32.51,0,0,0,6.37,15.8c3.75,4.92,8.91,8.3,14.15,11.45,6,3.61,12.37,7.31,16.45,13.22.46.67,1.53.07,1.11-.65C188.78,82.35,176.12,79.1,167.71,71a30.29,30.29,0,0,1-7.51-31.2,31.85,31.85,0,0,1,4.15-8,49.55,49.55,0,0,1,6.36-6.91A.57.57,0,0,0,170,24Z"/><path class="cls-1" d="M212.43,59.4A39.39,39.39,0,0,0,210,79c.8,6.3,2.8,13.08,6.9,18,.45.55,1.18-.15.92-.71A86,86,0,0,1,214,87.5,46.24,46.24,0,0,1,212,78.37a49.14,49.14,0,0,1,1.52-18.69c.19-.68-.79-.91-1-.28Z"/><path class="cls-1" d="M191.16,90.19c-7.52,1.28-15.29,4.77-18.69,12-1.72,3.67-2.41,7.68-3.05,11.65-.74,4.64-1.53,9.26-2.33,13.89-.91,5.22-1.81,10.45-2.66,15.68-.2,1.25,1.72,1.79,1.92.53,1.39-8.75,3-17.46,4.42-26.2,1.3-7.85,2.09-16.49,9.32-21.29,3.53-2.34,7.63-3.64,11.44-5.42.52-.24.13-1-.37-.87Z"/><path class="cls-1" d="M221.53,127.16c.59,5.67.87,11.4,1,17.1.06,2.78.14,5.55.15,8.34,0,2.94-.13,5.89,0,8.83a.9.9,0,0,0,1.8,0,89.73,89.73,0,0,0-.1-17.42,168.76,168.76,0,0,0-2.37-16.9c0-.24-.45-.19-.43,0Z"/><path class="cls-1" d="M235.83,166.48a13.16,13.16,0,0,0-5.6-4.59,13.56,13.56,0,0,0-7.35-1.39.85.85,0,0,0-.61.93c.06.45-2,1.3-1.53,1.21a12.7,12.7,0,0,1,5.65-.15,18.64,18.64,0,0,1,3.21.9,21.7,21.7,0,0,1,5.73,3.48c.26.21.72-.05.5-.39Z"/><path class="cls-1" d="M224,160.37a11.06,11.06,0,0,0-3.87,1.7q-1.94,1.13-3.84,2.28l-7.4,4.46q-7.57,4.58-15.17,9.13a.79.79,0,0,0,.8,1.36q7.65-4.67,15.35-9.25l7.43-4.44c2.35-1.41,5.28-2.7,7-4.89.14-.19-.09-.38-.26-.35Z"/><path class="cls-1" d="M244.05,162.41c-.58-7.69-1.28-15.37-1.92-23.06-.56-6.75-1.08-13.59-2.9-20.15a42.41,42.41,0,0,0-9-16.59A61.73,61.73,0,0,0,214.42,90.1c-.42-.24-.95.38-.54.7,4.55,3.57,9.29,7,13.31,11.14a40.64,40.64,0,0,1,9.44,15.3c2.06,6.2,2.77,12.71,3.33,19.18.62,7.21,1.2,14.43,1.8,21.64.55,6.68,4,19.89-11.8,24.71-3.53,1.08-8.69,2.14-12.73,3.32-4.21,1.22-8.42,2.46-12.62,3.69a131,131,0,0,0-12.81,4,.74.74,0,0,0,.39,1.43,132.84,132.84,0,0,0,13.41-3.65l12.88-3.72c4.07-1.19,8.19-2.29,12.22-3.62a34,34,0,0,0,8-3.53C238.84,180.66,245.17,177.28,244.05,162.41Z"/><path class="cls-1" d="M213.5,48.27c.66-.35,1.36.3,1.42.94a3.87,3.87,0,0,1-1.06,2.59,14.35,14.35,0,0,1-2,2.22c-.38.33-.77.66-1.18,1s-.89.57-1.32.87-.14.76.26.63a12.15,12.15,0,0,0,3.45-1.91A11.76,11.76,0,0,0,216,51.76a3.32,3.32,0,0,0,0-3.91,2,2,0,0,0-3-.21.4.4,0,0,0,.48.63Z"/><path class="cls-1" d="M175,122.22q-1.12,11-1.92,22.07c-.1,1.35,2.07,1.37,2.12,0,.31-7.36.71-14.71.8-22.07,0-.65-.94-.62-1,0Z"/><path class="cls-1" d="M199.13,175.94c1.6-.39,3.9,1.5,4.78,2.66a9.14,9.14,0,0,1,1.28,8.86,11.18,11.18,0,0,1-1,2.12,16.34,16.34,0,0,1-1.44,2.14.77.77,0,0,0,.93,1.21,7.61,7.61,0,0,0,2.58-1.75,10,10,0,0,0,1.78-2.67,10.89,10.89,0,0,0,.67-6.71,11.16,11.16,0,0,0-3.13-5.63,5.19,5.19,0,0,0-5.68-1.45c-1.16.45-2.75,2.14-1.5,1.83Z"/><path class="cls-1" d="M231.94,105.14c-13.13-8.79-33.78,1.2-43.94-13.54-.6-.87-2.23-.37-1.82.77,2.85,7.87,11.78,10.72,19.37,11.39,8.95.79,18-.33,26.41,3.66a1,1,0,0,0,1.11-.22C232.7,106.51,232.33,105.82,231.94,105.14Z"/><path class="cls-1" d="M236.51,114.78a35.27,35.27,0,0,0-5.91-2.1A64.53,64.53,0,0,0,217,110.76a101.33,101.33,0,0,1-15.54-1.6,59.42,59.42,0,0,1-13.71-4.76c-3.4-1.67-8.07-3.83-9.31-7.75l-.91.67c-.27.21-.56.39-.85.58l-.12.07c.52,3.49,3.23,6,6.13,7.89a53.82,53.82,0,0,0,12.71,5.78,65.21,65.21,0,0,0,15.36,2.89c5.08.38,10.18.48,15.2,1.45a48.69,48.69,0,0,1,6.93,1.81,50.27,50.27,0,0,1,5.53,2.67C237.88,118.55,237.24,116.65,236.51,114.78Z"/><path class="cls-1" d="M240,126.13c-1.91-.47-3.79-1-5.73-1.33-2.16-.36-4.34-.61-6.52-.79-4.78-.4-9.57-.58-14.34-1.1a112.36,112.36,0,0,1-27.21-6.68c-4.75-1.79-9.38-3.81-14.17-5.49-1.28-.45-2.09,1.53-.92,2.19A121.18,121.18,0,0,0,196,123.35c9.58,2.81,19.39,3.65,29.31,4.34,4.7.32,9.74.66,14.15,2.43a1.57,1.57,0,0,0,1.38-.05C240.55,128.75,240.27,127.44,240,126.13Z"/><path class="cls-1" d="M222.92,135.86c0-.34-.06-.68-.1-1,0-.16,0-.33,0-.49s0-.12,0-.22a2.85,2.85,0,0,1,0-.29c-1.17-.16-2.44-.1-3.53-.18q-2.77-.21-5.53-.46c-3.89-.37-7.78-.82-11.64-1.42A82.36,82.36,0,0,1,180.93,126a56.1,56.1,0,0,1-10.84-6.36l-.1,0c0,.25-.1.5-.16.74-.21.76-.45,1.5-.68,2.25,11.95,9.36,27.27,12.14,42,13.78q3.24.36,6.48.63l3.26.26a19.78,19.78,0,0,0,2.18.14C223,136.9,223,136.38,222.92,135.86Z"/><path class="cls-1" d="M174.66,135.49c.05-.69.08-1.37.08-2.06,0-.14,0-.27,0-.4a1.09,1.09,0,0,0-.44-.05,7.88,7.88,0,0,1-1.61,0h-.21l-.28,0a7.35,7.35,0,0,1-.84-.19,6.75,6.75,0,0,1-.76-.25l-.08,0-.06,0-.36-.17a7.84,7.84,0,0,1-.69-.41,2.7,2.7,0,0,1-.33-.22l-.06,0-.13-.11a1.27,1.27,0,0,0-1.63-.07,7.26,7.26,0,0,1-.24,1.55,1.94,1.94,0,0,0,.15.24,9.14,9.14,0,0,0,7.13,2.91,1.26,1.26,0,0,0,.27,0C174.63,135.88,174.65,135.68,174.66,135.49Z"/><path class="cls-1" d="M174.9,137.9c14.4,7.27,32.07,10.42,48.16,9.75,1.08-.05.57-.89.71-1.69.18-1.08.66-2.19-.78-2.12a113.91,113.91,0,0,1-47.26-7.9c-1.13-.45-1.91,1.42-.83,2Z"/><path class="cls-1" d="M242,137.57a1.8,1.8,0,0,0-1.16-.44,11.11,11.11,0,0,0-2.54.51c-.76.17-1.52.32-2.3.44a28.09,28.09,0,0,1-4,.26,23.36,23.36,0,0,1-8.46-1.68c-1.19-.46-1.78,1.32-.83,2a19.19,19.19,0,0,0,9.14,3.24,21.27,21.27,0,0,0,4.65-.12c1.66-.21,3.8-.34,5.26-1.2a1.81,1.81,0,0,0,.52-.46C242.15,139.24,242.05,138.41,242,137.57Z"/><path class="cls-1" d="M242.93,149.77a1,1,0,0,0-.22-.24c-.94-.78-1.72-.65-2.85-.55-.91.09-1.82.18-2.73.24a27.8,27.8,0,0,1-5.24-.14,12.29,12.29,0,0,1-7.4-3.43c-.76-.79-2.17.25-1.54,1.2a13.34,13.34,0,0,0,7.84,5.34,21.93,21.93,0,0,0,5.65.64c1,0,2.06,0,3.08-.12s2.44,0,3.19-.89a1.89,1.89,0,0,0,.28-.48Z"/><path class="cls-1" d="M214.81,166.37a20.69,20.69,0,0,1,12,4.57c2.91,2.63,4.5,7.63,4.34,11.43,0,1.12.77.84,1.85.84a2.12,2.12,0,0,0,2.08-2.07,16.36,16.36,0,0,0-5.54-13.1c-3.76-3.22-9.09-4.3-12.38-3.55-.92.21-3.27,1.36-2.25,1.36Z"/><path class="cls-1" d="M218.46,174.65a14,14,0,0,0-8.32-6.28,1,1,0,0,0-.73,1.73c4.69,2.7,8.26,9.6,6.75,16.12-.06.24.22.44.33.66a2.09,2.09,0,0,0,3.78-.49A16.84,16.84,0,0,0,218.46,174.65Z"/><path class="cls-1" d="M243.17,160.65l-.17,0a60,60,0,0,1-19.44-4.69c-.89-.36-1.28,1-.61,1.44a34.51,34.51,0,0,0,9.47,4.9A50.23,50.23,0,0,0,243,164.53a.43.43,0,0,0,.16,0C243.17,163.23,243.17,161.94,243.17,160.65Z"/><path class="cls-1" d="M192,156.42a45.48,45.48,0,0,0,7.4,2.35,61.31,61.31,0,0,0,8.11,1.12,78.08,78.08,0,0,0,8,.21c1.26,0,2.53-.09,3.79-.19,1.47-.11,3.43.16,4.62-.79.83-.66.85-3.6-.21-3.52s-3.09.27-4.41.41-2.52.24-3.79.3c-2.65.14-5.3.13-8,0s-5.14-.34-7.71-.54-5.09-.38-7.63-.62c-.77-.08-.77,1-.17,1.24Z"/><path class="cls-1" d="M209.37,169.23c.95-.7,2-1.29,3-1.91.54-.33,1.08-.66,1.59-1l0,0,.08-.07.15-.14c-.37-.35-10-.15-11.53-.13-3.36.05-6.71-.16-10.06-.14a.83.83,0,0,0-.22,1.62,37.74,37.74,0,0,0,10.14,2.09c1.53.11,3.07.18,4.6.16h1.76C209,169.5,209.2,169.36,209.37,169.23Z"/><path class="cls-1" d="M165.78,144.54a23.13,23.13,0,0,0,4.36.9,19.41,19.41,0,0,0,2.16.12,5.38,5.38,0,0,0,2.43-.28,1.16,1.16,0,0,0-.27-2.1,7.14,7.14,0,0,0-2.16.08,20.79,20.79,0,0,1-2.09,0,21.78,21.78,0,0,1-3.94-.5.91.91,0,0,0-.49,1.76Z"/><path class="cls-1" d="M165.87,46.88c0-.71-.07-1.42-.1-2.13-.06-1.26-.33-3.88-.32-3.94.06-.5-.31-.92-.57-1.31s-.53-.77-.81-1.15c-.55-.76-1.13-1.51-1.74-2.22a32.11,32.11,0,0,0-4-3.91.46.46,0,0,0-.35-.12.34.34,0,0,0-.34,0,31.81,31.81,0,0,0-3.77,3.39c-1.2,1.2-2.41,2.4-3.6,3.61-.26.27.33,7,.71,10a1,1,0,0,0,.11.31.6.6,0,0,0,.15.36q1.69,1.86,3.49,3.59c1,.94,2.12,2.54,3.67,2.15a4.7,4.7,0,0,0,1.73-1.09l1.92-1.63c1.12-.95,3.87-3.36,3.9-3.7A18.38,18.38,0,0,0,165.87,46.88Z"/><path class="cls-1" d="M195.71,49.11c0-.48,0-7.26-.19-8.63-.05-.29-6.48-6.3-7.25-7a3.81,3.81,0,0,0-2.09-1.17,2.63,2.63,0,0,0-2,.74c-.8.65-1.54,1.39-2.29,2.08q-2.47,2.26-4.9,4.56a.42.42,0,0,0-.08.12.37.37,0,0,0-.16.33c0,1.39,0,2.79,0,4.18s-.11,2.8,0,4.18c0,.27.38.67.44.73,2.3,2.26,4.73,4.36,7.2,6.42a.79.79,0,0,0,.9.11l5-2.88,2.44-1.41A18.1,18.1,0,0,0,195.14,50C195.23,49.89,195.74,49.38,195.71,49.11Z"/><path class="cls-1" d="M165.42,43.88a7.57,7.57,0,0,1,6-2.72,8,8,0,0,1,5.48,3.2c.35.41,1.16,0,.94-.55a7.21,7.21,0,0,0-6.33-4,7.34,7.34,0,0,0-6.66,3.63c-.18.37.28.78.6.46Z"/><path class="cls-1" d="M195.92,44.93a28.52,28.52,0,0,1,19.49-3.09c3.18.66,6.69,1.81,8.8,4.42S226,52,224,54.6c-.4.52-.06,1.39.68,1.18,3.62-1.05,4.16-5.78,2.89-8.74-1.6-3.75-5.3-5.82-9.05-6.9a30.06,30.06,0,0,0-23.54,3.11,1,1,0,0,0,1,1.68Z"/><path class="cls-1" d="M225.12,31.36l.2-.48a8.07,8.07,0,0,0,.45-3.51,7.86,7.86,0,0,0-2.37-4.84,7.81,7.81,0,0,0,0-4.34,7.72,7.72,0,0,0-6.15-5.36,7.34,7.34,0,0,0-3.14.18,8.46,8.46,0,0,0-1-4,7.55,7.55,0,0,0-6.61-3.88,6.5,6.5,0,0,0-3.32.93,7.34,7.34,0,0,0-2.89-2.88,6.34,6.34,0,0,0-5.91,0,8.47,8.47,0,0,0-8.85-1.88,5.27,5.27,0,0,0-2,1.2h0A9,9,0,0,0,177.72,0a7.9,7.9,0,0,0-5.34,1.66,4.18,4.18,0,0,0-1.5,2.56,8.42,8.42,0,0,0-7.15,1.59,6.48,6.48,0,0,0-1.27,8.94,5.7,5.7,0,0,0-3.65,4.16,6.44,6.44,0,0,0,2.43,6.55A8.78,8.78,0,0,0,168,26.71,15.64,15.64,0,0,0,173.88,24a5.78,5.78,0,0,0,3.78,2.81,13.09,13.09,0,0,0,7.25-.86c.46-.17.92-.36,1.38-.56a5,5,0,0,0,2.6,2,8.65,8.65,0,0,0,3.29.37,4.52,4.52,0,0,0,3.32,2.4,7.45,7.45,0,0,0,1.06.09,5.1,5.1,0,0,0,1.55,4.42,6.12,6.12,0,0,0,4,1.47,4.1,4.1,0,0,0-.54,1,6,6,0,0,0,.72,4.85,6.47,6.47,0,0,0,.85,1,4.88,4.88,0,0,1,.85.85c.31.54-.51,1-.89,1.24a3.91,3.91,0,0,0-1.41,1.66,2.73,2.73,0,0,0,.71,3,2.53,2.53,0,0,0-1.65,3,3,3,0,0,0,3.48,2.07,4.33,4.33,0,0,0,2.9-3.32c.18-.73.26-1.49.48-2.21a2.34,2.34,0,0,1,.09-.24c1.65-1.92,3.1-3.91,5.38-5.17,1.72-.94,4.35-1.17,5.81.39,1.68,1.79,1.06,4.72.27,6.77a13.42,13.42,0,0,1-4.42,5.88,15.28,15.28,0,0,1-8.37,2.77.72.72,0,0,0,0,1.43c6.26.81,12.4-3.4,14.68-9.14,1-2.6,1.56-6-.19-8.46a5.3,5.3,0,0,0-1.12-1.1c.75-.35,1.52-.6,2.25-1s1.31-.69,1.92-1.1a7.79,7.79,0,0,0,2.7-2.65C227.81,35.5,226.81,33,225.12,31.36Z"/><path class="cls-1" d="M70,19.6c-6.24-.06-12.25,3.26-16.38,7.81-4.91,5.4-6.5,12.52-6.91,19.63-.39,6.78.34,13.8,3.13,20.06,3,6.59,8.33,10.89,14.24,14.73a77.27,77.27,0,0,1,9.84,7,23.83,23.83,0,0,1,6.45,9.62.71.71,0,0,0,1.37-.38c-.85-6.21-6.66-11.14-11.46-14.52-5.57-3.93-12-7-16.07-12.64s-5.52-12.35-5.7-19C48.3,45,49,37.39,52.86,31.48c3.94-6.08,10.28-9.55,17.24-11,.5-.1.37-.87-.12-.87Z"/><path class="cls-1" d="M87.25,51.71l-.06-1.47c0-.91-.06-1.82-.07-2.73,0-1.89-.07-3.24,0-5.13a2.46,2.46,0,0,0-.19-1.13,57.6,57.6,0,0,0-5.25-4.77,64.91,64.91,0,0,0-5.54-4,1,1,0,0,0-1.16.15c-1.71,1.48-3.49,2.89-5.31,4.23s-5.58,3.53-5.56,4.47q.08,2.58.21,5.16c.08,1.56.15,3.16.12,4.73,0,.1-.06,1.12.16,1.31a33.49,33.49,0,0,0,5,3.66,29.53,29.53,0,0,0,5.7,2.93,3.09,3.09,0,0,0,2.36-.53c1-.49,2-1,3-1.52l2.89-1.52a21.84,21.84,0,0,0,3.14-1.66C87.35,53.4,87.27,52.13,87.25,51.71Z"/><path class="cls-1" d="M53.5,42.17c-.26-1.17-1.55-2-2.38-2.81a59.61,59.61,0,0,0-6.76-6h0a.69.69,0,0,0-.81,0,.62.62,0,0,0-.48.2c-2,2.36-6.33,7.43-6.48,7.66a1.87,1.87,0,0,0-.11,1.38c0,.38.07.77.1,1.15.07.82.12,1.65.15,2.48s0,1.65,0,2.48a10.22,10.22,0,0,0,.08,1.88,8,8,0,0,0,1.44,1.64,22.4,22.4,0,0,1,1.5,1.73,32,32,0,0,1,2.57,3.93.81.81,0,0,0,1.09.29C46,56.52,48.52,55,50.91,53.2c.84-.63,1.88-1.22,2.14-2.31a26.73,26.73,0,0,0,.32-4.57A16.54,16.54,0,0,0,53.5,42.17Z"/><path class="cls-1" d="M51.86,45.67c.26.43.74.25,1.06,0,.53-.39,1-.81,1.58-1.15a6.8,6.8,0,0,1,3.86-1,7.46,7.46,0,0,1,5.94,3.78c.54,1.09,2.17.14,1.64-1a9.15,9.15,0,0,0-7.18-4.63,7.65,7.65,0,0,0-4.46,1,6.29,6.29,0,0,0-1.76,1.44c-.22.28-.92,1-.68,1.43Z"/><path class="cls-1" d="M86.34,45.77c6.38-.84,13-2.93,19.48-1.93,2.62.4,5.93,1.68,7.72,3.73s.85,4.81-1,6.43a.66.66,0,0,0,.63,1.09,5.42,5.42,0,0,0,3.31-6.67c-.88-3.14-4.34-4.85-7.14-5.93-3.7-1.43-7.68-1.11-11.54-.65A39.61,39.61,0,0,0,86,44.68a.59.59,0,0,0,.3,1.09Z"/><path class="cls-1" d="M109.23,47a4.36,4.36,0,0,0-.72-1.07,1.29,1.29,0,0,0,0-.35c-.59-5.63-1.43-11.66-5.12-16.17a36.67,36.67,0,0,0-5-5.12c-6.49-5.28-14.74-7.14-23-6.62-7,.44-13.64,1.83-18.91,6.69-.28.26.07.66.38.5a60.41,60.41,0,0,1,8.46-3.89,24.06,24.06,0,0,1,3-.74,19,19,0,0,0-2.78.85c-.2.08-.2.44.06.42,9.14-.86,20.53.55,26.21,8.79a12.82,12.82,0,0,1,2.27,7.43c0,3-1,5.7-1.38,8.61-.22,1.78-.17,4.21,1.57,5.29a2.92,2.92,0,0,0,3.33-.27c.17,0,3.23-3,5-3.85,1.31-.63,3.48-1.3,4.33.33.42.81,1.34,3.5.22,5.7a8.88,8.88,0,0,1-4.28,3.59,13,13,0,0,1-3.15,1,26.17,26.17,0,0,0-3.52.73c-.63.22-.94,1.25-.21,1.58,2.45,1.13,5.38.25,7.71-.78a11.42,11.42,0,0,0,5.69-4.83A9.38,9.38,0,0,0,109.23,47Z"/><path class="cls-1" d="M80.94,30.75c-.12-.05.09,0,.09.05s.19.11.1,0,.07.07.07.07a2.92,2.92,0,0,0,.28.21c.22.13.43.28.65.43s-.09-.08,0,0l.14.12.31.28a7.45,7.45,0,0,1,.52.6,3.88,3.88,0,0,1,.26.31c-.14-.19,0,0,0,0l.12.17c.17.25.34.49.5.74s.33.49.49.74l.23.36a1.79,1.79,0,0,0,.55.47.72.72,0,0,0,1.08-.62,1.45,1.45,0,0,0,0-.62c0-.14-.1-.28-.16-.43-.14-.35-.28-.7-.44-1a6.31,6.31,0,0,0-1.14-1.71,6,6,0,0,0-1.47-1.18,4.14,4.14,0,0,0-.92-.38,4.39,4.39,0,0,0-1-.06.74.74,0,0,0-.2,1.44Z"/><path class="cls-1" d="M48.08,28.37a10.72,10.72,0,0,0-4.33,1.14,11,11,0,0,0-1.88,1.21,6.91,6.91,0,0,0-1.48,1.71c-.41.62.49,1.26,1,.77a12,12,0,0,1,6.69-3.5.67.67,0,1,0,0-1.33Z"/><path class="cls-1" d="M116.14,98.76a16.71,16.71,0,0,0-1.67-4.45,5.7,5.7,0,0,0-.71-.91,2.75,2.75,0,0,0-.26-.22,2.3,2.3,0,0,0-.26-.49,2.22,2.22,0,0,0-.64-.58,12.52,12.52,0,0,0-.14-2,6.19,6.19,0,0,0-1.89-3.58,8,8,0,0,0-.08-1.1A10.57,10.57,0,0,0,108.71,81a12.53,12.53,0,0,0,.15-2.29A6.58,6.58,0,0,0,107.52,75a7.56,7.56,0,0,0,.21-1.6,13.62,13.62,0,0,0-1-5.18.68.68,0,0,0-.23-.29,9.77,9.77,0,0,0,.52-1.75,7.39,7.39,0,0,0-.42-3.89c.09-.17.19-.34.27-.52a15.44,15.44,0,0,0,1.26-5.17c0-.44-.57-.45-.71-.1s-.18.47-.26.71a.67.67,0,0,0-.26-.29.76.76,0,0,0-1,.27,9.55,9.55,0,0,1-5.63,3.33.42.42,0,0,0-.74,0,7.36,7.36,0,0,0-.84,2.68,5.37,5.37,0,0,0,.14,2.7,6.82,6.82,0,0,0,.95,1.63,3.45,3.45,0,0,0-.58,1.88,5.16,5.16,0,0,0,.51,2.53A6.6,6.6,0,0,0,101,73.78a4.56,4.56,0,0,0-.19,1.63,6.11,6.11,0,0,0,.6,2.38,5.8,5.8,0,0,0,1.52,2,5.11,5.11,0,0,0,.9,3.83,5.42,5.42,0,0,0,1.51,1.65,3.9,3.9,0,0,0,.35.19,7.06,7.06,0,0,0,.23,1.72,9.3,9.3,0,0,0,.77,1.84A4.14,4.14,0,0,0,108,90.5a.61.61,0,0,0,.14.07.5.5,0,0,0,0,.12,7.17,7.17,0,0,0,.71,2.33,4.82,4.82,0,0,0,.48.7.38.38,0,0,0,0,.15,4.82,4.82,0,0,1,0,.85,2.26,2.26,0,0,0,.22,1.14,3,3,0,0,0,1.27,1.34,11,11,0,0,0,1.57.69l.15.06.36.16a3.12,3.12,0,0,1,.35.2l0,0a.59.59,0,0,1,.11.09,1.19,1.19,0,0,0,.75.3c0,.19.07.37.1.56a1,1,0,0,0,1.93-.53ZM112.4,94.3l0,0a.14.14,0,0,0,0-.07l0,.06h0Z"/></g></g></svg>