<?xml version="1.0" encoding="UTF-8"?>
<svg width="172px" height="28px" viewBox="0 0 172 28" version="1.1" xmlns="http://www.w3.org/2000/svg" xmlns:xlink="http://www.w3.org/1999/xlink">
    <title>D92A1B1F-67D8-4643-A8D3-CCA3F870FA50</title>
    <g id="Oddbee_Desktop" stroke="none" stroke-width="1" fill="none" fill-rule="evenodd">
        <g id="Main" transform="translate(-40.000000, -26.000000)" fill="#222222" fill-rule="nonzero">
            <g id="Oddbee_Logo_Black" transform="translate(40.000000, 26.000000)">
                <path d="M30.8534792,17.1584 C30.8937039,11.2227858 35.7315308,6.43887411 41.6699958,6.46241166 C47.6084607,6.48612346 52.4080364,11.3083751 52.4009265,17.2441207 C52.3938009,23.1798663 47.5826739,27.9906042 41.6441694,28 C38.7739674,27.9955572 36.0234191,26.8501029 33.9991393,24.8162592 C31.9748595,22.7824156 30.8431316,20.0272515 30.8534792,17.1584 Z M48.1263844,17.1584 C48.1959151,14.7911135 46.9721064,12.573292 44.9318265,11.3691304 C42.8915467,10.1649688 40.3575738,10.1649688 38.317294,11.3691304 C36.2770141,12.573292 35.0532054,14.7911135 35.1227362,17.1584 C35.0532054,19.5256865 36.2770141,21.743508 38.317294,22.9476696 C40.3575738,24.1518312 42.8915467,24.1518312 44.9318265,22.9476696 C46.9721064,21.743508 48.1959151,19.5256865 48.1263844,17.1584 Z" id="Shape"></path>
                <path d="M54.3284691,17.1976 C54.3284691,11.1552 58.9954397,6.3728 64.7661238,6.3728 C67.3758058,6.33287799 69.8574488,7.50077474 71.4892508,9.5368 L71.4892508,0 L76.0329642,0 L76.0329642,27.6528 L71.4892508,27.6528 L71.4892508,24.8864 C69.8411982,26.8916903 67.3617478,28.0275765 64.7661238,27.9664 C58.9954397,28 54.3284691,23.0888 54.3284691,17.1976 Z M71.7973941,17.1976 C71.7976817,13.5188046 68.8385259,10.5235849 65.1583062,10.4776 C61.6695591,10.7630366 58.9836625,13.6764129 58.9836625,17.1752 C58.9836625,20.6739871 61.6695591,23.5873634 65.1583062,23.8728 C68.8211373,23.8271118 71.7732586,20.8589331 71.7973941,17.1976 Z" id="Shape"></path>
                <path d="M77.9322476,17.1976 C77.9322476,11.1552 82.5936156,6.3728 88.3642997,6.3728 C90.9743488,6.3311752 93.4567039,7.49940714 95.0874267,9.5368 L95.0874267,0 L99.6591531,0 L99.6591531,27.6528 L95.1098371,27.6528 L95.1098371,24.8864 C93.4623107,26.8923729 90.9825079,28.0284205 88.3867101,27.9664 C82.5936156,28 77.9322476,23.0888 77.9322476,17.1976 Z M95.4011726,17.1976 C95.4014602,13.5188046 92.4423044,10.5235849 88.7620847,10.4776 C85.2733376,10.7630366 82.587441,13.6764129 82.587441,17.1752 C82.587441,20.6739871 85.2733376,23.5873634 88.7620847,23.8728 C92.4249158,23.8271118 95.3770371,20.8589331 95.4011726,17.1976 L95.4011726,17.1976 Z" id="Shape"></path>
                <path d="M107.58684,24.9032 L107.58684,27.6696 L103.020717,27.6696 L103.020717,0 L107.56443,0 L107.56443,9.576 C109.223879,7.55174037 111.702929,6.37648584 114.321173,6.3728 C120.209511,6.3336 124.758827,11.1552 124.758827,17.1976 C124.758827,23.0888 120.411205,27.9832 114.321173,27.9832 C111.725776,28.0279319 109.249722,26.8954891 107.58684,24.9032 Z M120.512055,17.1976 C120.465651,13.5604989 117.482614,10.647248 113.843723,10.6852738 C110.204833,10.7232996 107.283383,13.6982514 107.313069,17.3355272 C107.342755,20.972803 110.312374,23.8997187 113.951401,23.8785157 C117.59588,23.8142153 120.515676,20.8409483 120.512055,17.1976 L120.512055,17.1976 Z" id="Shape"></path>
                <path d="M126.708388,17.1976 C126.695133,14.3361748 127.821055,11.5869483 129.837981,9.55625256 C131.854907,7.52555682 134.597156,6.38020487 137.459935,6.3728 C142.027548,6.37383516 146.085393,9.28736505 147.544625,13.6136 C148.121552,15.2992935 148.284875,17.0988547 148.020847,18.8608 L131.179414,18.8608 C131.739674,22.0192 134.339283,23.9568 137.459935,23.9568 C139.684087,23.9728027 141.805013,23.0201587 143.269837,21.3472 L147.281303,22.4 C145.538893,25.8328 141.353746,27.966406 137.437524,27.966406 C134.583316,27.9694216 131.845794,26.8343866 129.831774,24.8128934 C127.817754,22.7914003 126.693613,20.0504436 126.708388,17.1976 Z M137.420717,10.4048 C134.413754,10.3496899 131.792787,12.4403147 131.179414,15.3832 L143.589186,15.3832 C143.015547,12.4465586 140.413636,10.3466287 137.420717,10.4048 Z" id="Shape"></path>
                <path d="M150.149837,17.1976 C150.136436,14.3361748 151.262358,11.5869483 153.279284,9.55625256 C155.29621,7.52555682 158.038459,6.38020487 160.901238,6.3728 C165.468851,6.37383516 169.526696,9.28736505 170.985928,13.6136 C171.561189,15.299705 171.722595,17.0993087 171.456547,18.8608 L154.615114,18.8608 C155.175375,22.0192 157.780586,23.9568 160.901238,23.9568 C163.12539,23.9728027 165.246315,23.0201587 166.71114,21.3472 L170.745016,22.4168 C169.002606,25.8496 164.811857,27.9832535 160.901238,27.9832535 C158.040218,27.9922354 155.294341,26.8575371 153.274971,24.8317437 C151.255601,22.8059502 150.13038,20.0572369 150.149837,17.1976 L150.149837,17.1976 Z M160.86202,10.4048 C157.854488,10.3514515 155.232908,12.4406899 154.615114,15.3832 L167.024886,15.3832 C166.451607,12.4486764 163.852842,10.3493785 160.86202,10.4048 L160.86202,10.4048 Z" id="Shape"></path>
                <path d="M16.0918046,22.8536 C17.4217062,22.8536 18.4998046,23.9316983 18.4998046,25.2616 C18.4998046,26.5915017 17.4217062,27.6696 16.0918046,27.6696 L7.22063844,27.6696 C5.89073676,27.6696 4.81263844,26.5915017 4.81263844,25.2616 C4.81263844,23.9316983 5.89073676,22.8536 7.22063844,22.8536 L16.0918046,22.8536 Z M20.9100456,14.7728 C22.2399473,14.7728 23.3180456,15.8508983 23.3180456,17.1808 C23.3180456,18.5107017 22.2399473,19.5888 20.9100456,19.5888 L2.408,19.5888 C1.07809832,19.5888 1.62865983e-16,18.5107017 0,17.1808 C-1.62865983e-16,15.8508983 1.07809832,14.7728 2.408,14.7728 L20.9100456,14.7728 Z M16.0918046,6.692 C17.4217062,6.692 18.4998046,7.77009832 18.4998046,9.1 C18.4998046,10.4299017 17.4217062,11.508 16.0918046,11.508 L7.22063844,11.508 C5.89073676,11.508 4.81263844,10.4299017 4.81263844,9.1 C4.81263844,7.77009832 5.89073676,6.692 7.22063844,6.692 L16.0918046,6.692 Z" id="Rectangle-2"></path>
            </g>
        </g>
    </g>
</svg>