<?xml version="1.0" encoding="UTF-8"?>
<svg width="54px" height="36px" viewBox="0 0 54 36" version="1.1" xmlns="http://www.w3.org/2000/svg" xmlns:xlink="http://www.w3.org/1999/xlink">
    <title>Combined Shape</title>
    <g id="Case-Study" stroke="none" stroke-width="1" fill="none" fill-rule="evenodd">
        <g id="Basecamp" transform="translate(-189.000000, -13000.000000)" fill="#222222" fill-rule="nonzero">
            <g id="Quote" transform="translate(189.000000, 13000.000000)">
                <g id="Icon" transform="translate(27.000000, 18.000000) scale(1, -1) translate(-27.000000, -18.000000) translate(0.000000, 0.000000)">
                    <path d="M13.1851009,7.10542736e-15 C20.4280804,7.10542736e-15 26.2985098,5.86285165 26.2985098,13.0950489 C26.2985098,20.3278875 20.4280804,26.1900978 13.1851009,26.1900978 C12.5704399,26.1900978 11.9705514,26.1304495 11.377728,26.0464288 C11.7804368,30.2744036 14.1954056,33.9097436 17.6572891,36 C7.50093234,33.070819 -0.86475072,23.8638137 0.0716919596,12.8673591 C0.685068337,5.66081705 5.94212138,7.10542736e-15 13.1851009,7.10542736e-15 Z M40.8859488,7.10542736e-15 C48.1295706,7.10542736e-15 54,5.86285165 54,13.0950489 C54,20.3278875 48.1295706,26.1900978 40.8859488,26.1900978 C40.2719302,26.1900978 39.6713994,26.1304495 39.0785759,26.0464288 C39.4819271,30.2744036 41.8962536,33.9097436 45.358137,36 C35.201138,33.070819 26.835455,23.8638137 27.7718976,12.8673591 C28.3859163,5.66081705 33.6436116,7.10542736e-15 40.8859488,7.10542736e-15 Z" id="Combined-Shape"></path>
                </g>
            </g>
        </g>
    </g>
</svg>