<svg width="12px" height="20px" viewBox="0 0 12 20" version="1.1" xmlns="http://www.w3.org/2000/svg" xmlns:xlink="http://www.w3.org/1999/xlink">
    <title>facebook-logo</title>
    <g id="Symbols" stroke="none" stroke-width="1" fill="none" fill-rule="evenodd">
        <g id="footer-56" transform="translate(-1271.000000, -348.000000)" fill="#FFFFFF">
            <g id="Group-2" transform="translate(1194.017513, 348.000000)">
                <g id="facebook-logo" transform="translate(76.982487, 0.000000)">
                    <path d="M10.8440103,0.00412371134 L8.14540206,0 C5.11360825,0 3.1543299,1.91443299 3.1543299,4.87752577 L3.1543299,7.12639175 L0.441,7.12639175 C0.206536082,7.12639175 0.0166701031,7.30742268 0.0166701031,7.53072165 L0.0166701031,10.7890722 C0.0166701031,11.0123711 0.206752577,11.1931959 0.441,11.1931959 L3.1543299,11.1931959 L3.1543299,19.4150515 C3.1543299,19.6383505 3.34419588,19.8191753 3.57865979,19.8191753 L7.11878351,19.8191753 C7.35324742,19.8191753 7.5431134,19.6381443 7.5431134,19.4150515 L7.5431134,11.1931959 L10.7156289,11.1931959 C10.9500928,11.1931959 11.1399588,11.0123711 11.1399588,10.7890722 L11.1412577,7.53072165 C11.1412577,7.42350515 11.0964433,7.32082474 11.0169897,7.24494845 C10.9375361,7.16907216 10.8292887,7.12639175 10.7167113,7.12639175 L7.5431134,7.12639175 L7.5431134,5.22 C7.5431134,4.30371134 7.77238144,3.8385567 9.0256701,3.8385567 L10.8435773,3.83793814 C11.0778247,3.83793814 11.2676907,3.65690722 11.2676907,3.43381443 L11.2676907,0.408247423 C11.2676907,0.185360825 11.0780412,0.00453608247 10.8440103,0.00412371134 Z" id="Path"></path>
                </g>
            </g>
        </g>
    </g>
</svg>