<svg width="20px" height="20px" viewBox="0 0 20 20" version="1.1" xmlns="http://www.w3.org/2000/svg" xmlns:xlink="http://www.w3.org/1999/xlink">
    <title>instagram-sketched</title>
    <g id="Symbols" stroke="none" stroke-width="1" fill="none" fill-rule="evenodd">
        <g id="footer-56" transform="translate(-1194.000000, -348.000000)" fill="#FFFFFF" fill-rule="nonzero">
            <g id="instagram-sketched" transform="translate(1194.017513, 348.000000)">
                <path d="M19.9025341,5.87890625 C19.8557809,4.81643676 19.6843019,4.08599852 19.4386574,3.45306398 C19.1852461,2.78121949 18.7953825,2.17971801 18.2846004,1.6796875 C17.7855446,1.171875 17.1812561,0.777282734 16.5184881,0.52734375 C15.8831323,0.281219492 15.1579252,0.109405508 14.0975268,0.0625610156 C13.0292093,0.0117492578 12.6900585,0 9.98050682,0 C7.27095517,0 6.93180433,0.0117492578 5.86744639,0.05859375 C4.80704799,0.105438242 4.07803361,0.277404766 3.44648511,0.523376484 C2.77579801,0.777282734 2.17546904,1.16790773 1.67641326,1.6796875 C1.16959064,2.17971801 0.775919805,2.78518676 0.526315789,3.44924926 C0.280671306,4.08599852 0.109192242,4.81246949 0.0624390643,5.87493898 C0.0117263548,6.94534301 0,7.28515625 0,10 C0,12.7148438 0.0117263548,13.054657 0.0584795322,14.1210938 C0.10523271,15.1835632 0.276864016,15.9140015 0.522508499,16.546936 C0.775919805,17.2187805 1.16959064,17.820282 1.67641326,18.3203125 C2.17546904,18.828125 2.77975754,19.2227173 3.44252558,19.4726562 C4.07803361,19.7187805 4.80308846,19.8905945 5.8636391,19.937439 C6.9278448,19.984436 7.26714788,19.9960327 9.97669953,19.9960327 C12.6862512,19.9960327 13.025402,19.984436 14.08976,19.937439 C15.1501584,19.8905945 15.8791727,19.7187805 16.5107212,19.4726562 C17.8519432,18.9530945 18.9123416,17.890625 19.4308906,16.546936 C19.6763828,15.9101868 19.8480141,15.1835632 19.8947673,14.1210938 C19.9415205,13.054657 19.9532468,12.7148438 19.9532468,10 C19.9532468,7.28515625 19.9492873,6.94534301 19.9025341,5.87890625 Z M18.1053545,14.0429687 C18.0624086,15.0195312 17.8986964,15.546875 17.7622441,15.8984375 C17.4269006,16.7695618 16.7368726,17.4609375 15.8674464,17.796936 C15.5165692,17.9336548 14.9864461,18.0976868 14.0155945,18.140564 C12.962963,18.187561 12.6472648,18.1991577 9.98446635,18.1991577 C7.32166788,18.1991577 7.00201021,18.187561 5.95318593,18.140564 C4.97852706,18.0976868 4.45221127,17.9336548 4.10133407,17.796936 C3.66867688,17.6367187 3.2748538,17.3828125 2.95519614,17.0507812 C2.62381212,16.726532 2.37040082,16.335907 2.21049587,15.9024048 C2.07404363,15.5508423 1.91033138,15.0195312 1.86753774,14.046936 C1.82063232,12.9922485 1.80905821,12.6757812 1.80905821,10.007782 C1.80905821,7.33978273 1.82063232,7.01950074 1.86753774,5.96878051 C1.91033138,4.99221801 2.07404363,4.46487426 2.21049587,4.11331176 C2.37040082,3.67965699 2.62381212,3.28521727 2.95915567,2.96478273 C3.28262062,2.63275148 3.67248417,2.37884523 4.10529361,2.21878051 C4.4561708,2.08206176 4.98644612,1.91802977 5.95714546,1.875 C7.00977704,1.82815551 7.32562741,1.81640625 9.98827365,1.81640625 C12.6550317,1.81640625 12.9707298,1.82815551 14.0195541,1.875 C14.9942129,1.91802977 15.5205287,2.08206176 15.8714059,2.21878051 C16.3040631,2.37884523 16.6978862,2.63275148 17.0175439,2.96478273 C17.3489279,3.28903199 17.6023392,3.67965699 17.7622441,4.11331176 C17.8986964,4.46487426 18.0624086,4.99603273 18.1053545,5.96878051 C18.1521077,7.02346801 18.163834,7.33978273 18.163834,10.007782 C18.163834,12.6757812 18.1521077,12.9882812 18.1053545,14.0429687 Z" id="Shape"></path>
                <path d="M9.98050682,4.86328125 C7.15018881,4.86328125 4.85380117,7.16400148 4.85380117,10 C4.85380117,12.8359985 7.15018881,15.1367188 9.98050682,15.1367188 C12.8109771,15.1367188 15.1072125,12.8359985 15.1072125,10 C15.1072125,7.16400148 12.8109771,4.86328125 9.98050682,4.86328125 Z M9.98050682,13.3320618 C8.14434086,13.3320618 6.65494031,11.8399048 6.65494031,10 C6.65494031,8.16009523 8.14434086,6.66793824 9.98050682,6.66793824 C11.816825,6.66793824 13.3060733,8.16009523 13.3060733,10 C13.3060733,11.8399048 11.816825,13.3320618 9.98050682,13.3320618 L9.98050682,13.3320618 Z" id="Shape"></path>
                <path d="M16.506914,4.66018676 C16.506914,5.3224182 15.9710039,5.859375 15.3099111,5.859375 C14.6489705,5.859375 14.1130604,5.3224182 14.1130604,4.66018676 C14.1130604,3.99780273 14.6489705,3.46099852 15.3099111,3.46099852 C15.9710039,3.46099852 16.506914,3.99780273 16.506914,4.66018676 L16.506914,4.66018676 Z" id="Path"></path>
            </g>
        </g>
    </g>
</svg>