<svg width="22px" height="20px" viewBox="0 0 22 20" version="1.1" xmlns="http://www.w3.org/2000/svg" xmlns:xlink="http://www.w3.org/1999/xlink">
    <title>linkedin-logo</title>
    <g id="Symbols" stroke="none" stroke-width="1" fill="none" fill-rule="evenodd">
        <g id="footer-56" transform="translate(-1338.000000, -348.000000)" fill="#FFFFFF" fill-rule="nonzero">
            <g id="Group-2" transform="translate(1194.017513, 348.000000)">
                <g id="linkedin-logo" transform="translate(143.982487, 0.000000)">
                    <path d="M21.4362518,12.2593689 L21.4362518,19.9786408 L16.8417689,19.9786408 L16.8417689,12.7763592 C16.8417689,10.9670874 16.1772265,9.7323301 14.5141761,9.7323301 C13.2446479,9.7323301 12.4891508,10.564466 12.1567799,11.3694175 C12.0355735,11.6571845 12.0043748,12.0577184 12.0043748,12.460534 L12.0043748,19.9786408 L7.40834693,19.9786408 C7.40834693,19.9786408 7.47024595,7.78033981 7.40834693,6.51650485 L12.0039262,6.51650485 L12.0039262,8.42470874 C11.9946065,8.43898058 11.9824958,8.45436893 11.9737243,8.46820388 L12.0039262,8.46820388 L12.0039262,8.42470874 C12.6144939,7.50873786 13.7049036,6.20024272 16.1455793,6.20024272 C19.1694117,6.20024272 21.4362518,8.12432039 21.4362518,12.2593689 Z M2.60070615,0.0270873786 C1.028411,0.0270873786 0,1.03160194 0,2.35257282 C0,3.64475728 0.998657605,4.67975728 2.53970421,4.67975728 L2.57040453,4.67975728 C4.17315081,4.67975728 5.16991456,3.64495146 5.16991456,2.35257282 C5.13971262,1.03160194 4.17315081,0.0270873786 2.60070615,0.0270873786 Z M0.272963754,19.9786408 L4.86724725,19.9786408 L4.86724725,6.51650485 L0.272963754,6.51650485 L0.272963754,19.9786408 Z" id="LinkedIn"></path>
                </g>
            </g>
        </g>
    </g>
</svg>